<mxfile host="65bd71144e">
    <diagram id="7h5fW288fqaYLJ5d3jOU" name="ページ1">
        <mxGraphModel dx="1487" dy="1985" grid="1" gridSize="10" guides="1" tooltips="1" connect="1" arrows="1" fold="1" page="1" pageScale="1" pageWidth="827" pageHeight="1169" math="0" shadow="0">
            <root>
                <mxCell id="0"/>
                <mxCell id="1" parent="0"/>
                <mxCell id="13" value="VPC" style="points=[[0,0],[0.25,0],[0.5,0],[0.75,0],[1,0],[1,0.25],[1,0.5],[1,0.75],[1,1],[0.75,1],[0.5,1],[0.25,1],[0,1],[0,0.75],[0,0.5],[0,0.25]];outlineConnect=0;gradientColor=none;html=1;whiteSpace=wrap;fontSize=12;fontStyle=0;container=1;pointerEvents=0;collapsible=0;recursiveResize=0;shape=mxgraph.aws4.group;grIcon=mxgraph.aws4.group_vpc;strokeColor=#248814;fillColor=none;verticalAlign=top;align=left;spacingLeft=30;fontColor=#AAB7B8;dashed=0;" parent="1" vertex="1">
                    <mxGeometry x="20" y="220" width="420" height="480" as="geometry"/>
                </mxCell>
                <mxCell id="15" value="Availability Zone" style="fillColor=none;strokeColor=#147EBA;dashed=1;verticalAlign=top;fontStyle=0;fontColor=#147EBA;" parent="13" vertex="1">
                    <mxGeometry x="45" y="60" width="320" height="360" as="geometry"/>
                </mxCell>
                <mxCell id="5" value="&lt;span style=&quot;color: rgb(22, 25, 31); font-family: &amp;quot;Amazon Ember&amp;quot;, &amp;quot;Helvetica Neue&amp;quot;, Roboto, Arial, sans-serif; font-size: 14px; font-style: normal; font-variant-ligatures: normal; font-variant-caps: normal; font-weight: 400; letter-spacing: normal; orphans: 2; text-align: left; text-indent: 0px; text-transform: none; widows: 2; word-spacing: 0px; -webkit-text-stroke-width: 0px; background-color: rgb(255, 255, 255); text-decoration-thickness: initial; text-decoration-style: initial; text-decoration-color: initial; float: none; display: inline !important;&quot;&gt;10.0.0.0/24&lt;/span&gt;" style="text;whiteSpace=wrap;html=1;" parent="13" vertex="1">
                    <mxGeometry x="75" y="-4" width="80" height="30" as="geometry"/>
                </mxCell>
                <mxCell id="10" value="&lt;span style=&quot;color: rgb(22, 25, 31); font-family: &amp;quot;Amazon Ember&amp;quot;, &amp;quot;Helvetica Neue&amp;quot;, Roboto, Arial, sans-serif; font-size: 14px; font-style: normal; font-variant-ligatures: normal; font-variant-caps: normal; font-weight: 400; letter-spacing: normal; orphans: 2; text-align: left; text-indent: 0px; text-transform: none; widows: 2; word-spacing: 0px; -webkit-text-stroke-width: 0px; background-color: rgb(255, 255, 255); text-decoration-thickness: initial; text-decoration-style: initial; text-decoration-color: initial; float: none; display: inline !important;&quot;&gt;ap-northeast-1a&lt;/span&gt;" style="text;whiteSpace=wrap;html=1;" parent="13" vertex="1">
                    <mxGeometry x="45" y="60" width="110" height="24" as="geometry"/>
                </mxCell>
                <mxCell id="22" value="Public subnet" style="points=[[0,0],[0.25,0],[0.5,0],[0.75,0],[1,0],[1,0.25],[1,0.5],[1,0.75],[1,1],[0.75,1],[0.5,1],[0.25,1],[0,1],[0,0.75],[0,0.5],[0,0.25]];outlineConnect=0;gradientColor=none;html=1;whiteSpace=wrap;fontSize=12;fontStyle=0;container=1;pointerEvents=0;collapsible=0;recursiveResize=0;shape=mxgraph.aws4.group;grIcon=mxgraph.aws4.group_security_group;grStroke=0;strokeColor=#248814;fillColor=#E9F3E6;verticalAlign=top;align=left;spacingLeft=30;fontColor=#248814;dashed=0;" parent="13" vertex="1">
                    <mxGeometry x="80" y="120" width="250" height="260" as="geometry"/>
                </mxCell>
                <mxCell id="30" value="" style="sketch=0;outlineConnect=0;fontColor=#232F3E;gradientColor=none;fillColor=#D45B07;strokeColor=none;dashed=0;verticalLabelPosition=bottom;verticalAlign=top;align=center;html=1;fontSize=12;fontStyle=0;aspect=fixed;pointerEvents=1;shape=mxgraph.aws4.t2_instance;" vertex="1" parent="22">
                    <mxGeometry x="90.5" y="90.5" width="79" height="79" as="geometry"/>
                </mxCell>
                <mxCell id="11" value="&lt;span style=&quot;color: rgb(22, 25, 31); font-family: &amp;quot;Amazon Ember&amp;quot;, &amp;quot;Helvetica Neue&amp;quot;, Roboto, Arial, sans-serif; font-size: 14px; font-style: normal; font-variant-ligatures: normal; font-variant-caps: normal; font-weight: 400; letter-spacing: normal; orphans: 2; text-align: left; text-indent: 0px; text-transform: none; widows: 2; word-spacing: 0px; -webkit-text-stroke-width: 0px; background-color: rgb(255, 255, 255); text-decoration-thickness: initial; text-decoration-style: initial; text-decoration-color: initial; float: none; display: inline !important;&quot;&gt;10.0.0.0/28&lt;/span&gt;" style="text;whiteSpace=wrap;html=1;" parent="13" vertex="1">
                    <mxGeometry x="190" y="120" width="80" height="30" as="geometry"/>
                </mxCell>
                <mxCell id="24" value="AWS Cloud" style="points=[[0,0],[0.25,0],[0.5,0],[0.75,0],[1,0],[1,0.25],[1,0.5],[1,0.75],[1,1],[0.75,1],[0.5,1],[0.25,1],[0,1],[0,0.75],[0,0.5],[0,0.25]];outlineConnect=0;gradientColor=none;html=1;whiteSpace=wrap;fontSize=12;fontStyle=0;container=1;pointerEvents=0;collapsible=0;recursiveResize=0;shape=mxgraph.aws4.group;grIcon=mxgraph.aws4.group_aws_cloud;strokeColor=#232F3E;fillColor=none;verticalAlign=top;align=left;spacingLeft=30;fontColor=#232F3E;dashed=0;" parent="1" vertex="1">
                    <mxGeometry x="480" y="-30" width="240" height="300" as="geometry"/>
                </mxCell>
                <mxCell id="25" value="" style="sketch=0;points=[[0,0,0],[0.25,0,0],[0.5,0,0],[0.75,0,0],[1,0,0],[0,1,0],[0.25,1,0],[0.5,1,0],[0.75,1,0],[1,1,0],[0,0.25,0],[0,0.5,0],[0,0.75,0],[1,0.25,0],[1,0.5,0],[1,0.75,0]];outlineConnect=0;fontColor=#232F3E;gradientColor=#60A337;gradientDirection=north;fillColor=#277116;strokeColor=#ffffff;dashed=0;verticalLabelPosition=bottom;verticalAlign=top;align=center;html=1;fontSize=12;fontStyle=0;aspect=fixed;shape=mxgraph.aws4.resourceIcon;resIcon=mxgraph.aws4.s3;" vertex="1" parent="24">
                    <mxGeometry x="40" y="160" width="40" height="40" as="geometry"/>
                </mxCell>
                <mxCell id="55" style="edgeStyle=none;html=1;exitX=0.5;exitY=0;exitDx=0;exitDy=0;entryX=0.5;entryY=1;entryDx=0;entryDy=0;entryPerimeter=0;" edge="1" parent="24" source="26" target="27">
                    <mxGeometry relative="1" as="geometry"/>
                </mxCell>
                <mxCell id="26" value="S3" style="fillColor=none;strokeColor=#5A6C86;dashed=1;verticalAlign=top;fontStyle=0;fontColor=#5A6C86;" vertex="1" parent="24">
                    <mxGeometry x="40" y="160" width="160" height="80" as="geometry"/>
                </mxCell>
                <mxCell id="27" value="" style="sketch=0;points=[[0,0,0],[0.25,0,0],[0.5,0,0],[0.75,0,0],[1,0,0],[0,1,0],[0.25,1,0],[0.5,1,0],[0.75,1,0],[1,1,0],[0,0.25,0],[0,0.5,0],[0,0.75,0],[1,0.25,0],[1,0.5,0],[1,0.75,0]];outlineConnect=0;fontColor=#232F3E;gradientColor=#F78E04;gradientDirection=north;fillColor=#D05C17;strokeColor=#ffffff;dashed=0;verticalLabelPosition=bottom;verticalAlign=top;align=center;html=1;fontSize=12;fontStyle=0;aspect=fixed;shape=mxgraph.aws4.resourceIcon;resIcon=mxgraph.aws4.lambda;" vertex="1" parent="24">
                    <mxGeometry x="96" y="40" width="48" height="48" as="geometry"/>
                </mxCell>
                <mxCell id="33" style="edgeStyle=none;html=1;entryX=0;entryY=0.5;entryDx=0;entryDy=0;" edge="1" parent="1" source="31" target="26">
                    <mxGeometry relative="1" as="geometry">
                        <mxPoint x="270" y="210" as="sourcePoint"/>
                    </mxGeometry>
                </mxCell>
                <mxCell id="50" style="edgeStyle=none;html=1;" edge="1" parent="1" source="31" target="30">
                    <mxGeometry relative="1" as="geometry"/>
                </mxCell>
                <mxCell id="31" value="" style="sketch=0;outlineConnect=0;fontColor=#232F3E;gradientColor=none;fillColor=#4D27AA;strokeColor=none;dashed=0;verticalLabelPosition=bottom;verticalAlign=top;align=center;html=1;fontSize=12;fontStyle=0;aspect=fixed;pointerEvents=1;shape=mxgraph.aws4.internet_gateway;" vertex="1" parent="1">
                    <mxGeometry x="201" y="190" width="58" height="58" as="geometry"/>
                </mxCell>
                <mxCell id="53" style="edgeStyle=none;html=1;" edge="1" parent="1" source="34" target="35">
                    <mxGeometry relative="1" as="geometry"/>
                </mxCell>
                <mxCell id="34" value="" style="shape=image;verticalLabelPosition=bottom;labelBackgroundColor=default;verticalAlign=top;aspect=fixed;imageAspect=0;image=https://upload.wikimedia.org/wikipedia/commons/thumb/d/d5/Slack_icon_2019.svg/2048px-Slack_icon_2019.svg.png;" vertex="1" parent="1">
                    <mxGeometry x="350" y="-50" width="70.68" height="70.68" as="geometry"/>
                </mxCell>
                <mxCell id="35" value="" style="shape=image;verticalLabelPosition=bottom;labelBackgroundColor=default;verticalAlign=top;aspect=fixed;imageAspect=0;image=data:image/png,iVBORw0KGgoAAAANSUhEUgAAAOEAAADhCAMAAAAJbSJIAAAAY1BMVEX///9LS0s8PDzs7OxGRkby8vKRkZE9PT3MzMxJSUk0NDQ4ODhAQEDR0dHAwMDi4uL5+fmcnJx8fHzc3NxQUFC7u7tycnJaWlptbW21tbViYmKMjIxnZ2eWlpbl5eVvb29/f3/p2FuQAAACrElEQVR4nO3d7VLiMBSA4baklNJSvkHdVff+r3JhMSOrHEmRTM+J7/NfJu9QDikyJMsAAAAAAAAAAAAA3EM5sqC8Na/buaqwoHKr7oa++b5wuRWu2M/7Bk6m9dDL7sU1k36B62boJffW9HsWN7aewSO37xPYFUOv9wZFn+v0wc6QeedW4YELi4EH4YUjixdpnrfhb/1GC4sRhT+20Gl2l8LgPxsChQIKFaFQQKEiFAooVIRCAYWKUCigUBEKBRQqQqGAQkUoFFCoCIUCChWhUEChIhQKKFSEQgGFilAooFARCgUUKkKhgEJFKBRQqAiFAgoVoVBAoSIUCihUhEIBhYpQKKBQEQoFFCpCoYBCRSgUUKgIhQIKFaFQQKEiFAooVIRCAYWKUCigUBEKBT/tVwXNoJBC/SikUD8KKdSPwjOl0cLw32R/bIde7E3ax9DA9XTotd5oug68Rp294ztOahd2nT4ZPfvhwD2FBP6y+SI8acfXA7f2ztA512yvBZqdMt61abPIrU4Zr84XXxb+tjtlPPfwVeDY8pTxqmc50PiU8RrxnLm5ze3oZ4VwQNmitj5lvFr4nN7kQV2XXZ42z9XQ67qjS3ubLo0p433e2yQzZbyP08b+Xuajuv5/b7NLZ8p47jXZKeOd720SmzLe+97mJbUp4xUvb1PG4LGqYerNItUp47ndMXCZ4pTxqmWWzeJNmTb4ZO14t6XNLHuNdo22XRmqi5Z4eFeM9dCHKyT8BOJJxFcKhd9AIYV3QuE3UEjhncQsnAUXzmwWutU41Cri7U3Ewj5HlkdcRbaJ+OAabLKYF4gC7k+2TfkG+DDutlmW3GfB5+rNcVJP002sT99bmLk2zca6rd++mFEu8yr4IxU7qnx59q+LcpSe8O9iAgAAAAAAAAAAAPjnL9yhV52O9Y+VAAAAAElFTkSuQmCC;" vertex="1" parent="1">
                    <mxGeometry x="317.84000000000003" y="-270" width="135" height="135" as="geometry"/>
                </mxCell>
                <mxCell id="37" value="" style="shape=image;verticalLabelPosition=bottom;labelBackgroundColor=default;verticalAlign=top;aspect=fixed;imageAspect=0;image=https://pz-garden.stardust31.com/kitei-moku/uma-ka/photo/grant-simaumaWMM%20(1).jpg;" vertex="1" parent="1">
                    <mxGeometry x="351.84000000000003" y="-241" width="66.68" height="50" as="geometry"/>
                </mxCell>
                <UserObject label="https://www.youtube.com/watch?v=ydYDqZQpim8" link="https://www.youtube.com/watch?v=ydYDqZQpim8" id="39">
                    <mxCell style="text;whiteSpace=wrap;html=1;" vertex="1" parent="1">
                        <mxGeometry x="10" y="-60" width="270" height="20" as="geometry"/>
                    </mxCell>
                </UserObject>
                <mxCell id="44" style="edgeStyle=none;html=1;" edge="1" parent="1" source="41" target="31">
                    <mxGeometry relative="1" as="geometry"/>
                </mxCell>
                <mxCell id="41" value="" style="shape=image;verticalLabelPosition=bottom;labelBackgroundColor=default;verticalAlign=top;aspect=fixed;imageAspect=0;image=data:image/png,iVBORw0KGgoAAAANSUhEUgAAAggAAAE4CAYAAAA+bgtTAAAAAXNSR0IArs4c6QAAIABJREFUeF7sXQWcXNX1/sbWLZts3ImRAEGDW7ECxR3aYv23aJFSirtDkSLFipUChQLFSgV3h2CBuBGysc26jP1/37nvzszOjryZeTO7yd7pj2Z357377j33vnu+e+Q7rnA4HIb5GAkYCRgJGAkYCRgJGAnESMBlAIJZD0YCRgJGAkYCRgJGAvESMADBrAkjASMBIwEjASMBI4EeEkgIEBobG3tcaDwRZvUYCRgJGAkYCRgJrL8SqKqqgtvtjgwwIUAYMWwEQqEQgqEggsEQQqGg/M7/GLEQDquf030IKuS6MOByu+Byqf/iP9JuKH+hEPlrOZ0EzPdGAv1bAnzb+c5zLzDvYf9eCxmNnoqGi4eLxlIZWnfEH1Zj9Qr1SOR70TVUWDFPtv4WvYdrU+m1np9wRGe54EKIei8Ykv64Xe5o16z1HQwGotfH67kwEAqH4fV6wLb4Nij9GI4Mkx3ld7pvfB4/IgqRQU/dmZFMbVw8Z+5sjB07NjVAGD5suAIEwRCCwaASTJYAgfdzgB63OwIS1KDVzHPgAkYoeEtAdrYSClJ/Yq9nu91AiAVOtHDV94URdrSDkRm2MUXmEiOB9UcCBiCsP3NZuJGERe/ofZ3KmNo4BKUw3XDLHk+91F1XaESheir3iWIPRrrOv7lcbjn06k8swOB3Sj+pg20w5l6PyyPPDYQC0Xvhkuewb7HAhddqEJBKn/Fej9ujdKD1LNVvAgo1Xuo6j8djPTO/IMEWQBg2ZJh0jpMU8AfkZ7/fLx11ezwKNISC8Hq9MrjOrk6FwKh83WoAWlFXV1dj1113xQsvvCBteX1e1ZbLJfcHAgExafB6fq8tDbIg2B4FZH2vJ5XP1NcRMWrhasHye7YZFFATxFZbbQWv1we3y4WGtQ2Y/f3syMLivbyeH3+ACBAyGePHj8fSpUux90/3xksvv4Suzi616NxutSCsyePP8qygWnCBYAA+n88ao1v67/ZwfJBrPB61uGUxRcAt0aRIzbK2RE08hXspzZOMBJyXgAEIzst0/W9RHfJ23mlnTNtoGpb/uBzP/PMZbLXlVthuu+3w9Vdf4+133sGMGVths802w+LFS/Cvl17C9jtsj4022gizvp2FV159BYFgUPbfiooKHHnEkaJHnnvun7KXH3zIwaisrMRLL72EOXPnULPJ3s/n7rvPvpj13SwsXLgQBx54IEaMGIG3334Hn3/+megN6sEZM7bGdttui+++/w7/evlfqm/bbocVK1bg6Weflv2fe/wmG0/HPnvvjUWLFuHJfzyJrWdsI/1mn59//jk5GGtjQ1lZGX7+85/jiSeeQHNTMwYMGIDDDj8M999/f9TCnsAC7+R6sAUQhg4ZKh2isuvq6hKFWVpaKoPm77QslJWXSb9aWlpEYZaUlsDr8aKjsxNtba2i8CorKjB6zGiccMIJuOqqq9DW1i4ggteuXbsWFeUV6PJ3obi4WP5rbmlBZ0cnaqqr5dklJSVoaGgQEOEr8qG6slqUeHNTU8RcQ6Vb5CtCeUW59I/9KSoqkrb9AT+am5tx1FFHo7i4SMbxww8/4OV/vYzqmmoBBhJv4SIKdMmCae9oR3lZOe644w6cedZZGD58OL766ksZa3VVtYAhPqO0pFT6UF5WJr/z74IEwyF5Dp/PT1NzkwChsrJy0ATV2tqKkuISAVpFRT7pH8dJkMGfFbAyAMHJRW/a6j0JGIDQe7JfV58cDoVQU1uDC8+/EPfdfx9++Ytf4p/P/RNHH3U0Hn7kYRx4wIF4/Y3Xsd9+++G2227DBRdcIEp10sRJeOutt3D6b0/Htddci6U/LJV99fTTTxdlz8Mq92YChIrKSiyYPx/FJcV44cUXZf+nS/3Qgw8VfXX1NVejs7MLRx15JP7ywF9w3LHH4Zprr0FjUyNGDB+BE084UQ69Rx51JK6//npceOGFePyxx7HVjBl4/oXn0NLcIkbrs888G08+9RSOP/54PPbY3zBt2jR8++23OOboY3Dvffdh2Q8/oKOzQ6bqhBNOxEEHHihtUhf88pe/xFFHHSXj7OryK2tCXwAIg+sGy6mcirl2QC0uvuRitLW1YdTIUbj5lptRUzMA++yztwj7v//9L77//nvcfPPN+OKLLzBk8BD84Q9/wPRNN8Vhhx0mphqf14fXX38drW2t+OSTT0SgJ510kkwchXzsscfK4AlCLrzwItx4ww0yEUR+H334ER5/4nFce+21Ak4GDRqESy+9DEuWLJb+Ufked9xx2HLLrURZX3X1Vdh7770xefJklJeX49ZbbsWEiRMEgBA4LF68WBQ6FxutEO+//z6eeeYZnPv7czGobpAgulde+R9uu/U2/O53v8OWW26JO++6EyeffDJqqmvEOnDjTTfip3v9FBtO3VDa5PjvvPNO6R8XxfHHnYAttthcrv3Tn/6EbbfdFtOnTxfQ9Oyzz6CjowOnnXaagB8u4OXL6zFx4kRcd921+Oabbwria1pXNw/T73VLAgYgrFvz1Td6qywI3FuptC+79HK8/vpr2HrrrUVx//yYn8ve+dprr8mB7v777sctt9yKb2d9I99tv/32ooPWNKwR/fDsM8/i1FNPlYPYcccdL2BgbeNaFBUVC7CYSwsCXRahEEaMHIkjDjsc733wHspKy8RCccutt+CuO+7CdddfjwUL52P77bbHNltvg9v+dJso8I72Duy+x+6YP28+6lfU48knnxRA8N577+GAAw7AZZdfhn323kf02VP/eAoHH3QwDjroINEBRxxxBF599VXpG/XWuLHjcMFFF2DixEnYY7fdMXLUSJx99u8QCCire75Zi2xZEAbVDpJ1wtP94YcfjsqKSjzw0AO48oor8b///g+/O+ccnHjiCXLaPfPMM/H88y/g/PPPw0EHHoRzfn8OvvrqKxx55JEySRTKiSeeiL/+9a+CuqhMf7r33qI4d9ppR0GA06dviq7OTjGvPPDgA7j00ktxycWXiDvglFNOwdVXXY1ttt0Gq1etxjE/P0ZAyddffw2aZChYCpn3EDwMHjwYJ590Mk465SRMmTxFgADNQLQ0FBcVY8HCBTjnd+cI6GhqasLhhx2OJ596EptssokAl3Hjxskpn4DnlJNPwQUXXoC33nobm2++OS655GLst9/+2GjaNEF9HMubb76Ja66+BldceSVWr1qFwUMH49qrr5V+1w2uE7T5y2OPxQUXnC+mKv794YcfFrfL7bffjvvuu08QMMHU99/PFhOYx+PtG++p6YWRQI4SMAAhRwH219tpaS4rwVlnnoUF8xfgs88/w6GHHIqrr70av/j5LwQg0I0g3y9YiH88/ZQo0KGDh+KMM8/Af/7zHwEYPIz93//9GmeddaYcEn/9619j4MBB+Pvfn5A29t13X/z73//G+HHj8d///Rer16zGmWeciY8++kj2d+o3Ho55AD3397/H/AXzscMOO4hL4bbbbxNAQovEPvvui7PPPisCDD744AOxnlPnXXjRhdh1l13FZUCXRl3dYPzqVyfKM/7z7/+Ijrzpjzfhb397DKeccrJYP6g/P/n0Exx26GFyUF324zJlQeAJNI9WBFsAobamVjpDs/lJvzlJUBGRz/l/OB8ff/IJzjvvD6LQ+LnooovlxM0BUcGfc87vsXjRIhxyyCE47fTTUFpWhlNOPhk33nijnLJ5Yn7jjTew6aabinL97rvv8Itf/EJABZXmPffcgz+c+wcRSpffLxP00EMPysR++umn2GH7HUTIG06digkTNsA777yL8ePG4bwLzkNtbS0232xz8RudedaZqBtUh/PPPx8zv5gpYIduAU7w1Vdfjb8/8XcBIJw0+o0ILm697VaMHTMOJSXFuPrqa3DySScJyOGYx40bi2uuuQa77LKLoMEflv2A9957H59++gluvfVWaZPtjBo9Guefdz5OOfVksb5svvkW4oOiFYbP4HcPPvQgNpyyIR599FEBSpddcZn4yJYsWYKnn37aAIT+uimuh+M2AGE9nNQ8D4kHT0b7X3bZZZg3dx7+8fQ/RNlfdNFFYuY//rjj8eorr2Kvn/5UlPzjjz+OsrJSHHrooXjo4Yfx29NOF12xfPlysTLvf8D+eO2111E7cADGjB4r+/usWbOwbNky7LPPPnjssccwdOhQzJw5U8DA2Wefjfc/eB8L5y+UuIYvvpiJ3/zm12LF5qFyzOgx4obQroe/PvpX/Pa3v8W1112LY39xLF57/TUsXrRYghnPOP0M3H7H7QI6Xv73y9h4403w4osv4Gf7/kys5K+88ooAm7322kuU//EnnICbbrwRTDekBfzoY47GWWedhS8+/0Is9nRr5/NjCyDUVNWIqZwm86kbThUl/cabb+DYY4/DRRddKELlKZtxCjTT06pAd8GvfvUrQW+cVAq8dmCtmHEmTJggFoffnv5bbLnVlrjs0stEuLyewYA0rRA00NXwxz/+EWefdTZ+d87v0NnZKYKnEI855hhRnkcffbT8++jfHhULBs3+F198saDMiZMm4l//+peYdWhhmDhhIj759FPJoPD6fLIwFixYgGlTp8Hj9WDVqtUYOWIEHnr4IVx4wYX4/IsvxJJw22234rbb/oQbrr8e++2/n4AWWh3efe9dzJgxA888/Qy22HJLvPHG6/j8889xww034tZbb8GWW2yJV197FZdffgVmzfoWkyZNEtcKg21ouRgyZIgsWi7EDTfcEI88/IiYqS655BKxgjAoku4OY0HI5ytg2i6kBAxAKKS0149n0S09dOgw3HHH7RJQTjfD/ff/BZtuOh3bbLMNvvryK3z40Ye48cabJD6svLwC9957D6ZvMh2bbb4ZlixZKodK6igq3YGDBorllu4GBvwxtZAubn4ef+wxfP0t3boq+JDxdAQa3373reiU0049DTUDBuDVV18RV4AOTj/koEOw7XbbygGXuoxuA+qGuXPn4uGHH8GvTjxRghJpxd5///3R2tIqAOJnP9tPXCUrVtTjnrvvweFHHC66jwdXfn79f78W3UagQt150q9/g7v+fJfoOhXMn985tgUQGAzIDIBgICAm9/EbjJegCVoFHvvbY/jks0+w9VZbS4epiD1eL4YNHYrvZ8/G8OHDBLXV19eL352B+S2trVi4cIG4BBjfMG/ePPG5UygMyJsyebJM3vL6enE10BTPyFIiJroM5s2fh+mbbIqy0lKsWr1KgAODDekzop+fvqKp06YKmpw9e7a4HRjNykCRb779BoMHDxHzEhcegz3Wrm2QgJaq6mpZYAyOHFBTI0qbi4J9p3In+PF3+UW50wxE8LBwwUIsXroYY8eMxaqVqi9jx40Vxc82v/zqS+n3FptvgdWrV+O72d+hsrxSonGbmpox67tvJYBx0MBBWLR4kYAYyqGurk4CNNesWSMBjOZjJLA+SMAAhPVhFgs7BgYpMuWPByVtTWdgvChJD1MUQ1ZGXTSY2+v2CpBgloFwFYBZch4EAkzTD0Yy1STlMJL6rlImY9MT+T1j5pgBIfw8UEHnbFMTCFFJ6zb5TLYRlOB0Zq0pHgP+nX1ioLxksTHbzsp8Y3tyuBZ3gUpnZIA7M+38/i55rs7sY+A/9RB1qqYFyCcfgi2AUFFeaZE4BMUsfsUVV4jS/fLLLyVmgAhMR33Gkj6onyl/NWCZSGuG5TshS1EQSCabKYIetzV4tQj19YwZcEv6oYZMFCaFqhaFTh/UREwENPI3oiyrD7IQSGihcjC7LQQ9OeqZnECL+IkkGJG0RZdK3ZT8F6hUE/mx+++KMUPl4KrnqQUsbbtV8Ivqs3WfBQM1IoxcX2h+hsK+9+Zp/VACBiD0w0l3YMhUtn5/QPQMt00eIPmhotYKmDpCcRhYOsHam5UZPiyKXaXkq4Mk91udfij3SFo+09S5uSudJAqf31kpj0oXWPwLwr2giY0svSQ6xiI+svSDBhxayWuiI+ooIVjSBEgWGFGABkIBoO9VhExKZyrNolLhlTxsciHE6NvolCQmK9Tf2wIITPPTypodJKISRe4PiDJnCiIFyr+l+0QiL+NsI4nYsGLbiiWJ0H9PluKhUWGUrS0ODIhAuwtVrbvUgs6F/U0mUsguojYh/k3RRfS0E+nr08lTwFWSNuzca64xEiikBAxAKKS016dnKX4bITayWHhldHJ6VyRG6tfoXqoD+PSBMBYgEGBolkV1aKPJXukFdS5zySExysJoM6UwZiu3jr4JJ0FATVBxBylGYmVRoG5VB2kFVDSBoGJ37KknlA60BxC0HOI7lCqNPiOAEDshWjnTZFPk80VYolIuSbHmWCRA8QAhjgIzXvknF070ibEWiQiIiBOetKMMAd0+vQEQ9KoWMxQXg5idUjM7avSoOm9ZJSKWBk2w1Dsbg+qbYh3LNro2Fgzb968pAJgbX0SMZSoiPt2uzJChBnZgWRmA4IAQ+10TFkU/GQTFIqzM8erQaG3mevOJ0ZXJAAL3WU3QJ8yFHo8ccrX1IdZwK64MsQTbU8Jpp8baZrQlmS4DrbcigIHuC02gF7FCWGyOcQ/Qe16sGyJxV5WcErE4OgIQtIDog+dDaC7Rf9PIzoJeKWSUPKIiXe2FeICgF4fPRwQm9iBF/2yZk6KDTvbM/FkQ7IANRVet+k25aerMWCatRILUrplY3MOxatSrXCdxd+o/RIac22LXz9IvkozDUp/6xc0GIEQQrmLdVhAoAUmUplTn91qORNvKJ6hfhLSvauQCbjrcILgGu8d7KFnq+VQvV26ys9+rdfnK5O95xJUXR4m/Lo/W9D2/EtCnZ+ob7pN0C+iTt3bhJtsrtVmebdBFHaKrWizdLgSCfnF9c9/QDL7KDa3Ah7DkyndkxbUfDZgITGi2Xa3HInEJVgq7djtrcj0FVixXhw3xajeF1svBAEsaWPUrQP1CIJLMCpHc8m/bgqBOaIoOmR8qMl3UIspjnXzz7PZNDNqTQViWBW3i72bWsTbkeIAgysCl6IojgtTFoMQto2INtKle91/LOn66dT0G3U+tCgg4YtuI3helQ1ZKLLZFNZJuf+GEx0w0lY2mYyYfAxeoBNVYck6GWKOxG1HXU6wSVbJQ5irdL23C4ncRJSp9ifrNEuu9ZPOpACKDaPhhdovy1wUkQKe4pERYIjVwiC70eAWrf489vVuaQx8MYqwj+uXV/kCOj75EPovBoQpkWX22aL5jwUt35d7d7aRfLHW9Qut6jAG/H35rM+kOWOKtDok2EW0mtGmitLEZ9PVL9GaVatPu62Mw/etLEghj+PARGDF8uGQrcG/beNrGWLlqJVbUr4jEB8T3OBrjxfo+QYwZM0bI95gi+eOPP2LFyhUKILgUDT8PGUybHzpsqOxnS5csxWeffabqQMj+pmPH1JO67/gx0XGxe5bl/uVzuUfFHgAFhLhUXB1TGHfYYUe8+torsp+Sv4EB+V9/83VM7F13DRI7XrZbVV2FqRtuKCmbDHb/+NOPI3FuW205Q5giSRbVQ04pmHptAwRu8uQ1YAoiswoY3c8UPP4nRSXCVD4uFaUpRSyi3SBy4ybODVf7WSgEbu7aD0RFzLS/iy++SFIMmSXBZw4eMljyXwlMbv/T7Zg9ZzaOOebn2GabrSXKnzmnH374oTIBW0Elm266GXbZZWdhvDrl5FMxatRIXHTxxZJqwomYM2cOXnzpJbJtd6sVQQW97dbbYtToUXjqqadQXFwiiptDKSouFnKNSZMmy+K69bZb5N+I2reCWLhqmK1BPgXSf6oFAFGeJNEgGn3yyb/LeGheOvyII7D77rsJNwPzY0m4xCwM5royAJQZH9qtIKgyrIJ09GfHHXdCHQmhhgyW9EuFRNVcaP8UN+yamhqceuppGD16NDo7O/CXv/xFyEb4coiZC2GZO350nMjWW82Qcb/77juR5+mATZJBbTBhAlatWincEK2tbRLJu8due0jq6ZKlS4QPomHtWpQUF8sckjdC0mEtIKdRsjaxESvuuMMOktHCVKV77rk7LlpXAT8i/xuuvwGjRo2SdCGmqF555ZVYsniJgCwxIoTCkn5LMq0PPvogAiIpd9JzFxcVKWADCG/GKaecClqjrrvuOrmHFgW+oOeee65Qst5x+x34fObnKv7G7VZUpy4VWKvBKOc4Kj8FoiIYjAXK+kk2igEIfUm5rrt90YclKnfSC995x53YaeedJMuL+w91D8mDmJEm+0KXP0JtTyuBHMDCEFp+EiRNnjgZpWWlOPjgQ/DWW2/irbffkjg6fuQw4PPiz3f9WdLoSf3PVPp33nkH9957r3zPfYbWC6kRxMNJkTosU/HrAHvqNDIp8l2nG4H3kU34N7/5jZQXYD+410q9Hyt+gr+PGTVG0uYvOP8CPPLoI6BCP+igA4WYjwdIGU9ABerLwZxWfBf3IVWagP1iZh15dpYv/xFnnHEGzjr7LCFt4l64y6674Juvv0H9ynqh9qceZr+ZWZEqyNE2QNBC5GZJ2mHmjbKuADfzPfbYAytXrsT//vc/7LjjjqKMeBJra20VRUlCiJ122glVVdVC/vP222+L0p4ze46KIkVYUh7JVLjtdtvh+OOPEwIKDoKc10z148bO1D/+PHLkKNx++5+kLsKee+6JRx75a+Q0TmAycsRInHLqqbj4kotw0403yWSce965sqhIqMF6C5w83k9+BuaplpeX4Sc/+YmkQHJxvPvOOzI+pityEphvu9tuu+POO++QYk8M3Hz2uWdlgbAmA7kWuBCef+F5HHzwwaKIOdkkv+Bn6tSpuOqqq4Va+a9/fVRQbHV1lYChiy65CH979G8466yzMXfeHGn7sssux1133onpm04X0qg999hT6kt89dXXGDFiuKRM8lkEQF/OnIkTTjwBH3/8sbB9kWshaoEgCIKM/c033sR//vsfYe7acccdpF3Wm+C/ZCUjn8Shhx0qdSJefvllnHbqqQIQrr/+OsleYdETzhW5Ji697FJ5kZjWyrRTAqUBA2plXvgikDzkq6+/EsYvAh4qdNJys7gK52DnXXaWdpjayfXS0dGJZ//5jPBLkKKbMmTbPyz9QZjN1DqhknULkGF7Dz/0MGZ9/x2OPPwIDBs+THKamWNMQqznX3hB5oDriIp+yJDBgt6ffvofUr6UYIIU2/z89ozf4suZX6K1rQ1HH30UzjnnHFlP5OUgFTe5Mn75y2Nx+eWXCQDjPDPnmYB2/vz5GDlypPCps6DKppttKmv+008/wxZbbIHXX3sN3876VgAHgVh/cFEYgLDuKuW+1HNtxeP7vv9++8seywPG73//e1x55VVy0OL7dPRRR8neSCZCHhivvuoaScknMGAK/SabTMczzzwt7zTfTdLuT540WVgSCQCe/ec/UWQF3t988y3ynnPf52GSxHU82PAekhmRTO/uu+/GsKHDhLSI11B/zJ8/T0AAyflIpPTAg38Rxl++80yR3GuvPXHqKafi/Q/fTyji0aNG4y9/eQBr1qyW/ZN75gEHHiAMvmQC5gGQe/71110vpH/cowcOrMXnn30u6fZM53/xpRdl/yNr5KOP/k1A0KpVq+TgyMM9WRrJM7THnnugpKQUDz74AD7//IuEwY+6k7YBAoXL/0izTKIGCoMo6rZbbxUB/+Qnu2LmzC+x/fbbyYZOZkXWVZgyZYoUxiCzIgW22267CRFEeUWFDIAnwE5/pyhAbuQsXkEWwvb2djHpbLnFFrj44kvEDMMTNWkt//fK//Dpx58KgODGq09x6kSqajhQ2ZI+k4QVZE387NPPsPc+ioCJNJo0I7HmAS0VLS3Ncup/9913pU4CCZNIXtTU1CjKkyiQ1oRLL71EUBrH+cTjjwuAoMIkbSZPs5wMAglO1sCBA3HHHXeKaYv9IcETlTeBAbm56RNiwSgyTQ4aOFDqPpAdkm1y0d18083CK06iJ1oqHvjLAzj1tFNx0YUX4c93/1koQSmP/X62n8iDtNck3uBpns8iL4Q+wdYOqsUfb/ojzjjjTHg9HkyeMlnGzVoaw0cMF+YxkjT97W9/E4ROBU6luPU2WwvQIzMmqaWf/eezImuOlcpz0cJFQnl93nnnCR/FlElT8OCDD8p6qCgvx1133SWsm2SsvPueu+VkzuIpRP2kl77i8iuEsOSJvz8hfOkcA6m5ya1x0cUXCfU01xlps0kapSwjBAhdcqIn0GtsbMKwYcPw8MMPCdDgz1T8P/nJbmJSY78IIgnKuPaee+454eb48MOPBGnzQ/ZPAoeGhrXy8h944AGyti656BIZM3kvLr/scqnrsbZhLWihOuGE40H6VG5cHBuLrXD9TJw0CXNmz8bP9vuZgBgSa3E9EwAx1iF9nE5f2qKz64sBCNnJzdzVXQKxAOGIw48USyT1CevTTJo8Sd7NAdUDhOG3oqISvzv7bBxw0AF48fkXccKJJ+Lcc3+Pjz/6WA4w++9/gBw8hg4ZIhZB7idPP/O0WAxvuPFGqZtQXFKEW2++Vd7zxUsWS2e4777wwov4+c+PweWXXy7svjzM6oBC1hJiXB4PjWyXDMO0dBx73HG44orL5d3nKZ6neeokuit5OOVhl5YG7vfcY0ePHiX7BVkc9/rpXrJf7bffz/DAAw/ImLnXnvuHc6U9FoJ65JFHBIz89Kd7C6XzzX+8WcARAcKf//xnoexnFUrWnOD+xYP7gw88KPs9xz558hQcfvhhOOKII50CCKpUMq0A99x9N44/8Xgh96FyIdUxlRoZrThx7OBvfv0b6fB2222PiopyOc1dcsmlOPjgg8RM+9gTj8Hn8YlJmMqUE0VlTLMwERStDDTpXHvNdfjL/feLO4IlOVlRi2yF//3vf+RvpKqcOfMLOVWqWHMVJ8EKWDzhsc2WllYcesghUoOBJz4yOZaWluDVV19Da2uLTO4OO+wkrI3jx48TlHXvfffKApE63izTOX0TARRU6gcccKAoo8uvuAwetxfTpk6YQYH3AAAgAElEQVTFUUcfJc/m4nn9jTfkZP7IXx8Whcr6D7SMsKolC1udfdZZaG5tFlYtFn3ihN90000y6SwWRVk+8cTfBeyQipmnZyrOE391ojqJW6iSipbP4T2k+qQZ/+677xFZzps/N+Lf4sIlEibypumLCpOA7MUXX5TqZQQsRMGnn36aVAyjfMgOyQXY0toildNohZFo30BAQBLncM3aNUKD/e677+Htd97CxA0mytzvu9++OP3U00XeXBvkzGARFAIlgglSULMY1nkXnI+LLrxQTv4k3Xr66Wew0447Ci3qEUceGXnBuNjnzpkrYEzIQwJd8kKQmpsnAoIXAiOSWZGrnGPi34muSZZF0qwbbrgBe+1FKtY1wm6p8o+VF5F9IhAj4CAFOMEsgSetO0TjZEdjLZDLr7xC1ssmG20iIIsbDs2QbJtsmd99NwvL65dj0cLF8vJdcukluOrKq3HttdcIE1p/YcQ0AMGoeickEAsQWCOnuroGf//730X58RDAA8SUKZOx/fY7yHvJQkoHHnSg7A1k3j3zjLPwwQfvy3vNfWHml18KQOD+RRZEFmBinYPnnn9O3NTcn265+RY5kPA9JqEdmW150CWbL/cNAhEe9LivHfvLXwoTMK2tZG3kfkn9QuXPAn7cb7kn87RO8HL2786W/ZPxAVT8PDyRcZgHQOpH7j3HH3+ClC5gWzzE8cDFQxIPGIwvuOLKK8R6T8v40GHDxBLMglV/vPGPeOHFF+TAwgPk6aedjjPOOgMEVrQ00AJCiyuBwrjx46S9adOmSpGoVNliti0IkiEQCqOqqhJ3//luHH/C8WLGvv32O3DffffKqZwnaHJVszQy+avpu9lpx53ER8KJO//8C3DIwQfj+eefF1/Mt7NmiSmoqLhIBMTr6PNldcbSkhJBhqS5pHKg35iLgUqdiow82KzfwCIZ551/ntAac8OmD58b/xZbbIn777tPTOarV6/Bv/71kkwYFfu4cWNkkbD6FxcPFQdZD2ky32T6dDHl0ApCHw196VSONI2zRgQrhdFKQCV0yy23yHdUTiwlSkXOkzB5vnlKZS0H0mNWV1VhQM0AbDVjKxnnXXf9WdgiiR6pYC+48ELx19OUz6AYAgQixX/+8znh5Caq/MMfzpXCVFz8BDI8efMl4UIlAGJ8BV0V995zr/SLfiua+BnzQP8VT7jTp28iz6EiZdWxJ598SmI1/v3v/+CWm2/GpZddhpEjR4j1YautZuDLL2eKvFh8iwiXiptWo8mTJ8nz6RY55dRTxJUyYuQIsZzcd9/94jfjC3X//ffh088+FQsC3VIsvEVESyROylJex8JUROk0133zzbeYO2eOgD0i26uvuUpcIwQvpMXmyYF+uC4LIPBZs+d8j8svvRzfff+9ADtW9eTa2mvPvfD5F5+jvn6FuHduvPEGMRHSokCAQtcGXQL8kMud5kgqcfrr6Ask2ONLtdHGGwldKt0SdJHQZ8c1MnbsGHGB0HRHQMYxffbZ52hva5M1w3VLUMHNhnzx4guMJflyYgfto20YgNBHJ2Zd65YVaMz9gIX/qDRJY8zKuTx80rV91hlnSa0DumWPO/447LzzznLY4l7P+j3vvf+eHBIIEEjsx0MjD5BkBObeyfeUh6+GNQ0CEGhBJAhhAOPJJ52C2bO/lxo51117nShrHhS5f1RWVomFmdYDuhvZNuv+kKaf9X4Y03TZZZcKqSDbZYwUdSIDK+l2qKyqFHclXaDUV6NHjRGAcOyxvxTXK8dEYEKXPIMrqZvYLt2fPHzzWlrBqfAJEFilmHqVlmVSNvNgw0OyKoz4KA477FC88PwL+NX//QoPPfSQWMpJ8UxAoYMvEy2PDACCirpncBd9GC+//G8hkhg9Zgx+suuusvHyJDlp0kTxwZCHmgqGfn6eYH/zm5OEv5o+ISoadpA+cwqISlbnmnLA77/3vlAR01qwePEiGQTPehQSn7PJRhvLxk03BE3WpCxm/YLrrr0Wa5vWysmZQIYmFpq7CULEvfDmG2LOp+/f43Vj+Y/LxW9OHzJdCgz44yn5y5lfScAK/V1UepoBi1GmVK4r6uvx5ttviYJhMOCoUaMl0JCBm1Q09NVvseUWAmYYh6EYs1zynLLyMnG5EGQQtTKGgyWkqfwoDyJMWkZoefnoow8xY8bWYgrnc3niJ+Ci4iN1NN0VLCJSUlyKjTfeSMqJMo6CY2GgICtmcuGrYBmPlJym0qMipNWBgI51IVgjg64eVkMjIGFhELoZaGYnMGLfWIXyNYltUMtoxlYzRPF+9MnH4n9jv+i+4QvIeBPO88cff2JlA3iw88474d133pWXiYt+6JCh0ndSUJP+mm3xxaXvnvEgNKu9//4H2GGH7QWVMyaBQGnN6jXSr1123kXuI5ijW4FgkdUvaYEg+ueC4XfNLc0CcrjmJkyYKHNKKxFfaL6sXHt0m7HPBKj04xHs0nrFk8Kee+6FmupqqRhKefFlpsWruqZaED5BCeeN0c/cVBjAROC3wQYT8OGHH0gZWFp6CB65IXTLtFjXNmzb/U2XEmZSRW2Lsj9faGV0Ue/wPWOcwcwvZ8qBg65j7lfcb7gXkZaf8Ukv//vf2HXnXWSv2nzzzaQAE2PIeADk+05ae25iPPDwkEhdw6BHBsnT/cpDBKnyeRhesGC+WBpa21oxYYMJsrfqQxmV/h677yF7BpU5rQA777yLtMv9n8CEAIYxDjxosurvvLlzMfOrmTKjEWZdix2RgGPXXXeRPZ592XLzLVBSWiKHEBYDZPo1qwOz5AD3J+oOggyWKqA+YN+oV6hjuLfRxcp9i+4FWuPpGvn6q68xZuwYqT3E2CrKjpbdVAWfbAMEboykuozkW0r0tvIJa1YonX6meaZ1LjyVNU3XND9zsjRLlFa8miOJypaBZIwmZxtUllQGfLbwVVt0zJo5i//S5EzFsuGGyjfFjVhHx3NDFsasMMQszf54PConoKamSjb6trZ2iTlgVLqK3le5ttrsQhAkm7oLEQpoTa+p0z65gGmSprshNtdUm7GlPYvaWT1DpcxIFoVFlcnFTVIO3bbOVND01NE0TZWhEJs3K5H71rLj2Gi1YGQ+fW+6TbqHhEPcStXRzJQEU4pBTH0k69RK8VNj0mlAivUrmpYqV8v8SCCOcINDXA+M+dBBkppnXDjRJa3HLf9J2qCV4aGZ0diG5DfHkJNoGW+wwQaisHXKpo7i1bzlOkea60sTn2gSFM2xweeo9FzFmqbJRdhvylAyFNi3mGwOzfPOuOFYtRbLgKbTdCVLx1ovfAbbE9eXhao0p0J/CFTsz3rNjN1ZCUTeKe5dVmq7uBulNoN6j2OJgkQBR2iJXSoDgBTL3H9IzW/VO4j2kgRM3OdUzQSVdcd/Vfq63hPVjsf3usjKZOpUGQAxNnruCzotMkKdD7XnqIwBplxGeWNijYoRHaFT+y3eFT6C+zSzpIRpUWiXrfIEFvcL93c9Zn7JjLJYzhGtPwUMWP3V2RQ5EyWVlZSJLEVh61xQ61TKTVOnL+qNOJKeYhWd4MZMPzRN4ZoYiJ2PAARL8PK7lYeuNnOl+PQGKyQ8MRtwRKlR+Wh6SosHW6eQaOIJHUVeXOxDbW2NlAOlsvjhh2URIgxOnIAXF8toclKjylLzcUuKnsWLzeWilYJSOkpB6E/sPbrvUqjDSvMTcBWzGERuVuol+6JZw7RS1LKITQ+ManYVIK+5D6K85FG1JvdBvQSxPAvRv8XSe3Ihq4UoFp4YNB8BCuqNsRZ9lAY1lnREvYxWZTSLOlTSGq32NOjT861eSoWwhYOi2z1cawpUxdez0OOJB1QRXglLropHPYYZLYY7PVY2sfJRwEnzdag9IWL1shjdFF8GwXK0dgevUeBNgVKZU4ukxdkt1LRmJLA+S0C9r2rfUPUHtDLV72b0e3WtvL/Wu61BheaA0Yc4Rb2siiqJUuW7GrZqIISirIPcUyMK2NJP1iZlHTaiezoPrFFeIAUGaJnQBzJ1CovOlXY76r5F7rXoYPRY9XgiNC9W5WQZo+yRGquofUgfGmPvi+65ll6L1JjIkSippKgkSgUsSsNSazEFLESJxQrPgfWqhRdVoukajUFmCS6lqZngoKjIJ+4JgoOOji6p8sVPFCBYKFM4stWCVCd9pTS1Uos95afrmfk+dwlET+C5txUBl9aL5VyLqVpKXRilMH0wTzESWB8k0J3oLNcRpWJkzLXtjO8vMGFrzhYEAgRtStGR3xpBdSO7cRggxAo2UsMhqbT1yV0tHG02J1qky4KxBqwpTvhG3zED8ehW0JHl0ToIYtuImHA0QNCP1S4PMZVbvODaIhArm/gTaMaLxNywHkrAAIT1cFLNkHpFAusWQFBWfWU66Fu6wYFqjgyCo5FU+y/iB6gLDeVzncSa2RM/R5mOlV1JXcF+VtdUobZ2gPAYFPmKJaKVloPOrgCKfDQJK+sBYw+06SfqM46xBVnWA15D8iCxOoQhsQdS0dLywYsR37I2GF9zPleEadtIwEig/0rAeYCQT1nSdRB1IUfrGOXzmU60bStIsbS4tFtJzd5AQKoQU9S/33PwVObW9y6gqMgrGQsMkKTPnDq7sbEZPy5fjoA/Wjdcm1cEIOhPjF/aghryD31VDBKhf0e7VCT4jm4XyywUtSKYSG0nFmi3SenRoJGxszI2rRkJrCsSWDcBgiZ76w0dms3M2gIIzKmPDazojcGlBwhEaAwQA8rKS4SsgulrjCLnaZ/pbUuX/Bit2iVhoFQwWsmof61SPZGgFaYSsh0SIDE6v6W5Be3k046AFVekmJO6P1oAKV2yVzYT1l/vic+tV2vQAIT+uh7MuNc9CaTix+jt0eRWKj5977UFYf0ECL7ibhLoewBBWQ8IEGpqKjBk6GArBYYVB71CbLFy5Sr4/SoqXwUdqsp/sTUWYyNjaSkgHwArZDEjgBS75A8Qy4FVjzzVskiVW5p+OZkr4iVgAIJZE0YC67YEDEDQWWrrmYuhuJcAgk6Hk5M5U1ys90OdG/X/ExgwR9+DwUNIglQpAZWhYBiBYAhr1zaJciefgctKoWO2Ag0AKsBSpXiEoNL0SJBEYECOBMYVkGmRTIxEgMy7VXEY6V9UG5ekb8RcEZGAAQhmMRgJrNsSUO7XvrkzFsKCoGevN62fmR7u7bkYegkgSMZATD5q9PVQAYVeUfghsEje8OFDUVpWxGxWwOVBwB/Cjz+ukDRGggWxGLjIBklGO5XloHkXCBzIcEhmqtLSMvk7XRKs6ij0u1bOvkqFMWbt3tmmEm0sZi56Zy7MU40E8icBu5aGfCt1J0dod0xOPjNRW5nKzBZAIHNU7EcR7nT/ZIpMUglCI01NVBRRDTGpInQTkOiipKQIQ4cNRElxkSKocIXR2tKO5ctXIRCgpUD4oiTewOUieAjBotmAz+dBRUUZyhljUF4lKY+kdyZFL4EBWRm7kzUJLVS+59C0byRgJGAk0G8lYFeZZqrselOgdseU7z5mKrM8AoToiS/qGtCwItZZEP83YSyK8kPH0FgqJ4O6l8aD6uoKDB5cB5db+XaCwQBaW9uwYkUD/H5SZXoVq5RFr+tyheH2QIBBZWUZamoqpXaCy+WFPxBGe7tf6oBrUMDnxOavqt8NQMj3IjbtGwkYCfRfCdhVppkqu96UqN0x5buPmcoszwBB8deHBAO44IqY55lHyNRABgoqvutuvimLrVBVBlKpi8qqoH4m8RFP/nV1A7vVg2BNheX1a+SZLHhEqwFjBkIh1pBgjQIfaqorUTtoAHxe0l8GpRqXr6gYPy5fiTVrGiUmIZaxL0LbGalT0I16O9/zado3EjASMBLoVxKwq0wzVXa9KUS7Y8p3HzOVmWMAITIwxUgspn512A8jKIV6eJp3wRP2w+0KIihc2cyO4NlfAQQdlKghQ4TXIBLYEpLYgREjhqGsrAQeryIlCgZYNrMFK1euRiBAEKGsEpGCPJ4wBgwYgIG1AyW+QFkIeC+kEmRDQyO6pM6E1YeQIoXSvP8RtsgQx2H83vlexKZ9IwEjgf4rAbvKNFNl15sStTumfPcxU5nZAwgeX7d+R5kCY/8cU5+B6t5lZR2EQwgFCRHc8h/rYrjdVNA8qTOokAWLmDpoXSdFbxS3AP+mrQvKAuAWl0JlZSXoLmCFRloKGJD4ww/L0d7eKYqfIEH4EMqKUFVVLsGHPiFLUkGGTHdsbW1HU2MzOjo6lZXBAig0H0jPLeIjXa1SjZQFPfI9haZ9IwEjASOB/isBu8o0U2XX1yRqd5xO9jtTmdkCCEzv6wYFEpDURAIXxYLgErcCdWnQ5UeFy4OpYwdjwZJlWNMGhLxF8FgMBAogKEtDKBhAMBxUZZCFKlnFGoRDQRQV+zCorhYV5WVSOIrfSdnMMLB6TaO4B1QZTaCk2IfqmgpUVpbD61Olm1VFQqClpUMsBm1tnRa9Mt0QAYUH3FErhnYzaICgKgga94KTi9W0ZSRgJGAkEC8Bu4ozU2XX1yRtd5xO9jtTmTkGEDxy4rdKDjNg0OVGgBwD7lZU+L0475ht4e9cg+de+xbz1rjQEfYiAIIBDzwuVdeb5ASseS0kBbQ3ECCw7rfPI24Fxh0oV4RyI9BSQAKkhsYm0GvAwQ8cyIqNVSguYQwC22McBJkUCQwa0NJCsiNaKLzKsSHVKZUFQSCNZTnQtbRjS2SqiTJBik4uWNOWkYCRgJFArATsKs5MlV1fk7LdcTrZ70xl5jxAsEBCEF4EyT3gaUZRhxu/33cMDtlmEJataMQD//sBb8xtw5qgsh143QQJPglipKJ2hbvkVE/MUFleisF1A1FZXYmA329lFUAyE5YvX4GGhhb4it3iRqiurkZZabFYAhiYSGEE/EB9/Ro0N7VFamTrxAimSfLDgktiMbAsE3RvKJtGPN+3SXN0crGatowEjASMBIwFoXBroNcAgjgKwkDIHZL4A2YouMJehNxtKA5V4pgtinD23oNREV6J+lAlnvqoEX99uwWru0IICa+C+Awku6G6qhjDhtdhCFMYwfTDVgQDjFtg4CCtDR4sWLAEq1c3S1GmIcPqhOhIGSGi6ZUtLe34cfkqdJFimcGFcoGyQFBQtFoohkaVJimfyD+KLaHnJ32QosIXqa/rVja7cOvDPClDCaipTD/nGTab8+Vm/eQsQtNAJDusb7IbFnKCMlWczvRNucgT6xlnnpBNK7FMj45ZENwWP0DAFUJIrPAMHqApvwPuYDF2GhXCjcdMxBjfYrT7ivFjaAg+WFiOm5/9FstaQgj421Fa6sa0aaMweswQSUlsa21HW4s6+TPQkRs1AxSrq2vR1NiOhQuWwh8Iwetj8CEDEwkeSOrkRUtzK35Y9iMCQS3+VJt87AuSuzJQ1Z5Tt2NqNWSzdAt/j4qFyX1NON1zs36clmj/bK8v0x8XckZ6ByCo3Pn1HiBwkXmFrTAAuIKKrcDjQgBF8AX96Aq7MaEygDt/vTEmV9Zjub8M39R78f53rXj5iyasaO1CzQA3Ntt8LIYNr5SyzowZaF7bBn8XEAqG4Pa4UFVVIW4ExhC0tnSiubkLa9c2IxgmhXIIHncxwmEPWprbFc1yVyfclhuhsIvNAIRCyjufzzIAIZ/SNW33tgQMQLAMx1ZNnoLPR38ACDSTMOhveG0FpowqR9PyhVi9BmgLAx2dQIsLKA8DN522NSpc9bjvxUX4ZFEYrSEgADeGjxyIzTYfh/KKLsDVKkp+bUMHmhr9KPKUC3theUUxBg2qQVdXF9asbkBnlx8ukBo5iMbmTvi8pWhubpf/Vq9pkNRFr8uD3iA+NBaEgr9meXugAQh5E61puA9IwAAEAxDil6HjLgamFzLIsMztxy/2mIT9ZwyDp3Ml2v0uNDa6Mbc1gEX1HSgv9eGN97/DnDVhdKIIJT4XNpgwCFM3HoOiohBCoVbAFUB7exCrV7aivc2DkN+LZT8uRzjsx6hRQ1Fc7IPbw4gH0iaTXhlY2xDEsh9XobWVqYt0NzBlMqgCGhkPwXSIAn4MQCigsPP8KAMQ8ixg03yvSsAABAMQ8g4QqImZgeAOhzG8IoQzDx6JfaeGUdyyHPCUIeCuxds/VOGqx77GDx1B+AMueIuBjTcegYlTBiCETng95QgGvFhR34jGxlZ0dobR3hrGj0tXSpbBuHHD4fEySNGNiopyFBd7UVRM4qUwPvxwEdY2tsHNQgsxJgPGJUjAZIF9yKkAgqRWxtSX6NXdwTw8rQQMQEgrInPBOiwBAxAMQEi1fOfOm4uxY8dGLnGFE2iv9ERJIbjDQQTDFfCG/dhwkB9nHjAWO49qRll4Fb7u3AA3Pr4IHy4KoM3lQlGxCxtPH42JkwbC7e0EExQa1nRhzuzlaGzsQN2gIWhvC6C+fhU6O/0YPHggBtRWAiRRYuxjOCTuhrq6MgQCAbz631no6CRboyYyihaAChEgFPiTDCAYcFDgiXDgcQYgOCBE00SflYABCAYgFAQgyEPCJQiHPHCjDZuNcOHiw6dhSu0K3PsZcO/zy+APFSHsCWPKlGGYuvEweL0dCIdLsGjhSnz9zSI0NgYxfNggeL0+1Et6YgB1dYMEIISE4ziEtrZWiTEYWFuObbfbEI1r1+LV/36HLn8YYStdMhqRGkZfAQgGHPTZPTJlx2xkrPbKwIwRqlfEvt491AAEAxDyDhCEg9AFeEOkWHYj6ArDg07sOr4aJ+27Aa5+5it8vTQoKYcTxg3G5luMR0kpYwTCmDenCV99NR+dnQG4PV6JL6BVgOWay8vLMHbMGCma1N7ejsbGtWhoWItgMIy6QRXYc6/NsGDBfHz0wTIBJorqgDmWfcuCYFLS1rt91QzISGC9kIABCAYg5B0gUB8HSGgsjIQkIQLKfMDGw0uxxeTh+PsbC7DaH0JxsQu77bop6gaXo6vLj1Ur2/HmG18jEPQJCCBJEu8lY6LX58OY0aNRWlKC+vp6tHe0SwZD0B9AIBTCkLoK7Ljzpvjiiy8xf26TcB+wH/EAQWIQHPw425qDHTNNGQkYCRgJZCgBAxAMQMg/QJByziH4XCFMHOTFzlOHYucNqzG+Dnj6s2bc8dJitMONCRMHYsvNx0olxs5OH956eyZWr25TlR2F1VCf/cNSpbG4qAh+0iuHQiguKkZbG+soSN1FjBxZiylTpuDddz9Be5sq38wAxnQMhhm+P90ul4oNeU2I0CWyYx7bV23cuQjS3GskYCTQJyRgAIIBCHkHCD74sfeWA/CTSeXYYaQPI8r8cAcb0ewqwvXv+HHvK60IesPYbdcpGF5XCre7CAvmNeD9D74TfR4i62KM4g0Hw/B6PQIGvB4PxowZi0ULFwhhkmJkDqG2thr+rgCamjutyo+s8JjfQkr5BgiJXtbYnNQ+saOYThgJGAmsNxIwAMEAhIIAhKN3H4O9p1ZhWnkzat3N8Lna0eotwQ3vu3DXy2tQXFOKvXabioriLiBcig/en41FixqU5UBYDfREuVSFRdoV3G5MmDABS5cuRXtbu9AX83+0IBA4dPi7pBqklIUWcLBuAoRUL6kBCOvNXmwGYiTQ5yRgAIIBCHkHCC4E4QuHMKzChS3HlGD3TUdg83HlqCz149HPOnH90/NQNWgQdt99Coq9rejs8OC1V2di9Rq/VFAkQIj9EBjwvw2nbCixBwsWLBTrQWx9A+E4IAeSynu0XAvrHkBI94IagNDn9lTTISOB9UYC6faf9WagaQaSb+tz0sf3Qarl2L46wIOgik2oioxAcTCAuhJgwkAPtt+4DkUDh+H2f3wFd3Utdt19I/jca9HZAbz5xldYudIPt6tYajfQfC/Ey24XBtYyvmBDNDU1Yda3s1TFRQsE6Op6dDOIPcHlVsUu5PvcAUL0hekZbMCARzuFNexUc1STEF9OuucyMgChv2xRZpxGAoWXgAEIxoKQZwsCA/eUig/DDVZ1dIU98IUDGFERxqmHTcXjry7BzPoO/PRn26GmoksyHch98MXni9DZ4VX3eUKoqi7BsKGDMWrEeCxcuATz5s5DgFzKiT7ikyAgoJLtfoEoaIs9kZYHPo+/u/XfpCR0WKr0iQVCMy2SoplBkGSGFLYjujtU5CSbFHhgIyvCrlKXfqVFtjKYdJeZ740EjASMBDKWgAEIBiDkHSAAKosgwFLLYa/8XOVtw//9dChO2qYCT33swrX//B6jN9wA0zcZAY+3A6FQEG2tYbS2diEQCKO4pBglpUXo7OzCt1/+iIY1LaKsmdrIioxU7gQLsUSPbpcKZOwBENy0LLhQUlKCrs5O9W+XXyiblap1STlp8i3EAxC2x2eVl5POuRgtLaR9JqGTBQ6sUs4CFqwH81kRUEE8IbUf0it1AxAy3s/MDUYCRgIOSsAABAMQ8gwQVIihJxxGp6sU4aAf5e4u7LdZDc7eZwAmeJdicfsknPnoHHy4vAsTJo/GxMmDUVLiQpGvXEiPWtva0dTYiiVLfsSyZWvg73Rji81ngEWgPv3sMwyuqxOFPX/+fGFZ5Km/y+9XqY0uFzxerwAFsQi43PAH6LpwYfLkyfj++++x2WabY/HiRWhqakZHZ4dcN2rkSKxpaEBbayuKiorlHgZH8oUZO3YcRo4cIaCCyv6jDz9EIBREaWkpgsEA/IEAPFJGmumYKhXT5/Oiq7MLQemHAiHpPgYgpJOQ+d5IwEggnxIwAMEAhDwDBNW8O+xC0OVBCdqx3ZgSXPXzjTE+9B3Cbj9K3dV4bXU1znloLua1hFBaAlRWeiXdsaszgKaWLoQCtOh74fMVi3Vh0+nTMXTYMHz55ZeigMvLK7B40SJMnz4ddYPrsGTxEsyaNQubbbYZBg8ZIjEItDaUlZXjo48+woqV9dhh+x3k5y222FIARlFREebOnYPZs2dj4sSJWLmKtR46sc0226DI55NnrV27Vtr8+OOP0dHRiZAkYUklNZoAACAASURBVLowbtx4TJ4yCZ3+LgEMZeXl2GabrQVsEBj4inxYtWo1Pv7oI7FM2CkQZQBCPrc+07aRgJFAOgkYgGAAQkEAAuCBJ9yFDYd5ccYhG2ObES5U+FvQ5A8BYQ9WoQbPzwrjnhe/gN/fIX0Kh7Vp3i1lm4t8JQiGgnL2nj59U6xcuQIbb7wJGElJ0qS5c+di0qTJGDyYFoUKvPLK/7DRRhvh229nYdq0aahfUQ9/lx8DB9biq2+/xi477oy33npLAMD8+QuwavUq+fmTTz7B+HHj8OPyH9HZ0YnNN98CZWVlWLu2QUDHtGkb4YMPP1B9DIXEKjB82DBMmjIJA2pr8cXnn0s/6+rqMHv2HMyYMQOvv/4adt1lV3z44YdoaW1VMQxpPnYAgh1LRLrn6O/tWjbstmeuMxIwEljXJZCaG7YvVZ61s6dGZkM45zLhvU2/X+dvpjPpZ/56kahlB7IYVLMcIis57rj5WGw8ugTtq5aipakL9WsDaGXp5i5gRacLK9vdCIeCUnMhKAGEykxP1wBrFvB3ugtmbDVDgAGDBPfZZx989tnnaFjbICd/KvFtt9kWr73+ulgavpg5U1gVV65YIaf+ESOGY+bXM7H7rnvg9ddfx7bbbotly5YJgKAF4tNPPsXUqVOxaNFCjN9gAzQ3NUmp6Oqaarz7zjvYZZdd8P3s2WhtaUFVVRWWL1+OffbdF599/inGjR+HJUuWiLViYO1ALFpMq8amePPNN7HXnnvivfffQ0tLiy3SJnsAwbkFYTd40rknmpaMBIwE1mUJFHqPSi4rFVdm/5M+Q8x+W/33SgcAgsoIYHS/KxSCR+iOw1KYCW4vguQmtoiPKGafR53K+SEg8Hm8qKqukZoLjY2N6OjsFBfD6NGj0bCmAS2tLRg7ZqxVrKkREyZOFNDAwMNvvpmFYcOGYvHixRg2fDjWNjQIwKgZMABLly7B1A2nijth9OgxqK0dAK/Xi/kLFmDFinqMGjkKa9asQXlFBUaPGiWghIWg5s6fg5qaAZg0cZLQO69YuQJz5szGxAmTUFZRBq/Pg/nz5stiZWAl2xg5ciTmzZsnMQ+Mk5DYBRuLudAvnwEI/fdFNyM3EshGAoXeo5L1MXOeAgMQspnv+HscAghK4Us1RRQjFPYp+uRQAB6vC24EEQ50wetxobSsFMXFRcKM2NHRgbrBQxAMBAUADBo0CCtXrkRzazM8bi98Xq8EBEqGgNVzmo1cJFJyeQQo2DeBqVxFKSZlJ4BQshx5A1kaXRIwyXRObbaKZC1IRmUU2Ub/nh7tFvrlMwDBiVfGtGEk0H8kUOg9KpFkZb+2ceDqfm8muqH/zGemI3UUIPDhnrAXLnjRFQrD7fOirKwIxS4/SnxeFBWXoKPLj66AygigJaGpuQWtra1i4q+oqMCAmhqJFWjv6BAAwCJQQqMsjFNqnTCLQSiXxR1hx38jVRSkDa/HJwo9UXpkrL9f0hqZnWEVgFJpjlGAkErQdhVxoV8+u/3KdBGZ640EjATWTwkUeo9KCBCyqrFjAIITK9IhgKCUtGT/hxVNstdXhAEDBsAf6IKHPImhoLgAGPBHYiRG/VNJM0PB4/GK8vaHAigrKRMmRVZzpJ+fVobGpkbx6bN9ts02mG5I4KCVfTAcFADhc3vFwsC2Q2FFsuRSpo1o6mGE3lIxMbIN2jm6B/EpAiZFmKSCLAhW+BwhWeIdHrfFwaDGrywdluXARqpjoV8+AxCceGVMG0YC/UcChd6j4iWb/Z5lAIITq9QBgCCqUbgQlHIkv4FPYgToHqDrgFqU8QaqJJMLXp8PoWAQ/mAAPq8PnQIiFADgFTy1M16AVgb+JwqcfAcej6QlEiCwWJN6MqQtphaKgqZ1gdfSDeHxKCtDMGBdqaiYhS/BwyJPikdBAEUwyqKYTLBMeQwGgwIUlEEiLNkM/Bt/1n2IJ25K1l6hX77sXzYnlpppw0jASGBdk0Ch96hY+eS2XxmA4MRacwwgsCKCZUNQdREspa5rJ1B5KtdA9BM5/TO10eWOKv0YhkKCAaY4UomzXXIZkLyIrgWCAP5dpyJGazZYz7CqPAqbsrgk1N8FNPAXq5/8GwmbCDRSxTRILQZtfRCLggrQ1B9pzmrfluPDBtWyE5Os28jthXOyJ6YtIwEjgXVBAr0FEDIPSoyXpgEITqwvhwBC5mWSdGAfgYPYHayTvx4UT/ZKGVsfu8fyOKkoa4GCJUyeIJiQvxFYyN+UNSACblJIVSIZrFoMdG+wDVoTpA26Pyx3hQYR6bpc6JfPAAQnXhnThpFA/5FAofcotRNnE5RoAEI+VqVjAMFe9QF1epdFYAGAWGtDzwHyVM9CS9aiyUYCAgbUjaLHLauBABD5lQDBXu9jizVJDIIFECJj4tK2LB3GgpDNZJl7jASMBPqSBAoNEJwBB5SgsSA4sY6yAgiJHmz/dBqvOlOlA0Z8AjmMVQcoWi4Qq2y0ikgUuq2MPtqmER1vJuPp/qiCv3yqzGVG4zUXGwkYCfRfCRRyj3IOHBiA4NSK7QWA4FTX7baTvQK3+4RsryvkyydWG123OtsO97jPgA3HRGkaMhLogxIo1B5l/4BpV0jGgmBXUqmu6wcAwQkx5aeNQr18+ek93USW7yZfDzDtppSASs9dvz/d4pDW76H2ydHlf4/KlELZrpgMQLArKQMQnJBUHtrI/8uXh07HNGkAQn7lm651AxDSSch8n6sE8rtH5QsccNQGIOQ697zfWBCckGKWbeT35cuyUxncZgBCBsLKw6UGIORBqKbJbhLI1x7lvEshfuIMQHBiKRuA4IQUs2wjXy9flt3J+DYDEDIWmaM3GIDgqDhNYwkk4OQelWsQYnw5htRp5AYgOLGgDUBwQopZtuHky5dlF3K6zQCEnMSX880GIOQsQtNAGgk4uUflChCYmq4/knKeMgPNAAQnFrcBCE5IMcs2nHz5suxCTrcZgJCT+HK+2QCEnEVoGjAAwayBFBIwAKEXl0c2ACFCMNWL/daPNgChdyfBAITelX9/eHo2e1QyuRgLwrq3YgxA6LU5y84EJsE9Ec4nXf9CFcqKIaYuyKgMQCiImJM+xACE3pV/f3i64wAhkdDigwuSCDY+pTc1x112+2t/mNNMxpgTQDAKIhNRx10bKTnd/e92ZKrfJ1WcStFFsw6EVa/aajD/L4idvtqVkM09wm5zjlyXrpaGIw/JoREnAYKujZJDdyK3pip45kT7ydpI75fO59NN2+kkkAhs5GpVSP5MZ/c/J/c63WcnwVc62Wf7vQEI2Uou1/tyAAhuqWapCkQptuhwAtIiZ1+QxMDfOaKk2ACkXEXr1P2qWmff/RiA0H1uDEDou2tVtqoE1WvtAASLFD/DwTm7/xmAoMTvCieA/x63R4orxX/yIbQMV8G6e3kOAKGkpBiDBw9G49pGNDY1KgrlboWn1W/5Psk5Of8GIGS+lA1AMAAh81XTe3cYgBC3XhMApt6bncRPtmVBEICQgMffSQXR1wST9/5kCxDCYfiKfBhcNxgtrS1obm6OWhO6Ee8agJDrHBoLQnYSzDcwTdYrY0HIbr4KdZdtgGBV3FX90vFVmfbS2f0vH7puvXExECCIeSHOipB/NqxMF8U6dH0SgNDTShNXgdG6T8teYhYlFqHw5nAnXxpjQch87RoLgrEgZL5qevOOZHtUd+s01/UG48ejfkW9HIDcbjdCoUz3N2f3xFz3unUBDCRaGbYtCAYgOPxiZQsQetSnVh46AxAcnh8AxoKQnUx7Yy2qs2Y68pzsxmPuKqwEeFgoryhHR0cH/H6/WEjd1iHVfk+c3RMNQFCSTxqDIF/GuRmiv6/vNeXsL0vbV2YNEBI9wdmXwe4Ycn1pYp9jLAh2pR69zlgQjAUh81XTt++gRZR6xR/wi8Wa1gPF/ZJpv53dE3Pd6/qFBSGhFUFAgwEImS5frng7vAX23DjOvgx2x5LrS2MAgl1JJ77OAAQDEHJbQX3vbqoSpmwHAgEEw0H4PD7LMpQoUytV/53dE3Pd6/oNQBB8F4cHegpPm/oyhn0ZrdhcJy2jhzl9sQEI3SRqLAiZLzADEAxAyHzV9PU7NLcLAQHg8aj4N5XWnclB1AAEJ2Y6oxgE/cCeKY8aNBTWH95XAYKTaDGRBcHJ9nNZRE7K3wCEzGfCAAQDEDJfNfm4w54yTsR5kHgvU/pEs8by38zjgez1ya40ct3r+sqebXe8+jqHAIJqrtB1AqJAJRNkmamIMr/eycVgAELm8nfqjsw3JaeebK8dAxAMQLC3UvJ9lT1lnBlAyHVPt9cnu5IxAMHS8cmIkmIF6SQtq90JSnadHSauXJ+R6f0GIGQqMfodc90QMn9mujv6IkDQQVx99X1MJ9NMv5c4HZueSpPFkKl0nbrenjI2AMEpeReunawsCNpaULhuJn+SAQi9Nwu5ourYnhuAYG8eDUBILicDEOytIeevMgAhnUydPDSme5aT36/zACGzwBUnRZeqLZtHHhvdMS4GG0LK0yXGgpAnwWbQrLEgZCCsXrvUAIR0ojcAIZ2EzPfrnQSMBaHwU2osCMaCUPhVl+6J9gBCulZSfZ/5XuNsnzJ/fvfRFBogJCMryzQ8YD2wIOSy7My9uUgg15fGuBgyl74BCAYgZL5q8n2Hs8o4UW8z32uc7VPmzzcAId+rzrTfxyWQ60tjAELmE2wAggEIma+afN/hrDI2ACH3+ep1CwKHkKm5Ivdhmxb6kgQMQCj8bBiAYABC4VdduicagJBWQgUu7dwnAEK+AwT7YOZbunXQr76XDJJ0H7kk/XUmiyGdINX3seKMyD+9eNM2bmsu07aiLrBDIW6zqcyKkNnPiLT7eHOdLQkUACDY2ENiu6rCxB0MFs/w+fFic/KdsDMlyQumZbZZzJs/F2PHjo08MmWxJjsdc/IaY6FwUpoJ2tLvT2ZrJqNO2U1DdQoMOqno+mIWQ6zw+wNRkpQyz2jFmYsLL4H8A4TCj2n9e2I2VVbnzZ9nAML6txRsjigGIFCx5mMrtgsQbPY47WVOWiIMQEgr7oQXZLMRJXuSAQjZzUFh7zIAobDyzu5p2byXBiBkJ+v14y4LIOiyqlxAIYd9ZQYg5G+pGAtC/mRrWs5EAgYgZCKt3rrWAITekvw6+FxVXz0stdd1zXX+hVXTnLQkGICQv8VhAEL+ZGtazkQCBiBkIq3eutYAhN6SfG8/N0lwVjq/PhcMMxE8HrfUYOfvwWDQAARrPvuTi6G3l7BxMfTRGVAnibQfJw8VaR9mLshKAgYgZCW2desmnshdbvn/bskBPd9jhRqSvbji2w0DbreyIPC/cMgAhNjVYABC778bJgahd+eg0AyAvTva9fvpBiCs3/Mro+OJn0pd/o03EcRkI8hiiAMIChQoYCAvfhgCNjwej3Ba0L0QDASVFB3KbDAuhvwtSiddDPnrZW4tG4CQm/xyvdsAhFwl2HfuNwCh78xFXnsSTf+0kvpcBAzU6XFaPV7JW9ZCcSWEQioGwXIxsE26F0JB/t0ABIrAWBDyuoxtNW4Agi0x5e0iAxDyJtqCN2wAQsFF3jsP1JYA/XRtVYg/9sfjg1heCe16YOwB/87fCQ5oRTAAQYnAAITs1ndfl1t2o8rnXSbIL5/SNW0rCRiA0O9XgrIkJF4M0e8IJGJjD0IhgoOgKMSwwwDB7pQ4Sdts95nr+nV91cXQZwGCkC7ZC7qzszbsrFlzArcjSXON0xLIBgwk6oPhQXB6ZtaB9hTvgQc+nzcSe+D3+6OxCb0wBjubbS90q08/0kmA4KTitBn4XnjZGoBQeJmbJ/aKBAxA6BWxr+MPtYIWtUvC5/NJgCIXEwFCMBhSwYu98DEAoReEvk480rkTf6qsnmxEYWfN9tb7lM14+vM9TilUyrAvlAhwajzGgtCf3ooItTLdDS543G4QJDDF0R/wI+APOM6kaFe8djZbu22Z69YjCTh86ndSMnbWrAEITko8f205pVANQMjfHPVo2Q4Sc8qcmY5UqIDDzt+jCBAk48ElsQZMcSwqKoLX65UMhq6urmiQYv56kbBlO5ttgbtkHtcXJGAAQl+YhfW+D/kECNRREf0ie7AlztifHZawU+NZ5y0ITgnCDhixO4eJ+tSj/RQkRrHPiSdEstuHZNdpoiUCAvaJFoQiX5EEbxEgBMiDICs61ydldr8BCJnJq99cXWCAwHdXSMPCkHejs7NDfjefqARs7W9ZRs0n3bfyfIJzSo+k6r9KJQ8Jc20gGIiS3cl2qwjw8t2PTNexAQiWxPoLQIgsEMvdwBiEouIiiUXwd/mVFSEcKrgfzQCETF/dfnJ9AQCCWnsKGDAWh3vBgJoB8BX5sLx+OXzeIoRCFoFYPxF7qmEagJD5ItC09kSeHstiyzOYFMfjD9aBkWnnfeljAEJ/BQgct+VyKC4uktMSrQodHR1g2mOeAXuPd8AAhL60LfShvhQAIDCjhxs4Y3K6/F2oHVCLwUMGY+mSpWhta5O/O13ltA9JOOOuGICQscgiB65gKCh1b8pKy9DR2SGWKq/Hg05/V09m3Mwf4/gdBiD0c4BA1wLjEEpKSqQWQ1tbm7AsGoDg+LtmGsxKAj2zGJw0w6q2FEcI+RsIBqZN2whrGxqw9Iel4IbucXkEIBhXg5pAAxAyW8iKDTQswEDLr7KiUtwM7R0dqlAeQrL/OmnJzqyXia/u2wDBhiPcqfxtJyfG1gvUSzEIehnIeMOqvLPX50VZWZn83trWKn4yAxCceL3WnTb0fPeg644ZQt+hPXaQeTAMBMMKBPDfyooqTJ40CbO+myVgma63AON1wMJmfcv821ury9b+ZmIQItOjyuKEJM5A66vamlqxVrW0tkQq6XKtRZhse2ty457bpwFCIWXkJEBISNaWIOhPZWCkzvN2tF8xAk0IEOBCW1urBCoagFDI1df7z7JDutR3AEL690ZL1I61QfuHuXlPnbIhGhsbsby+XoJ1hYLcYhfN17vIvtpq2+ahIu+rKUE/EvXfjuzt9tWWfOw2luA6J/uasBtWxoLe8/X+q2nuZQ3EAIgchuLorQYgWOLM9wJMNmvpFma++8Xnez1elJWXyQJta29DIBBwdJHZaczEINiRkvPXELfaXWN2AULCwmFZdt3uM5M2H5MHraB4d0AuwEjSfsMoLinBRhtNw9dff42uLr8EJka+tyqhZjmMtLfZW/8OWk7S9ijHCxwGM3bXaLa9TrcPZ9vuun6fAQj9HiBAzKhlZaVi6mKQIk1fhf7Y2yAL3av193li0EpUAbSPDTlngBA7ngQBj0rx0N0WRklpCSZOmIjvvv8eXZ2dAg5UymO4Z5CilQZJYC3ZP34/AgF/1tKzt/77PkCwYxXNRkgGIGQjtdzvMQChlwFC7lOYYwth5Vvl5kig0NXZJQCh0Ija3gaZ41jX4dt78mjkFn3jTuJDSrURF3pNdD/vUznmOIFpAIK3yIcNJ0/BnLlzBChL8FgicGB1o7KyEoMGDZLUSGY85BLIaG/9922AkM/1YQBCjms/y9sNQOjHAIGbEqlg+fKVlpTC4/UID4Iu3JTlmjK3ZSGBeH2dKlgwk+aTncDjAYKTG3Cuerz7+MRW3e2TdbXIVACBQYguFyZPmYxFixYJQBBwoKubxgmd4KFucB0GDhyEJUuWoLOzE/6uLolZEJdFAjSjrRWJ6JftAYRMZj7dtc6DDTsAwcl1lm6EmXxvp++ZtLe+XGsAQn8CCJFiTSpiMrqRuSTNkdUdCQ4IEnI+ra0vb4jD41BAIAv1Hx/k6oQWjmkz0qM0DJp2Nnj68536iJ0kSXPxMQW5rVlloZg4cQKW/bAM7R3tKSPKCRCGDR8OcogsXrwYVZVVaGpqkrTI6EelT/LdKi4uRuPaRgeLTecqYecBgh5cKtuWnfWT68iyud8AhMRSMwChnwIEvhDav0oRKIDgkwBFnoZy22yzeUXX73vsZAkkkkDOG6pNymwnKb0jm61zOMHSPSmRQsIFFLvxp+6OUpgTJkzAsmXLJMWx24k/DlzzYQNrB2LI0CFoaW6RnPb65fXCpUBEQ4scP0XFxRg1aiSWLl2KpsYm+VvWFhBHXxG7ACHZAko/uXbTIR0dVpaNGYBgAELKpZPzRpzlwizobTGbnAYIckALqwhunoYEIHR09pFNrKDSyevDEm6zWQYJ2lmr5HWP/aQDAOk2SDvPjG9Dfk+vR/Im93Rjin0wuxkMBjB06FDp84oVKyKl0KnQWdyMJ2NaAviOVFVVY8KEDeD1+hAMBCT7Z/ny5WhubkZNTQ0mbDABVdVV8jtdFj8u+zHpOCWZsuBysgcQ0rs+7LWTt0l2qOFM1opDj1wnmjEWhD5uQbCzMdtaaRYQiPWRauIXneJlAIItSTp2UbbpgKnWROS7WPdBBqQWyTbKTNaho5ttGsWZybNSuytUvAFdBVTs9fX1Apz5bliM5JF5JwCYMmWKgIWVK1di1cpVGDBgAAbUDhC68rbWNgEMra2t4nagRY5tJ3MsresAQQsmk7lw7CVyqKF1ue8OiSBhMwYgrBMAwaadONVKiQvQilgQaBC1csD7A0CI1ZVZRAIklLAYlW0cAXVqYY+TvZ03PFG8QPx9ktMf/WOsUrer4PscQOBwknoWkqOHntOhrBkR/3jcrfrvLH0+dMhQrG1ci9aWVrg9ij2RdOS0Gni9HgwaVIfioiI0NjXihx9+iAQ08u8DB9aKu66iohKLFi2U7AbNK+JyuxNyw67bACHR4o0K1857YWf55/uadaWf+ZZDfPvrNECwu+kVWqhOPi+Sp51zo9qMaYV2SXqj0ibiYiguRnFRsfhS+6KLIS95+5YyTUkvXDAbudWLDLFg/PpIaJWw0aZTYEnpcwft5QmaStV+apyWwBxuMdypegxKUANra1FeXo4FCxeIm6GqqgrDhg2TIk7+AMv0QuIUaD3wB8h/EBCyMVrk+B+zgViMp2HtWoSCwQiHQl+zINiapgysT4m3qPXDBaH3yZy34XWsAQMQ+viEOQcQrK07rNOwVBaDVBoNh6Xkc5GvSEykncxiEJ9r4T5pdVim/vqkDcZs02kfanf83U/udu9KdZ1d8KvmMG4gWWzqTohCrxfnT2M2VqJd5r6kNMEKIFAO5RXlGDFiBGbPno3S0lJMmTwFFZUV4i5oaGiQbATGFjDbh7EevI8uBAUQPBLLwI/+e1p5WO6/TNeNDalk2qRD1+tDSN/tYTYDTTuPVqN231277WXTV6fuMQDBKUnmqR2nAYJyqKrOStvWhskMBppXudGxFgP/LeQCTkbc002smYKEZHPCdrJQoombyxwc5PLsREFjtmSXp/WZqFnx3Rf4eblEQ2qZajkyM4FWg4ULFkoq4wbjx2NNwxp88823aG9rE4sALW4si04LgY7r0fOq3xsNELQoUgVtZvOu9Y5rIv3EJuJ5SH9X37/C7hzZfb/tttebkjEAoTelb+PZzgKE6AM1B7/azMOS4kgzKYEByz2Th76QCzhdtHRGJ9xUQCLL4L3kU5U5QOjeVqL77Y22R+qkdQK2saziu5ANM0PGj8nkhp5xHXExBLGN2UqWSA5Z9DumN/a6ukGSiUCypFGjRokLYc6cOZLGyFgEKQEdW3kvDLEk8CPvk+Xn0LTDad+jbC0INuJeMpF5omuzSclcXwFCrrKMvz/tunD6gVm0ZwBCFkIr5C1OAoRE/mkd2c2Szx6PV5gVQ0EChAJZEOLjAFKc7BMF+SU3EqRj/LFJV2Tb2mBPqdtdO7aYFXvITrXeLTjRRsl0u30qZO2G+M1TA9lufU3kVkiX9ZDAtqHlpVNBCQLq6upQN6hO3A1LliyVgEOt/HkdrQi8T+iYJU0xiVndhiklPrvCrv0lV0IqO8/pUVvBFhgTqGR7WWV1oV2XUlaNF+YmAxDyLGe7ppw8dyNB8+lDvqztJG3XnAIICYP8JABBBZXxREQXA3vOwKtcN5+0A4u7ID5vP/H9uZ7WeypQUajJlKglNDuq3+52mKytbmvZxgO79TnWZaTHE4emsk2pzHQenb6+p7sicaChln86z1EiRR6f7eFxezBi5AiJQ2BMzsKFC4XHQJMg8Xq+HwIQPG75WX+n15NWvul3AvX+ZWMMyPWkbkdBdbsmWcBowr87vRJ6nL8LauHUT7c7n3ZGb0f+dtrJ5zXGgpAH6dpT6vY2BU3Nm0s3tTuhWxuWGV5vZAywEoDgclkxCLGUsbk83d696cBeOqIfe0+Jjz1QmjXZsxOCqgQPkv3Rxg5vDwTFABa7QCGB2yQqr9RjjG58diWY/jq7YCl9S0quMUlzlpizf4KOA+i2OcdZiSrKKzBx0kQEgyEJSiwvL0NHewcWLV4sFjZ+ggEde+BWfYydf4nt0fwJNiYxxgJhSybWRTkpGBsn8Ij1wBJ3QotDshTUJO9D9jOXCCBkIq1016bvmXqn0s+nXeCW0/ylG45D3xuAkEaQqXzjyRaCPYDg0AzaaCbeVy0nIJ3NYG2/kp7l8UgkNoMU7S5yG4+3dUk6gKAacciCYONF73Hizta/HzN6uwDBGmkkmDSVALsDJy2f6CbWI07B1mwkvyjdPDm96SUOeOy+mWdaYji+j9EYBDVuUiiPGz8OjY1NWNvQgOqaaok96OjoxMKFC1T2Alxy8ieI4If8CPpvdNFRkSgDXXqbfKEtCIncN0lnPNv4CDaYACRkE9OQ45K1cbu9VMx0cVL6QXb3TqffFRsDzfgSAxByAAjqHVAbROynUADBrk8+WojHOk3qzsaAYZ3DrSOvc3IxpAfZthdq0tO9DSSfQs0puBHvw+8xkRFVHfkmqYJMOebuHAeZWkNSK+U4ciQVKBBNVbEpaQenLDGwSX9AS9jTeOuMdS635eNOfIjt2RHOB10FGjiPHDkSgwYOwvL65Vizeo30izEHLO3MaxrWNKC5pVlANmMQ1GJSAFgH3QAAIABJREFUlh8GMAr4tgCEpjJPNQ3ZAwQJ5bQ5wz0vs6WgklkIopWZbD0/4tqJXJ0eOOVDZonb7B2AYEdwtubITkNZXtMnAIIdv45+CXsq4ixHbvu2zLdOW7rL5vuRbK9P7TfvObh4JRP53doAeLqVzU6so/ZemFQiTNi/dKKM34wSmM4ju7H1cFuy7tbRnjwIqfsaA6psKN50/Ul3AlfAJVZQMdaAHnq/+1j0bzGZrOokazOrw84rkU5WyUSUy0YXuTdmffQwdydaO5F3LPl6ZqoiCcO49vkOkOCI8Qe0DCxevAjt7e0StEvyo6KiYtTWDoDP60Nbezs6OzvEqhCwYnbYJx3cK6dNy80Qn4ba3SrSncBM5sCmzk9/Grf5Hqd4XtpAxrh7k12vXTt6jfWwrCSw0Mk9evn3eE4Ggkq71+oA09Rt2rEg2LUe2HnXMlkLdtpLO5cJGul1gGBnw0w2eDsTZkdwTl9jNyDMzskhaVupTr9xijiRjGMBAl8PzaqoT1HyqqjjW8biSfi8LE+28Q+3K9vkwfs93RSZnNATQK8ef0qFI3qSGsUFSSbJmkjVx+QxFMpnGlFQyuYd+ch9GjykA28pVkFCi0j8hm4jRiPZI7QizHTzjQUliQCK+ptL3AN+f0CsgcxcIA9CY2OjFF+iJa3L3yWgjanA/LesrExqL5BYrKW1VdwQLA/NgEZx6bhc1s+0SvSk4U7Vrx79zER5J5C5rbc3xdykVCo9FG/ypyV0a+jLU6292PgHW4NJvIp6Zoqk29a6D05WShz6z3Q9KvBvWZySWJ/T9SqX77MB6QYgpJF4KhKaxP5RZbq2bRXJcMZ7KAMNFNIcXZOBBL1ocgFqqYZgN7BHt2GH9CfS1zRKzc6Y0l2T7vvYsacDrInGFj+Wns9LH3eRymXBPqUCmfreTMbZA7RFwF/0mx4KIZT97q7bSn9iju9ZivRD61J90qdyLyktxeDBg1FRUY7ly+vR1NgocTnCLBoOSRAvP+RFoEuusqISlVVV8veWlmZhVyRNOT/SVzkB91ykiRRLRnEBSV64eEuLnfiHdNtPsj1OHSB6ulelvSQBkNkoqB7tpVlG2YxZHDVZANhMAIJ6v7qvhUzuTzdPdr7PZoy9AhAy9cEmG3y6DdmO0NJdk05hJdq0HAUIycBGipOfnc2+p8shimx15oT4UhMch9VCi76p8QsvqYk8ZrOM3zZT9jlZgGDcaTudxSOlJSWiMBKhjp5/yyS7pJvDIE5hOAEQEq3hWMUvp9okJhVtRUj3HqQEgbHzmgSoZrM56WfqeJhM22DcQKSNZApAHQ1RVORDbe1AVFVVShDiivoVUneBljVWYyQo0HOlLd+SHuxWtRpoVeDzGNhI6wM3f7oiJDA1Tqn13DN6ugLsjFVbQLTIMwUIkesT7DFa0fa0cibKvtIm+pTmjpxqdMS7KGLXox1Z9YCOceshHXzN5hm5vFPqXpsuIpsPymYMBQcIdpRXwg0vsvHkYAu1KUh9mdpYs/jYvMlW65aCTmYgiAYgdu+nHTnHAjWNcG12PWnudjyeSNY/9rbb+BMMUDB3koGnGl8is2j3ZylZ6TbiAWtW8RMaYKRaMdZYtIzSuRsSK++YmITIj8mtDEktCN3WVfdZjyocLSdrtlwQeuHYjwZKynuRwsSchQWB7Umwn7WZU7EmA63dOqVJi6xAVN1GrNKLKvuwxB2w1gKVPAuWNTUrJc/7GFNAF4PiOlDkYZr3wGNVeuQ1dD/wfoKCjs4OKfUsLoeYYEVry+8BGBLFU6RTWKlcf3YDjCPPTfCwKDCImtp7muljDwndVHZaYJbw/U2TehkPgCLgL8m6S2kU6AEQUoObVFogfv6yMEYkad4+QEi333cDBzZSXHWH+jhA6Jm2lYW6zvqWbtYDp9wGMXtxukmNdjzxBh4BMrFKKbb9dPBGAyCnxhbtUE912W0IqRRaYoiSFAjFm+0SMeXFyac7IMg0JiEhfE2bHh1vYkxoZYov15zAdN8DWGlJW1S/8b0TkJsGZEUD6pRCplmdJ18qPq/Xh8rKClRUVEg7a9euRXNTs1J+Mc/UilOfqqVMsrURUWExup/30zSvPwpsdN8EqWApTFJ9k2uAIpD0W5dbnhkQPz8Ug2HYCgqMmXOxlbCAkpZdTB9iN3IJSnS5UFxSjPKyclHwxSUlEq/R2tYq7gL2j5YAWg+EgtziPtCWKt4frwzonmCp54DfL7IiWND1T3g92+HvsXNinb+VWJIo6/h5TaWEMjVdJzxZximRlAomps+xMnZEUcY0kiwwNXlgZKJ3NTEQSHm6TjgnMZOV1kKUtQpy6MbMLFSxa3PuvLkYO3ZspB+ucAJJ0Yzm1Me+UtQvkd0zrVM9VO10O73GK9B0XUoF/21T98bAg4QbfKKTZPpTeU8FkkO8RBI5JHIhpVNSyWdPPaSnCCzIEP9Fol0p3hLUwz0TlyqYJp4j3UrrOdbY9nv2W4uxu7shxr6Qbr2lsbQkln1MdgOt4FTW1nN0ymtpSSmqqquEA0BXKyRQaGttkwA+1ipwE0wo84Eqaywme/27AgACDFxu+IqKBGxwi+EJm23qqH8BGJbCp3zp19fEXREF2w0wWQ+x3tZgICAnfYIIrYTVKTje4qEAE8dICStgUCxBhwxU7OhoR2trmxRhYlv8MIOB2QxivYixaCRcBy6gpKQEZWXlAizaWlvR2cW4BBc8brdiKbU4SLrdHxuM1wMN9HxSKoWWzg/fDZAk5fhK4jbQwCERKIjb9zIxaae3mMSSZnW/2m46q5ZiRv2SR8UPrPt8JLKsOAKO0m00tr9f7wBC8lOPbZnkcGFqcJA+aCyZKUwjj/gN2y5oSnVdJvEYqUz3tsQWd9JVCjyZFuuZpx+L+O2OXffLzjhTji/GaqKAoOYNSDTy9HOdeuwxIC8BOVO8FaGHLBLIOfH8JO6nth7Iv4msSQksRzz58xRP5Txw4EB5HIGAr8gnFQy1GZ1Kr76+XhS93++XtECOh/cRUPBaKl+xRlgpfwQTZCXUgCNiAbDAQTc/swWkxfpAZR2yFL81Z+r0rr5TVgUlA/7OGILIqd8CDPIs1hixaihokED3QklpiQIVMQGI/JkBh4w/YJ0SlnqOVzDaahL5wrJsKGuJW+IZKI/WllZJi+TJXu8N3SwIiZRQfOBcBso3bXaUVaAt2bueTIEm+nu8ZSEiI9GrttS+3JJ5AKr1pDRj6YG1MuiTGkLqMcTv9fHXp50LWxturhetJwAhulnbODLlKrO4+2ODzmKf3kOZJzHlJuxOsrVlPcCOckx68k6SNqhcy9ap246MMnUvJAiOtAt4Uo032YvY/Z4k/ndrnD0VbJyCjpWHnoMMAIJ9MJF+/fawGkQQUHfQkuqZEcWvJt0CadpPr0z5NJmLXCLU2mrjjvzNWitUnvwbAQCD7oqKi9HV1SkVPqW0MYt4hUKi8EuKSyTeoK2tDQGmB8awccrJXEzp9NWTUVC5A7SrgDTGBA487auPtgRoiUSrNnJNUNG3tLTIvywmVsRUQ7oQrHHFuhLEDRAMyimdz1fMoApI8H51cncrmUgblJF6SbU7QVkNSDfuF+CjLByA398lAIPKX1sptKWi22tmDUf652bwY7H0gyCLvAnR8Ubv6qFUYpVSxLIQc2ci/3n8iT7BCT+5ros/kaf+PXa8SQGCDUWcn5N3Fi6EBPtkSgtNPKD7f+re9N+O4zgSbQD3YicILiKpJ4oce+Z5vs178/9/teRFXrRZtmRRlp8kS1wBYl/uBd4vIjKysqqr+xzAlO3BjAzi3nO6q6urMiMjI7P8jjbeSx1RtQwHoMer4Kv1ExQdTjIgR2oPqh09KsUAI/HH+rPlAP5Y9xuv2wLfNaU7i7psWPfGN43WXtk59XfYmyc/w7H3DXdSveeqjfEx15oJ/9LPdYzCPB3SG5r1jI6kxEEdwiACnCZPdnx3vf7omGfgZuv5V3O3qQGY9EAY9RJb3y3AxmOVIA5/AgAEaBCQ6H1TXcf4b1LtV64sSCvgb0S+AAWM3hmFK12A34EBgLOmfiBSE3CWcKiO3J0ycJSNKBzfxff8Cgw62smhGiejrhAF4t6PHz1ezs5VReBjltEOHI6ex5RHOoIHJ718yXHg+wA5p6c6whw/A3hxLwNrFZ49fUadgP5+GmACjIiOdMaz+r6YQjwfGIoGHgxo7MCb2XdKAuWTEDSy6RLSKucv1oLOWc7f6Rq90vyzJS6cVxxsuKHNUkTfZiPFUMbS5f5n4ytbeooX0okVFDQRux60RRsC2SMwSk7sLlOQw5vMZZnHdr9B2NlP6dGujTvuuIeoM735nWOv9Z8KEHojfzjS6vxq+fgxi+boNxHGc/ea30DUvwYn28/f5mn+mU1QcAwjUOexOKC1E9x/P73vKk5ooLOr0v1V30lFMTmablhbrYbtEY86X6VR8OlJdedpumJrHR5oOqT57ee0e4+ba2xf1LnFMqiCwdH2DIBF6uHCwqY/yMXTgWNQL18ydw5nCBuF/Dly8dUhw4HSX9QUQTgQOH84Uzhy5PMJArrSWOgeFJFXEZ/nKPkEpAaCmucZBxt/2AnU54lEMxoAhosXxSLomaSTcLoB43n8+AnH2f/pHYGvS3B0epnfR28EzM35+RnFi+dkGqLKoRh1fhcartB54J4UOw6HUAWui78a6NC4xqY9FYT0Xrif41eIpg8Bhomj2hYkHs9AeP30j7ke955t3qvGqO91t8pmNlUjgImLWaTaXXtkD+Tdu2W1JbLcs4n12fYZB19lu/Lh/wyAUDpJHeMsNqnYY758xGdmtPQx1D+dxwF1+KHbzxzG7DvHzMEuvX5AdFe/e+yzN/e5pz843DQq73cosp/8fuYY99JUNY1U53l16QnIerX5nVRGbKSEtI74fyPK12gqGJoxJx6PAcAKeMT6NNU9X69tnPiclf2dwQ3KfMu4OhLXvAcYiYjO9LyoeIkgG2Bpin6Prf7OEzDVKUw2STdHYUmtXcDHARSM/ciGEHiIFRnnbhSlYVxgUZk+IQjxuQ0LwQ9SGkxthBajDg/AiqAgdBLJvFCQKWOu/0ngORMYVsO+cjk1cs/nCVixEX3OHBwd9aQUdZdqzwcdeyOMAOYAmb5yrv3nD9mkvbLOY53iCkj0pEZU2zQnnP81A06b8z7Mw/hPfy/23LjM+fEudTD3MHrm4+DEIR/1H55iOEZkZqP5jbAER/Yy2Esd7C3QWra1eqEH6KFj5mIUsuU9NpiCY08MfH1Q0J5yb/xbrMEmqNop05uCpoPgbI0otu692wxrNs+O9Cf6hdk9xp/N5m31nifrtr7bgwAhxj1zup7PbeZBD+jTPeHgncN3hYPBhGxWH7XUvbQy3qWKh4asnBaYxrzMORymUxAWEs7WQwMSjZYVc+CySlUgqHxT17QRHd/HWCZo8ERG5FxdFLnvixOxk7eWofhO3hMsAj4DxoTCzeixAObBpZ57DaEMHEazXx1gA0CNaVHaaZ4umDnPXWe7YjLam+ivtXaE+9H72pl1zzXu9SNy6V5bhxzgIZvtkbXxVPCzP25e+4ixboGzBkfWh0nEG93UKXxTIOG/JECgUXvVN7v1+SOuNYKDMWJbG/hGFcO5vBp11RYVrruFIXrquc3GwK4P1Hhx3uMMbkTgjJ9WpZfHzf4WMdHn5oeIOIY4MgezKFlAcT6W/ucDbc8v6v+M81Wd41EgaetshAEcrMc5SwvMq3Om4GBMY9R/W2tR/h7nw87Czs3Re90mCRDC/jBn7r4DITY0AEAErN9HiWC59xiRzox7ApqZKBTUP3Lzg8pf++M4gOD0gdkBrGs5cqVRROk3R9kJDAcQOO5njv2l9AcACLmySkpIjljth/P50zlgzvwsiu58TRv6dAYJtjLJ0juZ4pNqp0h9P+meTZu0967qGCrAGSn8zUi2GLMtm3jM/b3mjnYBk2B5ev8DQfVaNNlcdHX0vc1eH7a1y1pUxqcXligNFaB5CoIHgDYCiO3HezU2oY7/vxRASKP2uvBgk4bed3irfP6Gce6iNqvGSymaJzY3QaEMZ69oj/mvDnMFlzxRk/4AW452XHA1etRzbc9RuV13mU0YN85feuUCdGoUng59IivcidY95nEep6mH4Rk7pzxtNTsHTqt7lR/M0hv185spkQpoBkQz/34DGlml0Hv+BFYZ6Q8D5xvXJGS3PzhNMw6uPOicBrIEriDweil+bM+g26mko85rtQONLITEddynoAnvhtzqYGjFqhbKPnogULdQUhu1ikDgQ+mGbn9uoHZ3chRw1dN6r2eqAGmD7mrSc/hnBj0EWzGHfZ55iPaTpSh0hYWcW3Z/p/RvdF6HWITqNLfz4a3yZLUGuvfEGRuCoslplvrYwT97gdmxDae6m6wC9XkXybX2oh/s6OQ3x9m90vaPBI17wGf4XQO/B6ft4Acqg3YUQDi9dHrwokd/YDMinGrOj7vsK9LAs4tuR4AtN5xOhVFURMYECCqXqsbCiPN1qa4Va7FTXjkbezVi0+dNA1/y0EewDr0fGkDF6p/zHgNbjnQLCM2WzOhsX4fan4KE8RlGxzoFBJqVEWiNzMDIVLXvDLOaY9h+NwlWLcAbXrJ/77LD2dwyti7Pk0YmKhO2GZbGCiUDZQ1CgsH4jzBkvtaob6iRd00heGy8/nDNBAOVOl8ZTHkZX1MOPDxP2n1VSzQQYqcvin4vEqxjyH0fOfw6lKm5c3dH55NjXG2MNde8Fig2/NLuNNMVTJ3/gXz/zLnN8dIAZIb1twYig9efUO/r+6yp9XqbPcc7xxf7qGPrfVdGKCBOLBT/NXkPW0xBp13sv0eiaotSrvM1u3a36Ibr7E/jro/951/+4nAnxdOTy8c56lf8VN34RycVdnLvLrmapwSOG9zqu2H48G3mqp3bLbXYNPRBnTqSMOW5hYRnYqTOTcS9RidyHOWuEaVd3aAARsZmde1X7vq4pbY3mFqPa3zv0+fbbBi03wFxlutf6Q1MlcdkdfcvFPK4elaU/pR1KiAyHr2Coz124RBgrQBhD2iIEVDtf/cn5jQdd6WHLVYr87617uq9G8NmViDM6Z4WZyNHayajA93htGtevekAmp5BZMIY1aGPA3/T/W7lEIt4cZYqEXAItuLAtdKZTKK9tBPxUhr7GI53BBspTrNj7h3uMWCgAz0OWA8BhlXEP+6E44DCNLVwBEvQAYKNddRdZmSD8gKvBw66OavrKgP+iT5gYwztHY1rcwPO7Oybbj4nX98CGq/akOo/HCDIiGhS94zOylke8O+jOG/bwB4HFJpz7U85zKgrned+t70KGF7lzoee5zBQOJRWaVHg3Cn37+d15nM+xsbIJOgqEzNz0O1dzJ9pK9IdI/oOMHlTzcSALec0fWXd/SL33PxvrQzQ2kk63yBhh5VoDrd/VjnMWQomfj5hNrxW7WxX8zgKBu2swjnxOXdA0vq9xLOH8LAJ6zTZBCpkwvQ57g0r+bN3g666BdRlPVoqoQKEjMA3UwShD6jGfVCqmE1Yn2dQ3odTGSuAEE57cB6jsbaRrveoAMGgpX5vzXII7Ow50O6+AxAzyPH3twIW32HucI5zdKOTnf170zYWEatm93iH3K659qAzxmU2hu4djGBq4wCy0Qmv524bVB0zrk0wOAMKO8LSrTmv1/+jAYSNTMLmsbObC+SAyHCl7MYk1WhuayDDDbecWf2YDXTvxOwQapRcluYOZdQNYUbP27uUD87Gqah0y3muZ3ZT3zDU8bd7HRbc1dvjkfVv3Snzr0WgNjrvkc2YSSJWTmOVV68pjQ2HmnNaGBb/bIPGyxn0M02nur3/UQfS6T0y79y/sjof03d8ZI+FOu92tNYNjCvB9+TfkbfuovMYqx57G3CanRCgaGvFzY5c7igGrqXn8iyGFxLtsZcBDmEaHB9/57VT9rfGvZbPeP4rwCGjRyFklBTGZIypqnTUO6dPppPyGRZxLZdNjs5+xWZECqelFJplr8xCbzqkl/Br8Oe8VrYYCQ5tZGkGp4uPrCLLyihtiOM6cNJuVN6f18z+qYQAjnsHTDXGJiBCMDgJbvYYqgIqjiMs9pz3BiCazGc/Nz2owVzHlouP7bMw3bVmzzp5vzk35d3FXQ7qO+pa+MYBQgu+9iPYTUDgXzhy6bx9OJ0NAz2991AytXXfzWizc9IyPSuAMDjyanS21+5subaoviZe7TzXBr5nN2bPtg0oJsCBE6gxJCVdnOI0qhve13QMRdA26g/28JvvV9MQowAsgUXU4NsY06WEctwGcnQGtml7m7l7ntmanK3XnaWPZ/IYLQTsx9WM6mgYGvAQ7LLjZHQZTgd19ojSVcqnw4bGFEPPDLR2w+mIyzNtvoMSJTcHXsABFj4bE7VItzEZARKicZF1Avg9ywHDqOHvOl/8MYxrlC+6QqGJ99vBUGthotIC2ZgpRZoNxNZDnnbXced0RuceHjn+4vOXMtCp6LKYgl5sVq/dX7d9TmLH6nTcU8GqeA2hNJkKf2XwblDY0jnDjjjGKXXD26LMy3XLNaGTMc7zSZy9ELBWsmg91XLMdHxbxn0jjTX9eNGn9EUG3UsK0zEXWG6nezTjXVps1CQcQDEr3cUQ1Ex1GSsWprvpahrqNX7xz9+wBmGzpnzLaG74yS7KPYIFqM5r/d8VyZaVXKZmBhBWYCCAwCoCn0X//w58NHcY/XusY+sipRk9O5m/Q9G4aOAhCp8959amnPy8B1ZbAKX93BqCCpASAMQzVUCgN9vOIsBazM55EX1ZtOe77FGI6SfjXlOA8QrPb2ftr3SR9+Q63BrOPUdesz2/voA5JRhAGeLykg190MwHc6ZnL82qyvvrHP/GWoWzRjdC/O01hvun8j/GhN+5W+EMkI6P1j7TM1OOgll5wTJLbTh0XOTvwrL6PWh9oh9BO4nSaYtaAoi+A+gAiT9ZKZEAZyaCDD1DDLxOz7jX9IpKBDg4+xWVH8+Rp2dWwWRcZ2RG6hpX8KxqkzEVod+FAx0OwKqAoq2hCDA8tyU11Kju8o6KM5qnHFrWY5oKKOvZWi4tYoFYr6OWggpgE+wPDuVy/4p6+uiWoz92a3bC2fiS1tv8T3v2HiBszkleUxZq1M3ET1+xrfJx5ZUr+zY81KEx//yff/7NihQPGb3ZlHcbv35gEMkdY6B7cNAi7GMXS3MK63zv6OC2jOEx49w2mv1vZsAl9lQyGTZaWyBp715b6YkVANmZwN1FtlFhMps7/ywjmchP83nrAT1ZOaKtVY8Mrn39fSiPIigDhyYoPcaZ2QnXv191LbU11XtiA6AtUD3mndt9+2jGoEgOEJFitB12L4NBkLi3TirDE/FOL3AsqY56nc0GOxPwkeAkUgRsFvQyDle6hD0L56fDobTW+2qY2Xvby93a+bCMM0BVNf8Gjf4brZAFMNrgV/qPiYDXDntcK81xlzdYmBX/tNtHB6LeBkpGECnHYcag0fM905FOamAH1vnzob11jOuQY+ki/AMpgJyv0ha82YI4lyOOBq+9Ml53H47fG9duMlg7IIGWp7IyE2Hs6j6ehzGiP2J+6rX23tH4Xv5LAYS6iY41vnsveSXUGwzFISd7TKfCCgg6g1AuPo22J9FYXuvAOGfPvAk2Cu1fvzeyG50W48h5qpHcbC6Tvp8JAsoXDhmLbtyOxidlm46KMjftiKoeOlTK+vx5O/81pe2zCNRGdtxYK9+1UyEzc1SvZqDWYkIZma2rTLoThrscv4Ho3X0DFGXhICN1+8P/bFTre+qcdDhNRXBgH8Qembpdv1/N3Dh/qzW8o5vwvbIz48VLPNeg9i3wnPucheZIoyFRHOg00yFk+Mc2yTozQk2OorSzMBK1/4KcldkL3dEgfQoShlnw68y52VhTc/BX3vkOQFg5AVc8mMkoIs4ZQOC6KxqL8Xp1n2wJKffWfgVKW7Zh/PkY5ORaCmeajbRWfSYO78Kj7VNx3GYQ9r97nHZg5aT5AnrB5dFjDCAyqCF6FmuFTJoOLG3ODiipY/lGGYTXBgjjJqrOd6VBiE274wT3ouJtX1cz3UF77egfRiHavwccVCOU1ykWplLs7d23GnZpv0q0cxAgrCszVtusvpOIQPuFnqt8VUe+tWXbcxQHM3iZyh60uWjitwThRu+jg/VNyiE/zRErXwvaXHlbUfA1n99Tnxpc7XnRPduGEffaWOklSuWLrtMcgmnlLTaNYw2HaANs0Z0AgtIAtbOn24Czta+BWU2XBDNTn2mVPqsi0yoWdCQe87eKnl0O7FRQPm9LeeBZE8jAicc7qyJD6xC4R8Z1fWRuGc8OVgBnJjhtUsFlW2d9eWZ/z3UXTFxjL5No0J5zX4WWZdK7dTJJORx2gWPDptbRMcFzXGTTEa3SC0KvVQ8Sr3CzdXMdZwcSRrK+6Fc8npo2avYwHGnZy77udgJge7YOOuGcg41n37h087Ujfz9xzJMUQ5vjsKnlr62naeDdn1gLQafAxGZ7DyCUm/78F0gxfJw/ufByMos4wSyHMYl4VpHmBDUfd0ZAOI4ZLbnp9EbHPtK4GvlqKw/32P79UGtfxrEJEjai/r2NPotOupFPqdooo+ucuQ3pnuk68oTDDe1HozcH2vIIS7ZHBc+cQDpDdp6Lw36ifS7XeqQO7Czl7N24quXLveeSeRlAaBVH+QwCOd3yFuK/dU/vNP2+5jGrk7f4KoHHChBpDjFmRP5MkRQggHtVtb/peM7LBR1C5JbCPs4YUTii5atXrvKIZT+b0zQWMOIS/q7n0u/AEZ2f0+LHcxxVjBy4EsdZegnxH8Y0dmD0XPKZ4kRHgoI4mtlHSQvkykGns6h7fgUGyo7lS3IKKSobrMEox1HDNuvAJb2EuhZx73YIU1HxdcBkvqfaNmljSsC+9TxH7JU1R3P4S/VESe+NESRMr9IBBGswJj0j4stJyf4gAAAgAElEQVR7zvYoBmFoLFfB3wgE6/grQJj7uJbjL67z8MQ5RTACtEMgdNCc1Bt146vdLTsthy1T6d2xI1QctR3WKeVXJl00R5u7/+56WhMA4eNDAOHK6ZWjJrjBjMEhT/J1/uw+tb5/20MphJGGD6TQg4Vuz897GkxTDOVh17+fAJJDMzhEI8cAqjEqlKPhU0/utrPqdvJn83zvQHDt5dDqRzcxSzPw7I/R1cobBCjaZ7TMUjgtZDgmntrHI3fP6VwZ2bmPfylrs/lGNI7fX758meI1HXHs/L2cLpxFHtNbo+Rmdfq4KPOV2yfbrcrNhreEXv84ERAOvpbk9aI8i0d1wuDJ6YlOGmTuftFcwInn2QYLn/HKlcs8JAjG4enTp8v9+/dJc169dm25egXHPEuQiHsRlBCY6GChk5MTzrlLBA1aPHz83pUSFy9d4veIX8Jx43OYS7MgeL95zTjyuTvKmcAn0kPLBb5XgSQJ8Cxiq9S/3xnuS8Gm12QFuaV/QbU/nXPaFPTuA27tvbbvVzZhSKlt2b2tcbU9PaXMGoPY9WhoIr+qU1kZh5Fan8zTZjTa/FtetouIN2xDS7Hsl0DmdnP6pADzqhXoHPOmrR33ZtnME+BziHE4BgjJTDnerw28Gggbn7EHGR0C6ee4zH3PQpgBGZ7vENiZzME//fyflo8/PsAgXL18ddqgYvoeVumCI53ua+Xtt0WIU3BQFf47oKU52v4JOxp/59jq3dMBtxZvBQhlbMcItNaXXNOhx+QStzbEIWO29UjOf+bv63OFE7exd5RcS97s6Ov9CQRCzex8ezqsCNevXbtOY43PPnv+bDl7fkb7enoKJ+k1g5I6RO3q1Q+HRLV+qOedI68gLKNmb6T4m1o7+q6mtMeY2hHA53T6fJ6J9oJRfDhgswi+b6Pgm6agjs3NhwyInj17lqwK/hvXvnnzJu/teQMIefzoMX8GgADwYEPmkw4NMPBzVRVoTdGxx0mGmDszB1evXltOTi4tz54+47VOL1/mv/HHfRDOz874eb1XNU0y64DrYvZ8LLKfEfNqwaL/uzpR/feFBHS+Bp5R4Oa0a+Eg4FIrD9qZGwkshzz3ofU/Biqj7TEbsx73frO4tb2Z6VIC9m6wfeOarA6rc15Fx2CXJHsw5NmPqWTY0TgUzrFX7R+huehAStVQ7PRp0LbcD47G7pqbDnpi6JLd2LiFAxl/tdd3TOZ3uMds7CtRZXm+g9qWCQgYH6ve82iA0E1aApMyK7N83KRF7n40Htt9stg96FFfsLUvZimDzG0WI723+Vc5z0mEvkoNyF69ckOoPSOyBVi2HPPezxPNmiYfKalDe6lc/JDhpAFqNT0ld6nfyCvpMz4m1/Q9jSyc9iU4EtDooo4RhZrmzjURDsdajFu3bvElnMERPn7MiBkODnQ7WAM5Uziu8+XRo0c8pQ9RNv7XGeUQtImWVrtiftcDz32wLKD+4ZQotAvFNcZp4Z1TAnZo+fBxrDLAixxmmxuvv0qr1lvTAZ6ekAEx8EkNRwCW8J+ZdmEu/vlzAid8/+rVq3xu/uzpMwKA69ev82cAGI+fPOFz37hxg3OHucLP8X2nB/TOouIAvQyiF4OjebM8ZHcuXlhOT06Xy1cu8z681rPn2bNBIK2dGGmgIEahiQd7+nxZnj55sjx+8pj77vQyShpxHzEsAmtRwRB7H+vN7wpz5FJIszG9c7ZmZqim6IKaUhK8Skv5+6IZMiU76EJ6s7q1EdeN2TgvDX3olU8NYwCMoRKhRsIdaHAaoDIKxwCECU1ftsrgsLfZyLoXqt3q7NtYEbD2dvmT1b4tn53pCHrn3Lp/dr5wKCetc98BmmbspnZwl6EZ0mHVBvT3aOmVqtGYPVt9z+Pz1N8dBxCuXAt7dqT3iB0wrtFVNDywBqYMx3e89++pgx6/4PHw7bXNM9tEx+gKcoOPVH41DHUMEzX3uCkrQJgCk5yrQnU6HHLJTUTQuYAmOgsa1tj4GSF0LNY6Ylg9ZpYjOZdrukzOrc2hQ+voT0CjjFSA8ti1PNE54A5aRWQPp5WRaw4mQEV0x1MUoGgQzg2gAgDg6VMwCM/5iyuXLy+XTvBzOG4xEYq4F17/9FRUeY26vOEbmyF9g3sB+IQ/PI/K4+R4DGb8nkcA6OsiOje9j2d3nXe3gZ0fzl4IKAtUKsbgyYJERuTJSKh/AO6N8VLAiHLCkxPOBZynv2cKH8yBHTSYF6wVaJDgdDFPT58+IeDy8c/6PkSAZwRv1m0YHGEt4PkuX7nC90FHHYEDPgv2AnPw9NnTeBexfsqe8T1kT8LZVg1J6cTndBPeM4DKO++8Q1Bz79695flzsRtmdwxKcX/MBVNOAC8AkQFIPcdKQSnia2vBg2hO2yA1/TVbcbcNVhmpbUceUe8km9AFPtgf0T8grzURwm7Zz2lkvRIrtrJJr+XxmGk+U3XUMS2rsy8mdmY2tgZyiy2aMAybGoQZa5DxyI4PG+6xTTyU9IC/cwQDsqpcCObDwGXKFswGMR3nBBy0GMyR2Kq3Q2WJEsSVe/7jP/3j4RTDtasBEOIKo3PLl2wHOUWv22K/tlEO5/lWvv+YaH1Su92Dg3kaxPT3Zj10BR5bu3CsMOjmZu95J8h6WNujkrci7lb6tTaojQ6XQ8/vlQWl+enFWrXBR50/rIe+VKw1zmmLXg1vYKydU7YTxd9w0IgqSTW/fLmcMZVwxv+G0bYzc47c6QXn29khL3r8U1dw8dLiz4xpCzVZgdM8l6Mt1D/z/ynCa2CS4CN4DzhadX9TRGYKHderArvGjMBpN12EnLvYEefvDTr8zJ3B9b7LNSYnqvdfxXr6V2syFMDn5JQO2O8ZYzf1jrFjri3ubEyE6s+fn6E0UM+OeTH4wr+hWYAzxW/BxDCFcO7ujUqneO7B6oClwP+cKqiHq3E+y7kMDfv2lRmeb9wT7wFAgO8vzsRgWef5OUWaZAOizNO9Dfw5i/nwbGRiLp1EWkRsDH7migf8zuvFGheClhGAD8DZQH2muF8xnIP92FbpN1vltZZ6Dd+/DGxP7T+yZWENupG09d2zD9XTpCg3xMF+58nyzNpWb/mKweHqtM0mnNt6nlcCC/UJR8duPxsX3D/cqNcRjJH66PBtd0dHrKCt/BlSButf7bEuHSooFmMAECPLM66/uMw//tPPXh0gGIWvnPVERzCLhtfIeZ0z3/K3rwMQciNssAdzOq6n8mwku2vtFjkNbMVsbrbyIyMCLqh+hIC5CO29sq+6nXuI2jon09P7zZC12RW1q4gTTtgF+4yQu1zyRO8w5AcdcWGzU4WfDyGGAQaFTot0OcrdVLMOx8XmNilagxNR9O8oxtfOSMq0bdCsuI7Ay/qP0hcX+XyO+h3p25HMvlcBgsEBf0ZlvkRyGB+dP1Id5+ecSwr1QjxYx21nY+AtYBHdA2uqYL3hsmdB/ipKHb1O6ehOLlGH0bpKKorXmq6heDVSSJucEwAgNQPghH+LyVHKx+PFz8HE+HqELZHnByDEs6jDY2sz3Yyk3FKzKQaXreRw1M9ozTsNoSvVtFG1Lw1QWN9YqOIYKLQoZk3wLvDMTLOcxDH3RaOC6XIKaW2LmBjrj62ItFhd8qO9mTWZqkLdQ7ZQa0maDv6/YldG1fvq7JqNdMRI76ed2YvE6++izbZBglk5X2eWwhn9Sn53omnY57IHFrQu621aoKzBxuDMc/rDGykC5fEZZs9UA6387xjX+FyzCD+ZiJ3nGt/Xahz6AW+/dw7Gz/7xNQHCMYt29plxc7xOWqFe91CKYQsczPUFc9HjKDpcAYojqjS29QzrWeo2BsOtKqra3xpeCBN2kjeyY13do4H0NNjVEDpitdBN3x+OwA4Kuy66KqKz4YajzPK3cIaI8ODMO9Qd6D6dKaNuAwgo1ZX3psAQNPbly6TD7z+4T+2BIyuHevXaNOWZj27XYcQZpYb9OgMAQFSpNcIcfDAGuK6fCc8uFf/LbO8LJ2nDbTqRczEa82K8Zut2tp/MbPh3dgg+AyGjTER3CfqaoNLO1vOhzws0wOE8f37GXD7AD8Wey7KcnJ4SBPn5wVggZQE9Az4HMPHk6ZNMGTDtEMAV1zRwMtBrAlWunNVj1r3jd+ioH5/Gda5dvUoGyhUgHe4pDIMrX6QXEeOD9MmVy6rkyPRBVNK4igM/t2bBDnk61hH0l4jY1zYVVYGgQSzfg5mA4Uj53NsTJ+cx+fuexJUjnpCWW876kI2v+6mCWzFEepcdq7lzQQG89u793/n3jijRe2qM4GfOeutnuX/sqFfNp3YG31Uw7UX3vHteyMBwBHF7rMUMMMxs5tRWWHxbhjgeXjZ+7xsHCCvaakLDtUG8ekqhPsD2uQ+OjvRpR4X53xPUPAIV5zu7ERYhZjXg46TOQdCh7dZ+v7s5JsbBzt6R28zx1JIgUVo+Mrc5CwMRGy5F8FKdZ447aeC+4U19pyOd7vUoJgDK8lY6x3EEs+DzBDx/NdpwGR2MuZy4+iJ4XPiHdASnBAlgIxS9n6n0Mcojc5wXVHoHJwH6HSzCZZQDXr2iMspgNvx53OfGzRvLtWvX+AzIxd+9+/Vy585XGb2C3TATgr8hvoP+AQzC2dlzplfoDMHIxJ9cm0U41r2/nS1SjbIMX0ChknZzugROvdHqoufxx4cJpbC23s+liqEZgFDxu9/9Luftl5/8ks/D8QMoXrpIgIAxUffBdIMAhQAccvynfEeYA6UbAAijpTFLVqVNcfkm7oPmRrhWNeCYH4AB9HkAOMF9VMp5VcxG9JGQWFICPoxLrBTuiU6CYkQoZoT+AL1eovIFa7KBy+jPEECEOovo47BiArjQB4BjBqEIzSrg2WJYD9mUFY4qlH0FeQIOk/LnWSR9bEvuCStSo+JjQcHUiW2BhIGdqOthCyCsxrGjE9D+GQBKl+44BBDMWpQ1UO43deLl+vmt4b1sMxh9emMcf8dSxNDTXpR7jCeQjk95FEC4fvU6v7eXzxqptZqL7Zn4rXy/hlYpzxptzV7PKo83NAzi9WgI45ODWLBupHQENQIYNQarvNk6v9/uubeg9Lucz5VNKfW6ST3lDukubEefcoE6xuJ0TFlbmMU8IRFFm/caUcNxKi8rmhXRI2v0o4dAm7sWJVAcx/x2iAovXFyewUGeKe9stodGa9Zq2fnzmJuM5MPAyTCreZHZCzgIR4X4GcAHHAWMvvOXpru1iVpZ243rN/h8FtzJMcmROo/qjYfnhbgP1wX1jGeA83JZHql89gBQCgag4MH9+4ykcS0I+0DDO1o2COi6OrqZUIlIqqOykFCArYE2jU3Rr6OSWgkADdHNN94gKICDhNr/zp07y5MnT7QOY425wZTXBYCMxIkvl7feemv5s//7z5b3P3ifAOmrr75cfvnLT5Yvv/wiKhuek2nA+sA4MUeYD+pNzgWc2KshokuChLPn2vPRFprvqZxKCbaGoKr0vLddgUO/cvUq37d0FAJfBiz4jsWV1DeETga/d2qJeyFEmXx35y/0jii2jMODPLbQU+A6CZZz3mITlf1UN6nBZv27pkh8xHXas1jvjalIUmdlI0e77H1ZQcEaIDRbsiWgNPhJ+1lYUgckx9jk5uCq892xjbaM1VEWO+ZvjimQ+NpQIRCzMwNuMyGjPu6E14wg8m2CHTEoqPPZqPv2lPMW2lvPkM/YBpOXykCv/KTu4XEe2nyFnR4bNg3pkTZmrel/+NlPD2sQrl8TQFgNJH9anX4p99HuL58qZT6H1sixvy8OrtT6tA54ef/1GBtwKFBj1cdhVjI0XIvPecSAR0RZUPEM0I9q+uln4ra+PY1Q6S5YG+Y435+iPdC9brYDIeCJBFo2ADWSVXlhdPprh+clE4HPGhzAqagB0aXl4YOHdEh1/TiKpmOK+RarETs0co7OmbeIzXlpiSINOPDNqpOoKQ5FkDXP3krofCwyIlAYQj3/JVUjBBvgyBN/UywZ9foVQGDUZC4uo1QxUhQMU6N6I95HPl7ktJ0aSRYkJgn3B6uBsYCxYKR84QJ/9ujhI76fKujEXMBR4jqPHz8h/Y/JEWi5uAAIffDtD3gtsBoPHtxf/vCHPywPHz7kdekUo7oAThv/DTYA6whO+uq1q8vNGzfpkMGy4N64Fp75Zz/72fLFF18ki2Bw4WfjGw1RqJ25f0cGgd0VowEW2aW2Bp8/e54gYm1/1mVnWrdtDbXoXIwJ1iXZJWhD+J7A7CDNgL4Np2QGDFr4HqMjZQUeZhf4zgLsAAy6usHNtao14LgC/LlvBIGKT8sk6BXT4a6XBtsSnDZ7YxuwaW7KZ+vz78idqhVfCy8J2tWcrFaA4dnzKOuo7DCoqsyK34miV7OW+6Fmm7tRBDiCjI1Oj5VtqKnTMdjqXlJ312mqq63B/K+0lZ0uYMJ29CzHwDYMzMZuymC4dpmRtDfN2PZB/bg/kjHOedE369r66bEAYaRrRmpsnVoowGDmdEel7RBFV8chnHHAA29UC+yOa7zuRlvU2b0Pjqcsvpy7LYCwlTborkG3t4tCHKGkA47P93SpREw20qi/B/ULY1+b4EC9DsaA0X/krsxC+HoGEgQObMGr1AUNWqjKs+FODN19DCzk81jcoKdu0wQypamS1P4W2RVBVtzbv4PxVaqk1eh7HWV0GHoCOGRGhiFaHCsZxDoELR/VHV3nP7+ZoCd0imTUpg+9QPrIrDFc9bhkjI9gg+2XVVXBHDnEhoyUe8cNVuX+/XvsjujSRLMDuN/t27eXjz/6mCp9fB9OHxqKr7/+miwCKXxGv3JEAjtXlkcPH5KWZ4+IYE0oNMT9o4cC5virr75a7t8DW/K0A+bs3Bh0vwEX3XeUXuJvalHiOfE7pDHQ2Amg5d79e/muyY4k8NU7XZ/C18BBW0eCh+xjEayLmSisTQEC9MgQcBAjhKZZF/nsnp9qtAW8wJLVRlAhLPUBUsPe9dgbw2Om7VJW6TiNZobNDIL2k/7YAvCZtmzigVJuOYG+p8OeYfF8FCRRynxb/4ts+y3krvEaHBcd1Qie6nX9pJ2TrMJrz8NWKmJw+vU63X8PDzzeb8/Wjtf0v1eOfbDrTVvwai2sBa7afA6PuOorsX6WbQ2bK4e23v9P/uEnhxkElTkykzdZlOuUQe0sVhc3N3mtk98YVY0sdz1i/aVpubLwR2O8Wa4oz5GbsNHfs2erwMf/3YOX6TGgG+DAm2h8ThuC9rL3wUH/fY3Hynk4luoUMzpJx+vF579lfP0dOBBQ5PgfHXA09HHtuxew9QTVMNRovhptgY2gnkNT4HPuna5K4zJZBI02Vg5bAjMI1pAj1r9Nb9aeC8lGRJkg7uEUA+csIyWVITr685rcXI8RUYnOlTPieit9J3T9kl4pa6K+kwrGK2hjzhxpFII5OSescarur11nFGwWBPOLn2PcEGxiDyPqx5DskAEQvvjyy+XJk8eMpOEwdQ2klcBKnKSR5xxHwyidWaAI3L0D3FSJAOZcLZoBuJ4+eUoGySDTa8ogFmkbzBT0B1hPADGomlCa5mx1tkPul8l2SLFX6ZRYWTDMlUVZZm1qrwcKLKOlM8bk1tCeM2tzMAYzb/jvlr7rU1NeKzODXSNOgFlpa7RP+zLLOGuDZbkAi60Pgxt3rdbkEEvVNMGePV0FfWlLix2MNetn9t53p02vY67No2jVMqJJyXqnndJqLGvS9qoyC/3C6JzrhLKv89Hn+w+3gF4Bg5WmYO3YZQ/Tuq+i/k1Aoy/mcEew06+x7YObxrX4RwMI21H1BnNgKtkUhlGu53CPPx9X9UbVwIxS8+YIDLAq66qLmJ9d6Qx6pO7I2CLGkrSK5dvyUVrOGy+rrGM5HwGwqgvwfqjU+3oqFK3CeDsCtoNNgBQPldF9qZfuyqnKmJzXRQSFyBBMgufKeWU/nx1VG6+pQT2Wc70YhpXiuXFzXYzP3lTNEjeqhNDNblw2p1yu0gO4D34v5kGjrXMHp6YNUjZuAFaDQq8hgZMm+tszrJyHYFmYqkBnw8iN4zpkV9rWzv9yvtjsQTvoCM8ekZl43RSa1X0H54wWx9eu6VAm/A/leWBE8DU7eOsBMCZ8J/UnyxIVH9BJoFQRWhGBNgsIef2rV6VdiK6ULB09f0HHj5/j89evI/K/wfvjmZlyiooGMFEAI1/fu5flkBUM+vkBYL7zf32Ha+STX/2KDAap/i4f3QS24zsR+GiUfEbkpQcFAAHGr+hcTpfvjJoJCB7LgVlOf4RdMGB1aqCC1OqIygsurIcOuLIj1Vp0KWtr8sVrx15WpY/SRD3AV5lpZRw4trLK6t7PtR2Mw5rRDJYlntPjTCc/AI4EzV2VQis75VjLuu3fk3blipEO1pGfrfdzms5VBQkQEn5Nqx9yHxfl/pjY6MeQlAcvvBXtz+zAJoMQdoZ73++n2tgKFCpwmKYo6jkSw/x1wWcFTROw1COixvDEz0dd3NEMQo8ux2Yda/p/XgXQqK0Rra5qgScZhTUo6T/knHRz8n3Z4qrqYRA1tuuvm5F4wXv92vGMCz3WQpcOWKG2Qhnp811Sf7UGjWxNkfp6zeCoDXAXhdJpSantpkNWbLvE0AZSZwZIdW6DKSfxnE4D0ZzAgClDlwUOpx165K2BYtbDt6Y4rV3u3On2cQfumUcYv1zoeG+/eTsrCkCFIy+OqgUMkAcenT0X4/HkKWlqgBz8N6JUnnWAZkiLhHTONbPBj09HDDobjgR/7Hi2QAJXof/PwBgczIzVD5Dm110q+5VRcPyudvRjgymkiagLuL7cghgxGjBh3HguPCfAA+YODYvwc4smMTdIIWAJ4v0bwKHt8vvvv09h5p2vvloePX7EwWH+0JUQ6Qx818coY61gLG+++abuFTQ8RJ24H75z7959Ak23tW7RpliQW7feWN5+622O84svvqRO4vHjR2wBbaDtlEXMkqoxun1cbMLYRhyGn/0c1FuDLFNsPTI1KOVkukmOuwPrRbnvw6bwXiw6lYNuZb/1HbZtEQCBR41HV9EAW+r8KKGp20Jz3YWYF2DAVTZmcxQQuCdF7NBYQ81JN1Pka3WMX6Z7xDi2ddfv00yzxXhUDdJSRHnGxtCoq+5mzVBLltQ5NgBKQ1PipRlr4M/lughnu/Irzq8XfUrn0MOHjnOj2Txcpql4Y+2Im38ojEfVGlQQYOcsJNGBp3bp7bSEtQQec+eDaiDaBUa+11ANMYzrJz89MsVQJ76LTJt1lGGLh93Kj23mzQbrW6P5mWE+fP2+YcgsZ1evcYg96NImZfFkRLrhPVaRhenPeBGtzMSOQRs6x1YU/G2DRYQWAqaKjL3RHCHhqtjMVnk7SmVpYbQbrv0HlLOXAJA2MnK9Fj7W3Nyx77JOjRiYtmorwyOj6lXUGijhmZCX/uCDD9g610Izic2apiIPFYpVCIpYOgrlkuHU7ty5u9y9c4c5+CdPghkJwZiNjeln06iv85ze2HsAoYJOzVHfptpTMQIEvZ/KsCCfLYEf/nfjxs3ljZs3eRDT9ev433Xm9uV8ABh9XgQYl+d0sv452Cg1R7pMZ42yT6cfMK0QLwI0fv/736P2AOLFm2/cpPbh4aOHfAr3KDBoczmhHa+i4kvZ+trr0MAV88422E+fLQ8ePFi+vvc1r+/uiF4/XuOb+fSJcRyFdV6bbrdskCmBbGUPo+9HOmylkGr6qr0nWUG/+zG4sK0huxRiW8w5mCcB+r4jZU1VYW2ypPPyFQmB3UmypAttc8hwRBmxwG8LmJIFwFoKXYkrXzwnPq+C7cCd0gpwA6CI66nLZAhRQ2RZ93sLjsyCNeBhoFvTEkmiZpDRO9/Ztc3sVB1NWNMuJeHPya6FaDJskfd4ZVeqw01s08jH2LJejWv639eaAZJMhxkchFdPxnMQLjanXxy7/rOx1AMrPc7c6KtyHiq/acMVX/7xT398nAZhBAjpgGITKTd2OO+0a2wdPR0hoBmvs/53zx6sxjaMdQYQ+IwhtqvXN/07o5bGcVQ6V6xbi3DwLrpcnnUDpBZFldZSPRlS1esz2vChNp3uwqf+RQdFqNSf6tCdZ8/gEJHHFghg3heRs9F3GBmC4jhwyADGG/N1nOUGdsofz07DwwaCQ7j95lvLn/7pny5v3b7N+WCtfeTHa1c/R7eczzjymTlj0vuKdCxCs57id7/73fL5559Tze/6eETRjr5owKOs89AzvM7v1wAhItAeUWVqZ1Ya2gyHNCN4TvypVRUQKcLZg8K/dl1t0+1EuMZ9/DKEnShTjHbTTOPE78HUINWAtALYmN/+7rfLw4ePpIV4uajbYhyk9RxdFaMU062XWf0R/S6k00D/Aa1j7QMJRc1mkckKqtfMllkK3A8VHRgHG1Yh6i9GbvYuquC1n96WVnRr5jxcKvaFHasdTAZIkbLq00H93UcA3PZR69vBjo0XAOQFDqxBwHz5NNIEwmASwBZdVRVJrnE6+npok+a4RunNCbZotDpnfx7f8aFVbuDEd4O+FyVd42fD89MeETxUHca62gvf4Xw6pRpsGa9VnGJvJ+cgoWNmiwiy2vK61uvnEyyUFPDqenVNVfIjHXNjD8yurhmAwiB0+oOOZO7TJMkidHAoP1NZ6xF81H9vQavZyb6+U34/UjpHAYRa5tg2h1v4TnIBe9ayiAG7jdrg9urbW05p9vP2M6P4nrKuYsTuRrWCoeupXh06l0EzsP37SwV/92Pnprv8Y7kmVc/tut6wOvTmAgVf6CVQzyWwGC1BRET6ZB6iJInO5KU6/qFPPo73Zb6YQixELmqAhD8S6WnPKq9q4BJ506LNeB1HeMx3fEgSPotoBUDg29/+9vKtb31LCnqcAohDg04RJUukZ+rfhxCZ7o39m89jA+8o1CcGkl14fsY0xKeffrZ88cXnpMJl6Hbe9TEPdMRnZgBhl+na0N7UzY13qn4M0hIAGJW2hAAAACAASURBVKB3AfoYwOHAsbJ0Eg4mjm5WTl4shGvyYSh8uiWvZfEmmk/F4UfoWMnUDddPiOfKIUcVHLiMz/oFvE+AXZ6HEU5CJYK4vs5s4HuLNezTLg0q8N4gjESfCWscAPwwThwM9d577zFl8dVXd5bf//7feC1pM3rhcdOcoHGW2n1jnlDFU9NtAitiFTRep0vXrca7/T/Qz7gO0jY+86KtWfdnUCMx7v0X6stgPYi1JAa8ni+MhWLRPI3Uef7GSIm97nUKBsJIyXnd4GO4Fhg7iloXHND1lCAaDbBcOutSYAOGugYNxqyFar8Tw+zgxs6IILRUqfjf/t5eUDIL0satV9PXHUjyoWszkDBG8BOAUJ+5phTGMW2OMen8AjQ2+hLUZZRMwCB8NxjM+8lTjRmQ+Nncj/27AEIFB8kVHMEa5Asbcv7jAsoFMapf058WZ18cer8g4jOrexV2o6RFOl3CABJqvszodkZnVlpqFslowYtaazRfGKqOBg3XFouxUWL+kNA3yhIJJMJoY0PCiGAlaMNKAAXjwo0d+Xc/tk8izLy5kfKgwpUlPKLE9AhneOgjjUV4ubx56006tbfffifV+jaASC8AQNTSO6de3IvePRswf0474P50KjjZMXhM0rOR8oCTAZvwwx/+MNISclyyq63z4aHneJXfzwCCnc/IxaWRjJe4lbogwIvOkbrWxeXDD7/DMkewBy5/9NHX7mxogMA1F82KEKXSsRYnnmLMaBz16NFDpgGwBglEH6tigQ2gSlRYwajOvjhvJ0BGZ0K2qyZoUY8Anodw+XRBPwSxXWek1nGth48esZulnZFFlHiujz/+mMDozdtvUvfw13/9V8tvfvObPJRqdDw5t3FoGNkr5NhjHlqr6NAmOOqNVtlVKyADGwbLdf9DJEpx6TU080LZqfQyYvJiv+F0zGBU8LxgDDBnEOD60CkxYjiUTOJk9MpwGqDajYzYIx2C4anCRvsa7x1jACB/4403pGfJU09VToq5eHD/wfLg4YNsT+3KDvzNkt+hC2N1njIjUabqLpUBJOu7SAfHVIV+Iw43dCZVyBhpXu3P6mlFuY/3H9+5v+e56vZtsBFTW56C72areQ1dsAUWlfqPj462oaYZmpZirWnIZ5E1yvLeTG6EXkbjaALxruqh/jyuk3M3VtiRQdYcHsUg3Lh2o1OWjrTZIEOYl7dsCgLbtK2RYnP24+SOxrXL92ll5QKL/8hN0S+Wli9M+LGTOM688PAZviOqnhtisxCqV1ZvMy6mWPG3Uw/O5164FBslRXNt4+DzVpNjc4OqfPjgASNj5zPtgJ0HNmI361A3DKevPN8egh/fy2v/O9r1QkQHAw/B3dWrV1iPr1MPo4QvujXSkUCkFdFH6g9QfgfRJbs3tpIwzy3PfIjufD7REGADDYg++dUny89//nMaajdpmuXpXvsZhy9uAYT6MRrx+MH0nXidD5qE1DNAN3Dl6vLBt7+tNsk4qfDiJYIFncx4kQ4YzgVgoYrPDIrZd4EnHJ7kkdGen+pcJWrVGRU+3Imi0Tj3AADNpZou18M4TU/jQZmLD+HlDUaxahLl9+c0CvdIHCDl0tuFzUHbSZdmxTB9n3766fLll19ShwKHDEaNTaHiUCwzJ7Ya3Mtl/YRpzgqN3CNZ1lpTe/JuFMRmd8wGMgE4wN6wKVcAH2uCeN3CAipiRxpGehEzK9gX0InkiZPQ48RR5ZyviI5rUNI0NaX5Uqz1d995d3nv/fcIWgDEKD7FyZvRhAzNtTB30J/YNJiJcw8UBxwWFVcqXAZZTqcxBprVBmKaYzLoT7H7QfbMu6ZExjXgmQBrzYfG4HHVKDwBwsgelA3aQI0cc2OZCluzxfXHdaz1aja4jUmuDO8zfpbAo325gYsBGCVumgOoUSPh+9dUz49//OPlo48/yie+8DLhWJsFdGJrf/YpNXxuGpX7AsOLnjmfuUMyNdgc7JbmoUZbs4i/Z0LKkx2SnOttFQA0pi/6ft5e+CkcLMxIos6gt4xk3djHxsl1+5kPjs3fpVxj8WuxvqTi3Ju5vDgtsYiGJ695/GhbFMfMy+a3D/8Cwwat+p3vfGf58MMP2dgnWxhfvMQIis6sdHMzgyIdhg4DYlQaVRsso1tU/ojPuqYd1LHU98qn4t4wiGAPfvvb37IFsaNog72k9A4/yit94hiAkAY1rjzujVamKgPsdsleP85vQ6T40UcfLe+88260o1YkLsdzRg0B3gF7XZy/IGAQUFVTJh+3Xecd33/y+AnnHO2t4UTAWEk/oFQE5479KZSGwB/8vh1uJTBs5wXHhzSSI2R1p5RewekFN8Gq0Z+1J9ZBtKhSuXmUYLrVNcaAsUGD8sknn/DdW4jn9JLXj4/ONmj3+zD7aQuA90BnjrUYYkBVESmN4ojMUZ7H7neQpbkUzMZR0nkUeWthrh4UrWupq0WkPXHlRUsxYJw6eTMCGLOMwX54nt559x2mZcAgADhlBdO5AB4ANPtZRNUH55taF1UP1fcrV7amtglWYg97HeC7XFN4Luu9hl2UznHI4e8FLn6u3s7VjpSKxP37VYVHOa+m933tX3U9p/8eo3gZ3fj1HCnUsWpdaAZXfwaHn2xBfH72zAYwvtZo98ezGMZrvBJAaC9kX3eQAKHqDTpgsG5A1DZePy2ze8of9s55tVgmBzPWb8yBw/w0xy5ym7mAeDYj43ptsy0tZ9kARotS+xKWEcC43pm97EsznzoUbNCvv77H/v/uXT875vi/KkAAW/C//9//vbz3/vuluZCiS0cqTZ/R14Vbo8Bo9Vk7L8JrysbYannmvs/PCQY+/exTnTNx9jzPJ6hRwX82g8BnGBidClJrjXtba1rpiiKjzv/SyfLhdz9cPvruR2xGpMg8hLAhMsNzkwFws6nIlbeeEzpsy6c8PkX5KHQATx4TZDj6VxWClPhOZ2Es+V2cYcFyQuSj1ZvCgNCVGBVcA7Dg56DBAWQIFiLNZsc9GkI7Xv6evR0usWQyc7muBFlesrLl00//sHz2GQSrDxIYdXMf1UcGXnS8I3BO7ZJ2po29xlaiO7uLQo1Lk6G0VtV+mL3B2sczI+1jVsHVIBiGyzcbc1RKtaONc9qLCOYxLh9RjrQlAkGkPvC+sZcQaABMw5H6wDHNicSIVeDIeakB0AwgxAAEzLU2bc8MEOp7l5ss7ZkHPcfMFM9+Vp1iMqdFqMvvZFbITEDY5NRtzH2WbUs61uFo+REobaUrK9jdAwh5n0wZ9GcsdL9PVNDwRk1r4Nd9v4eY8QJQfvTjHzGw8J9dBmFUm099ZQcKBs1Abqj9DoUNLPRAZJ1GGCL43NFtZOMneiAxjmMNfDrj7AGkUim2ywgQquEooL5GG82A9EhRVLkpQNWdexNlqdJAeWGj3fkKpXvPaQT5+ehOOL6jXsGqBXHoz39EigFGEaJE0OC33ri1XEPDn6go8POwe51TC5FqgAFFDjUdIdTy7o7oCCFKpsAaYI4Q5d69e5eiRIADPB8Ed/h5dTTctJycoVb40IQd+ftjGQTvh7o6OxCZ4HssJdOD47PXb9xY/uf//DOWO7rzojtscs0FM+WeGfi3uzKaNbCxdvlbSx/4sKRzitvwPVD4VOAnY4MKnHMetoWoUzoEVYxwnkO3ULU1NGDRKhsgEWWbEM5h/HgOCgqjrwHXde6L6GBZz8AIkaFLPO2I/DcAC8b72WefUa+AdAS0O7xk2c/ZEnvUSW288/XRvSVqjY6bHEPse+f88bNa9gkPhj1y48b1ABDSNBE8Q9hJhkZOu1q/mrO2I2xRaivFJFiIdcAKFKd1oprEjs4sgPsedJqqcud0RGXR5t5KUWLfptm2yMAjnfmk5M97YhY1j/ZqjJq7VzX0JtCe1ztyGWbnTbp8egMvTZjZAkBfh+Yjbcm+pmkcaw1WPI61jZqDBFmuYt/xn322Ic9C0bXXTf1++KMfHgcQjjFmK8r/SAZhFs1noitmhY66bspRHDnJMY3Xnf+7aRDaC9B/pd7AIhkp9rr1VT/DhblFrlQ/PAgsyTwE5UeRYfw3rtU2VRMVjbYIt0RKAageTg6070xgwyUwoPDdzeO5/6OnGFoZIipm0GznrbffYrQIZ0CngP+Ouu+Li0GUniebHNHAQa2uEwudG8W8KOXyjBsEkRHmyeWf6NgHBgER2UgH1ohza05trA7hgnGuj9lT9ZorgOzjrgs71zFWXlcXLzB1A6EinCoqGJC/7tM0raw2T2AcOvjZ8KpcMUScoJeDRtc5D5e4DsHkoGLCBy4hd43Jt0MxYwD2x87H4jkDQusCdJTzFZVpXr3Wr+GW2uZU4d4VBFDp3zkuGUIDD5638BglwKDVn3F8AI137t5h6gFVLaDY/ceOm/eKI8d7s9QbALOE49pw2a1BmFkBGBAGBQF2amMozBU7Yb7U6aAANWCDEP3T8AQj0MAjBKvSRSklIgCZ1RmhBGR6oqwhPm8JQkj9h+O0XgSAJPUNGzGG9SA2pGYNlEKpmoRoTZ5HYzebnDY/bGZf6hs8mbsl6tUK0M2ASb7E4W0U6j7Bk3VgxcGaIe7Wk4WoJV2R9zYwGJqnzRxx5/zrei0sUxesOG3htB3/NuvRgEG1ORVY+BZcn/0DtX9dWCjaPsgg3LzxxtT2zfyGnXDvjCf0TL7ANQtgI9c25Q44iOuMqHHFFKTH11W3zouYOfiM/N2MZAAjI7W2mqyhuYaBVGu76s0r0V3drH7y3PT1ZLUyWFB0MLqgBNGBDopjjGt2Cpsdnd+RewVoiuL+Axg75Pz+Pb8nIIoe9M6ZAiggYkTqQZGUhF1WjNdoB1MmoFCp7daqGMaMeW92yjtbHj16vEB9j0ZJpnUPj3/skDJ84xgQNYAzGzLTiwaKYed6dkehbAOtpV12XS/WIPiERwgL33//veXD73xIFsFzSCrZ8xkncabxDedQm2rRuDCqlPP3UdcsK7x8OfPucG5wXGAnAMhQ2cCyy/MXXJv4mel0vfemE/H0uLUw3jlAIQSV+CzXAUs4W2kkc9hMvbWxMcXx4pxgBY2eKiVutsJ6FVRdfPH5Fxync+qi1FXmiDLJu3fvlBy7cvqM2lE55Gi7HFJWV0YVrfnnFlri3cC5U6wYGg2fkkmhZgiOAVJQsQFRLVJDGBcqRzCXTD1EGTCu36cf3HpaZ0dgrnn2BIEEUnehdXC1QOlxMAscXB2D+czOidx868CjX5NNt+ZDzsRYaaXjGdj0LKqvmp7BzcB6BNKxZ6FpSS/XBV92MvMU7rjnM51YT51MttjsnAK4GrwR+Lj75uDcK8NRmZv+3iX91AGCmKFC+XeMiYFNBSCdBmJ93Xyvw3cbQOlH9sMf/f3rAYQtgaC8r53whLIfI/CVYe1FkIfaI8vZt/usWILu+kams9RF/M7XKx9ZX78tlkNgYAQ5IzWM36eI0UY/NmqyCq75meWjY76pRoeY6NGj5fPPPmf0ZuFTCwe84EI5TFpTzZhAhUpcFkLMvOfhFMRh53r8J1peU3XhLvPyqZNG8T2a70GmaWE8i5veqBRU6YU8wfBImvj40b/aJwVsWpOgjOhtPFPcFPspFO51DsY7ci2F40XO/q3bby3vfuvd5e2335ZG4PR0uZqtkFUuCiePucEc4fcYFysOohpEzXtOyDq4LA4gAWuHp0zGwUwYi0sSIXiEg4bhRzUNjv1GGge/p3OCKI2d+C5JLR/NeUi385jrBmBQhYFByXFIUzEGBKZ4HR3TaENLwQoAiSBVRinxJdYAwAGOx75372tG5HgOiC11LgW0GNKpoGMkHKyFrgb21GoYLKDHiCn66iSSCgg6uqr2A9zg+Rj/xbP53nKaF5gWQyrF4NgBVD3LoQJ7iHpRIsrmVAADfA8AVmLbCMBQ7ROCZTJnXfWVQFBNV5hBsE1K/YBTRKtUZduTtm8yLS26tz7FrIy1CbZHHpO5BkXApTog5jkjawOdSNmsAMBwUGC1bHKc7R3phTTgk6zEwFynULCc4jlG7VtOvY6vuPKOIVsxAIUF1pBjPkp1g5+F8KtqXyYaDr7HMhEjMPz71wEIu8FSmcB9Z70GESPlqoiq/ekc9UAjjQZjGzhUMKGoTJOsPy6b04LQ0lxfewcgVONQJt70XgUD4wu04XOE0QxhG7NPA8w0RDh0bCrQ6sitW4kvGreVX2F91PMW8uz6giazIyajRY7w1bzeN/LpiNLCmNg5ucc/I98AN3QozMOqRIoUc/S3d1c+PLPLPbEh3Dq4veNvZNAHLyLwVdZfWL5G16JRUfu9jbK+ZnZJa88bOddINMlig5vr1yg4QzUINQGXTpbbb91myagMv0rnLl855et1GWIa6jip0XNmg812ztFaN8cUp1YqOnIXRllXiguhEwiNAQACcvtkEaK9Nd4lcv/4N0CgaPJLy/Vr10iNM0qHcA8sRTy39hBaDivKtmOmQ3QaI7ot4hm0RnRugdZ/aycOceXXX99lnT9AtedTXQ0FKL+++zXFmOcv1BuhivO8h/NdHdouwc7YPpGyL6kgr093lvQ8uaUyKz6i02WDjbppYybQaOwaQQHSaHQCqCSJQ7ws9mz2Js5UiRNJ8SxYhd4fFpLawcORV4GhgUa/AUrEHfNfe2g4Ave7y5Mzi9P3GDAO+UKtsTrn46bz2lgFlsMH1+LBBj7M6HXMSNGZjfd0BU43D4PTHSN3WdaeldQa8t62Ue51BB3YCPPstdcE1cM1RlBRbLrfyZaZ/7sf/t0xDMLNbk5mztgfqKCgc+gFObpEqF50BAd9qWQBCqt62HlntBwPDe5glEc9w/DGbVBGmqwbbxryNUuizzUBS91YFU07b8gsEA1HEwq5vNHOzwbFRqA2AMIC8QEvaKn82WefkkkwfS6qWN5ICnMdtSwDIVGT3pXHoRHv/1kLWg584ZV/XZ0f85kF7HhteT5wcfc4wNCZS46e9jR4eQSzcrBb6+OVB/kKXzA7M+6V6uzr78SEKOrKCGa8H3oHnFxe3rj1xvLB+x8sb7/79nLr5i1S62AHsAZcIqjmRCo3BFOAdAOuS6cU5WxikXQSo2lpzKXPvyATw/LF1jSoqu7VhVAdKj1mpzvwb1QMYG3C+ZIRCFDnFJL3nNes+xHIQSKNpuu28j61l84xkDW4SM0Cd2G8+xrUmCKXYVfk7rM6oEcA0PYewTUwXpxGCTAhPYK8PN4nzzGJhkp1Xb3CskiAwDbFqCi5oDbqctQXCI7wrnDXszhbhI2UInjhcdE8jVLdRTEwnyhKJqU8J8aPa7JRE0CX934R63nf1YAl5zLYKbOTeZDaxgPXa7jSwkehV5bCe1VsRi/1qn4ky0WdoIiouI05BN42YRsCxwoCdEPZQLEUBiNrtqIbS9EBVK1InYoZMPDvMyztehu08tCtlsgNJMjP5HiDBWoswMYBTxvghd8bjNTf/f3fHgYIOPzF7qJnBfoIv1jdDJRGMLH6d8tH5MLIq242V3KqQHesn8+flAe1cehGO1w7rxMfzhTKUKHQnjH+a4wYhgXpBacF2KJAaQ3klLtFFEIi1mVHkxQ1BNLGp0NEqRnyruHTsfFAQzo3C0Ee6pYREVlp7nPvDcSMByoO0DhGdmQfAL2KIfz3fHaMmBM8xB7BX31zo6BkS460UarKWTencQgMHRr5obBx9v02zznvDR109K73jJxd24k3rl9fvvXet3iI1bvvvqsugzzM54RRpp2XuvadRtteHM6kunPf18ccszkO2BY2w7nASgH1R0B6QR398McnZdKZ4WhrOiblonFP9z9A9MqTNZ885fcASpA6wBoGvY/oHPeEyNG5aPzOTYNYZRHrnjqH0mGQPQ2CoahgGY6LgIath3EA0qXl4on2jyN1PDfGqIZZOkMGY71zF+BFfRy4nqhbURSOz9JGoCdDnJ3AdN7nn1MA62ZG+aYH9lDLtEWMiorbhwjU4mC03N/BCum9KhUIYACgkoclhY4EzwzWAGuCp1JGishG37YEKR6fUuqfWXhoMEE7E2ukZEgCbMmROpVTnepqlYftNONiMGY77IZQFLXSfqnnRu1JUNMNvW3v0xUJRFoLxuI4Z/uvD+AcuM0AQmPmh31uxz60y+/ulkTAxEaU33XMQC6TvidCXT8NBLRy2jHdkMutpmXKtbkmq9hxMsS/PQYg4MS2dMMTx1onpGMNJrkI/T4cPHdc++/87kTl3+6xxRgYNPQphA6QbAKOuPqQX1IEdAGaeRmXqDBYO9U2uvrixnnBNdJQdYLHgCflufnZKOVzbloWaslogRuaB+So65lQuIR6mtoLarf84CFPxAOVi+8gQjl/eS4j4BxigEc3D3JqYbu09Y/PIIzbepJCm3ruMVL3RgidXTrZY8p2D0ED/f7V56KmSMZ7mCZ17twdH0F7Qz/wxq1by5u3bi3/7U/+m85YyKODdcKeI0k1z1kIHLBO2EL30qUUC+J6OhlQjt8ASyyTonukCFrzomg6hQ6BLIvTGs2ggQBB6nZ8F9UitWshwAQaFsGe4F73vr6nUyS9XrvmStAcSFDHBkmIki+fxtkZqEh5yiXKfRLVFp5HG/kENtReaOx2Um1NtF4RcPg4gArVDAJYEDoKiAMUIHWjA7+kPUC1zb/8y78sP/rRjwlERA8rp8sINXLe1ixk1NqB8HCXkT6pjhdjxHMDmFnEx7UWKRI+z6IOi7g20kpgkigKjfJfdliNdBzG5V4qTUMgcIf/RwYjwJF0LADS8hpON9oRVw2CKfbZXrENsx6CvTFCT1HHYrtZdQ9Mp0RHy+rIUm9RtCi2rVXIWyl3ep3uJM7GEthWxlZWVU3Msd9jt7byH3FmzZAqmM3DtAKqAwIGLLInxo61T4HXbP07rE+suXxRveP3W5zpN8yYbOQY/uZv/+Ywg/AGqhhG5xmTPU7GYYCwbkaU0XoVHA6phBo5jXThWHo45p9WrEUdewkeK8OQlFVQao4+Rua9Rt11Lvp5KNUJvl5JudRoOKlwU8tdakZ3cCRFAxkqcFOizE9GaZM2WxzlizatZ8+pfqYqGgY2/jCvDBU4NiRzfNIAaOPMm0e9jlOcbZz/zJ/9pwKEaDhUDaLnwtGlyzRhXG+9eWv51rtiC9AzH3l6pgIMXCNdxAgMPQxYEqrDjhwJk4ZnGZ1y0o7W7dThwPHWASTxGYjnzBpgLDawPj3RRlsqepXUeS3zQCJG7upyiegcND0OVwJdDkfhEr8mGo2OfGztfEnivJcvlus3rjONgrQJPqueHzo4aEwXAQThj7UH0t2oigXjFYASiDKAdhpPLIBbJIezRDrjwkUeaQ1Nh5kHnhNxenn53e9+u/z5n39Phy91LbrnyvlmL0T/+f37ALWqb/CzSTzpah4p/gX+LrCk1yda2nGAeQGoQwWIr5cnt7K19UlG6tW5Z0O2WENNmS9bUAWiFcjYkc98AebYVUgvXp4T4HktYRy2I5keKRdxxLwCCo50h4Cq2dE5I6h4rwlck/0wu4N7R7tuA8kuwo6xVca3gb5tS9YC8+1AwtfpmIHSdKlqJvQZA7eSBqmpA5d+jumEYZgJaDcAwg/+5gevARBWOoB211cFCHL2cs0dg9CJueoLHxiEykiUa+WIKgAYGI0VcMj0gssOhazFJPSUVn2Rvk79u2oqsnQxnP14Xznido9OX8AXXdWoFlg1hkHXa+mKRsvpp7Udr6MyfAdAATnhx48eKfdJp6XcvaIe11HXXVux8OtQ6/+ZkKC/9zcHEITjD/2p6yPfcaSJMl30QpE+HBCAAEWHV6/RQaEEDkZVRzmj9l3On+koHLvsnHu0mGbUDDHfZZ2GCaocKwLVCACFFAGaamfkeEGUPM++kBOiPgFR6MWLHAeuiX+DGWisVTAXcRojG/YEpY9xscnR1at0+CgZ5IFOy0tG5XhWOHAwXdVIstQQWodlYalrghv0AED55IOHavGMKooTdElEN0fl1+Ew2QEwIjFHl87Z1/eAZ+QpkHaKBMkSrHFuMRcXVSJoIAHmAIdBQXT5Dz/9h+U3v/2tGITI4Vab4X4LGB8Al07OlNPUn150SnAe6YZ6MJNSOXoHAG1+BgOAGtBI06R0VAUeuJsPdXPDsQpKq/PMyNl9BVLPYbBQ8tWlK2LdA3m9KAU1gMp7IiiJogZ3Sx33kNkgsloUwUbL7nG7hZ33e0ybOlww58kHPxX/4HtxX2W0vRYSap/Fnp+VeK6ccLOZ1bnXj62ASGGhtIxL6+rCBIzfmwEam6bej+juhzrrvhZA6JtVjEa3UPxThzxJKWifpJbAznJ8yVvgY+pwU9ugNMaIKauWonPsZeHUDVPH0usw2vO36+hc9gp4LP4IN27ToL8LMLGB4L3dNCmU4nYARvLYDC0C0DP2tKZ+jz/4LFTNPqDHZU4wXAAKqH4AvequhBJeBVCKR+SmKeh13Mz/p/37mwAIK33LJK3WjHAraQ3XkAwQHAbAwO3bby233niDjhipBfYtCAod7w6OFv8TZStL5RbSePe9buUS0wdXkPe/cEEO/bmO/K6OoTPYYU3keFT+ZiYD1zZV7D4BdkCOzvFv3OvK1asEnc+ePuU98Wy4Lxw3qHzT4mbB4ADBQDAXHQJaC+HAiuh0wzjnxQ1/4hRBRNf4rK75Io91Bgvmhkw0+tQnoBJDIAjPiO+g3fadr+4ypaGzH3Dgl1gWzieaP4WQ0/l59dOQeBGsnFN1ouZbKhHvDAwI2RP03XBVRdwf+9CpCUblhbG0wjzfKfcwzqRQuoRlm6eXyK649TSek+co4ICsOAsD76Y6YM6vmck82r0cmmTQGqGb37ndnIBHEzmbeRxp9ARKkjbls/mZaz+LLrKPE1YzOncDpXSU86jZtjPtVhj96vilBVPwM92qMVYx7wJa0z/5+/hcfMi4Idxv/mXwWCvDapBp217/zv8uIETAjb9ZpxHCHrRPEOnk1GnUsgAAIABJREFU8LvQrjzXOI76vD/4wQ+W73703WYvZoc1QRUdHq0TSe3YwlyAvYCwOerOqW9oA8bP2Khaw6B/9+Aix2mdQzbkaI9dI/qGcgf6KU/QikcvghvdI4rY62xyY0WP9licI6jhv2NxGe3Wn6Xj2NA82IAkrRdphlgz7T2FAWB1AyMWlYYx3xiCJ3wYm5/d6RbVhsPY3X/wgKwCIqtaHkgw4gU3PF9XLjMwTFvlkm1u1gButimnebzywWr09NmhJLAYRfzeAjhvRG+Uxsjo4hbg4es+38JryJH/FHAWQ+eoUdH/5SxDA1OAHgWs9Wc53ymje0TJMKByyjqoCI4BUXfLpw/54TiC2XXuFNQh1RBiV0wJS/nMMIQy3iASABLjRJSpFIAYJesRbFy9fv3Mpsmd5sI8el9hjrOaJMBGitJQTWPqOlJaVLpHoyXl+3X6JlX6Jyc5J3YejMQHBb5y7QI3rKYg2JFC3XS3nxU6jLt37iz/329+w2tD0wHAwaqGe/d5rDSWOvYCu3rGkdnQ9SBlB8fvhkUGO16SmB98Hgdk4YwHlFKqwZRz/RadXmBZp1kgvG+ed/Hs+YKqpGpna8UI9y/aj8fhVmYA/T4A4ljJFPODd4JrE0RFt0Y6Qjj7EF9WvYTBFbUrZId05oPFrwSRFLvi5zoozXbI7z+ZiGRBZYu45/I47Y00ZpRd2hl2trQGgM19ZV8KvwuDaNrL0o67MgmpiZuY9P7shN6eeA3uWS9F/rFPw3Z2DrwauuGgJl2fM6X5sl5gYBC6tER8frynrlLzDfGqajv5idE9HiAEas/Fv4EO1lH+YcbADrcItPWjMe53dD88SBet18hdF1n9qShdtGEBLmGo5qizRQe+aDrMvFekS6KBSgcCBpoOXzHVaFReN1hDi+Ux7JjLgyUDETSoxW3ufGaB05iDq4I2Rz24LO7LA4yen1EM5oYy6j74JOvmFUXI+DrPWyfbjrbOb26OMA5tE0xW5/iefRpcLvYW6vQbSfjNAjrnUu3QnF/083v+MJY+J2sGJdgc6jGirKj0xzCVXQGHO+HpmGrlkJEyeOONW6TMAcow15g3sTui9E3nu0kOfucSQ46zgq8SmWU/D4vjkFo4kfMwDY21nmd7RPMcPDMclo+BtujNEaJz8rh3Xct1b9b5wytjmeNZa8WbeykCAQprzyB0VFrD69ICNoK3EFtKK4DKDKVUsB5xP7MmikZthHv2suXzC1hkGeYZ3wmu41TJ06fPIthoWhyVib4gaPjXf/318qMf/UhpGAAVdC19+pQdDjOajzJDi/2aPkJO0dUPVROBZ8IzoNLELAXnJkoT0ya6ArmIGQffktoKjM9AwloMO0Q3tkphKDRMOMY7eksYDPtUVNwfjFUeiPb8LMEr55fdD1FdoVMr05GVwVUHVtMvoy+xPcEe64LDlb2PvMTKPkTqhu2/sf60f2ljspFRS2dzTRc2jQwV50HEgdnSDH5KwGFbsbZ3/aAqiKh6meqwM5gfRIS2K3VOPZbqn3pmoKUN8nuTNEh9J+vzQtoz/OAHf30kg/BNAoRptUAMqmoGBu++RQmv9Auj8xxAgifHNCoXSkTsgUymKeUaFdlYT1PPpQIhnXKMyR0LM08bHcu04BrCE6sgKg1L2mjd4io6o/jj3KoXY1UcV+fAyGJUsjrFFsfAEuc4teC64NRISBTlJjJQobM64tkzRjumnX3/zjBETpoGCO8jWhHUTXAIItQ8XKvDb5oUA5KM7rULlU+MBiu9UapizGZ0NPf6pMdXSySZX49eAWYEUBIojQAEYjpMiEzBlauMfE3D5vsLUGANgHPp+LfU9yhNVJ8C574dyWfeGVFxAJZ8b8FaMGouDXhUOieAYOdvJ+KI39GW1pPAUDriyNEnSJgh75hcz7era1rk3iJHg193IsRX7TgxR2Y+IAQkwGNzIOkSPC6nAcQy4DAoNUEyq2ha3QwKngmOXYdI6fMsCY6eIZgXN4L6H//9fyw3bt5guTDWNQ4P+9lP/2H5yU9+onGyekiRN8ZmtkYgTNGqGkdpIWV6D70c6vHP2ZtEh1nZmTGVESLjtRPSNUdgZl2LUifqVeEAhPbl/AW1LO+88w7XKsA+AJLGFxUq7JHSWgdTVgHmIc5rMGCsexvft/PDvvDvMCcGeBm0DJR9Xif221hpsGkTIjXCMlVOhsbJ+6EaBpUxAaA9V67ayjU8tJbu7VUDFw4aEtx0JdXzFERnA0s6YnyeDJhsb4qd6mxjSa+MPsfjrkc3J4MwsBf1/seAhKMAwpu33uwWZF2ce0bdBjve35Brj+h+cN6OTMY8f71WM/L5X2muEnk61xQ5vXSmkUdvTlCq5mqI22fDRWTuvThPlz5GVJebIhwHj7Y1gi1GHC+xCQXd5VDG2HtHlwzmBZuMZ8wXUWL8LgFBuDKlzKQdELoPpxcbxYIzGgSInkLYZmAChwRDgbu7G6E2Rzt1jSI5NNgJ2taRro9MpsNDLTxrtVUuBwABqvTJ48f8b284j98GxnQoj36NTo6ZyallY4W9ahusVwgrJ6wcPa/F0jsZvwr0rE/hdbhmeBQU58ated0LAM+OMkOkBRDxObInW8B+AWgbDFpXZabsWHiiXLEFWplXjxy0aU8ZN/XmR4R7LY42hlFHRO4I3qBWZXUvszseHKpZCEdNjEQXOT0YR0R51piwDTJSFpGCcMoK6440PKjjuH5tGlSN5HTv893I2qUuAE7bzBzTDADDPu5ZkbwBlJycGBVS2ycXlxdnmgPrZUx9OxWB94F3hHcLxw+WAc6P66kAXr8DfA+OEUCBf0dnR3ZJPLm0vPnGreV//T//i1UKWLN3v75L54o18Ytf/GL513/9V/ZwQK4f46X2IY6zrizdGETU9NzIjjqvPNqp0RE7d+41LEZDHS7p+MLpAfRgDmwP8U4BCiCwxLx6H/hwLfSq0IFlskmeN+8h/cAEmvYQhZMnAstVZJoOlb1ctJdXjEg8aMfApqC66Lc2HAxtGWzMErqNAMZ2/rIt7cucL+xJaz8iPYLdrtSh0j7cn5G2rYGSwEYRyEdgVasAxndF75GOn8bI/z9/0Qc9+syWTsG2brV24llr6+0RIGQabswyGEBUEWSZ828cIKSDDjpG6yp5cd06IF/FBo7aclONqQJTkVuRSy15oaXvI+F+nTVa02rrfPlDPtOGueWz9da7muE8rrUvoclIL3u0KyKrxhhNXHxka41aTSWB2nPk51PqBALi+ZYAAjFfjBjCgYoVkWCyizQD2YsSz12vzROUbdsoGF87swHXqVSZnJLKlVQb34wCnU0IIzH/MCL4XzZvggNj7lJAwsDJ7wqfw7HBoHI1bzL47uFuatlRl/iWRX0r3LOCRkG96B1JtugUIkDl9E3L+m9TqkgR8AwDAqeh3WvQlpiPxkapoyPmAmVmpvgNNnANRKXoEYD5oSgujBacHOhcz5WNv8EyoyMARfw/OPAoZcrIyKcvRikj5pXRH4AgABIcMwWA5R3Ff/vZvN7FaLUjlAkSqNuw8msiztIMJfuicYdRBe378pzOPvPB8XGeHvnyBasFsF4MZDGGa9eu85mfPnnCNs0Q0zotg68b6MDx3bp1i+vvy6++5HkkpMmfC7DKSelocPx3Te0Q6LHXAs4neLl8/PFHPHrcThL3RIdF6EI++/TT5ZNf/Wp58OB+9h9RX4QienO0V08ZNFAJ25R2cZICTVs1CU7rmsfnmIJCSSPFlbqYUzjSXzglIpYDh6CdoAImaHfMsRtJ2alIt6T0J8FbvNPm+HVN6UIiRRsgAKdieh8bXCRjkqxIs8avBRCCFeR9AnzqnbqUNUBuORtDzK16e+AV0BZEEIDH8wmmblZloaybVnGPLgLN9U/+e3xXrtxI7UXflKizWXbSBdGswEYVKpY0px2/31ENumZM7ggUujRG7N8KrI4GCPOIvne73lD50zGVUBy3P9MARQCJrpywaAOq5mGSh9ele5q4sgl5P7gPv7xBHGlKKtmAULu6Jaiv55dbaWfX8VKURUcmZ9lAgtsaN9rWRoLRlXOMSefL1vqkOoGKWOAFDDhqyAUX4EH99uXYMQ71OmhAIR1BuXFtZezvUxlc+kaQzo2zDqhYj+oIAzxvMKdGbND4rHTa0iw4f+koFv/WYTKiieGIfCKgOsfJQTmC7fQUWX/u/JucEq5pMGCmw44w93lhmsxc8DPp/DUmH3iD71GkFYI3gCM/j+8BIwk0XwWFmB9EpBjPw0cPlq/v3lNdeaxZiBMvn8LQn+o8iedq0uMx1byywSEdRKSaDNoMgtx1z+9vNO6ah/g/5QhgACJEhQATzuPCSJr+rvi8GrGenlV5rCoP2lHejvAT6MXZDWQEAkw6epWQT7S73xkYBAj9MP9mSyjijIOUzDogcv7iiy8oMlSpZLPeBG5x+iHuBUCGTrHQhWAMOFgKx2J/+N0PUxOC8tCHjx5SwAu2AGkGROi47Nf37kkX4eqFKBO2MDOBQNHNmBIPBGKusAH5mf6qGbDO6OK+WDvuOon3zGjeOfeX6GAJcadAOPUcoXdBq2XvbaTCsEYJXC8ISLAyIg51sliUgOKiWlm7IoqghEwX0o869Ms6H9uDmb33PqPtCt13F7UP7qVbbyn4a5UtCqCapsdsAsc3MAQwED41VIxbE7wLZEUFgyKO3GcZmecGaiL5qkHivisnVo6OO1OeJSCdMxAWKMq25XWGKgp+18C0gPQVkxBz6s9Xn+DpruP462M0CEgxHEP5CyCUt1qpcoODwYm3dT/kgIN3qACiEREDIzGwDRUYjHSMKLr1YUuk3Eo6gp9rq7pPYVD0IECShiHAQKWrko6NxUgQEa1jE8n5hQWx4lyxqTlVEoQ6uMxve/F6xc5Xev7pioPeMxhgXjngIefAEYe7p2XOWiWRzks6muTGL6eWGUQ494ln8jHAWgtKnTgvTMQetfVqwyuxmOvrfey0nRzTIIH02Wo3jth1yRvmqDoKRzxwEDhgB015GN1HnwAbtOb84zwBi/2sPQgxZC3nJdhzMxyDFf4MKSAf2yuVvfr1K43DVEQ07zE1jleA8j8YaHweZaaYYxhplMR5ncC4PkLPAPaoUGrHJyHy3cSYtN5lkAhSIBpF2+TosNfSBeoA2ARsArJWv2Pt2qjyXAvX7IeC3fPWjGQKNXpTXqnoyEmbZvYasmHCv/G7rLRIK6W1hHI9nD+Az8ApYVx4v/7jlBXGzvK+p8+igyN6PjTGDmNHmssK+jzkKZgm5Obff+993gNHpb/33nvUkSANAYbhjZtvcD7+8Ps/LN//i+/zQDT3aWB6JEoUybCF0r8ybUI5TTTd2bUVWypYMRVCxWerQ0gQH02hpCEZc7drqoKgLFIKBBhR0sk9ee06UxK4jJlLtcV2tUJbb0qBljQpGdYG9g3mDVLbKwayd9dJ+Q4zyDWVtVpv9OC6Cn/HdatTOwUoXbUVaVofPNfpr9zrppU9Yu3XVs++vg/HqgJBgZrQglgjFjodv2uzrX5XDihz8Q4B9BZr4PTTFjjwOP37ZA4mQCHvPegiZuAEn/2rH/zV8t3vHihzvP3m7bjurEnRYBsGhNCcbM0rjcKydo12eFBJTQTymF9L311viOH7foItgFBKbgQgoiSwAhvv24gGUicQegRHP3TM1iiEKM9gglRveXFJYYUi2E2NuAfC2Sh6i+fEvS8IzDjtYcfvzcKct+csNh2ddDiAiqxJQUaOWvsuRD9hzDpwEKyIjbn+hqOKs92RAw6Wo0b4uXCN+iNF4/a5EOjBsaGj35hmIB2OjQsqM3rx2/CakZBfh1JZEbEOHoJISZuYQcAF0fmI4u0kHFV4c/heTgtkNBOaDDgf0fZDSWxc22mIWk7lJjs8MfHsvGsLzLw2BHlgDUJrwLK1SGdY+OZzFAAWax18jeAICD1PVvnjYKYwYnwHQcfi+j6IyT8nxRrNkthe2KLBJQBWlBOayUmjVNay1lxstFg/TNWAfkb5YjACPBckWig7xYLxU/MQB4llmiFoevfqB8DBtZB2QumgRYQGgphL2Ku33n5r+eDbHzBtgXuBUYBjh3bAmhIwEujP8NFHHy0ffPDt5fbtNzn3v//971mxwI6Ep5cXarCCZcE4PvnkE2oXfDiYmZIapcqpaM9pWpqzqixMbz3rv5oDGz9jkIX5wvrBM2CcOGQKrAnWn22R31P929erglOsJYAkMAcujzQoN/hR904xaJh/nNnBZ4tAg+uKB4CBDWxiWLOreA9mhDyGtIUmeUJ7XQHCbOy9QzMbEH07IjXmUk7JDFrzO9nNBpgUmYdeKTpten/43q4soQA3AoQKEByEJaMXbavTFhwSKpYURV9VMMkzDQui2ld/NxsgjfvT27OmNaouYRCRHg0QRgZh3mVC+d/8k6KO2B6TNEC3JSISqiK9VZMjX36WZuiAwhYI6ZFj3r9EkdxcVeRYQUWpbS8POrS8bcyC0hkSXklwFyU3AYFBuRvFEzxENUPNlyVbMfS+t9FxxGCqDO7SzIadXKO/NC+mxutGMbviE9pMUztv501g9oMOKTr7uWysljt6fK3sK0Q4ATRY2x90r0vcvMAJfy5p7lwpwPQNarvT8bWNrk3SerdrYwctV8AfGYcQfdZTLc2CaA6b4FEAClRrO1zHn7HT41yzjA3pBkUyLTJGRB8RT6wpGUp0BHxCwHLzxg06fjIkccqhKhmuyJld0pHIpohTuBmbnwAyRHLqXSBDyftEOaEZpXQc3IuO+kqtdqmaIWDkAUKO7lpvfs6vc6Ger04AFdU3UUbm6DNTHQbV/L3nXGwCHRfBoEWVWjfOeQsgPFnu3btPLQAcENogo4wU14deACBdh01dzajwk19+Iv1LnDaJq+JsCFwXjh9phXffeXf5t3/7twU96H3AmdednQWABcaIeUeqgZUABVDb2WT1TKGRDeq3gUEACrN5AxPgkt3aRAlnMEAk++TJY6ZBrD1pts009SpRnkGDOzUCFGDOsI54ZkIRGSrCvkSgB7CMd+DUE96b0mAC4I6aKyvl8fTOuR+Tf7cK+CYT5pSewWETNyssgN4lD+QK8NpspFZwteGZFo5W3L3gsZVKulNtq6SyHqyUXw5VB2YceMeJ1qDpBcZx9Q/ej1/XyiAgwLTtXgKrbv2163X6iQ2QcDRAEFTsXGKHEZLKH/P6Rs+mj+JCawYsePsU8/T34+2HL239u3d67bp1gSadlYhK13fZlR1rpfr4MzMKQ6tO/bxNkPOM7fNu1qIFkDkuP293PdGLzoulYw5REhcJx90Mez0WWnPVRFOVzZBmQEjfdH+e/FZr+zMVYR2DNRStzhbjIIsQDpcOJSoFqnbBP7OB8cKsKYzqlP2erFNwagL3MwDB8FLLEBGv5xTPbsCS69ZlUUEFZ7rKgk7m+/EsrqCIA1uiUZLnk6ApytwqHer1iTH7WSwG9M+kF8FJe89pfOH03YIXpzG+eftNfheKcub/I01E58/ccUTjzt076ocBADtUWCvvAadtWFVTenzk7+N9SQyrsdvgAqBRc8HcrqJSiWCbbU3AW5rQWHsjVkdaBpci+rwGC+kYBUeL7+xAWDoR1o6NGEymlC5eoqOHYwcVjgga64TppXv3tA6D+nfUCqeGfYPDmLS/JdbENfC/b33rWwv0I7/+9a+X+/fvlRJBfcdHQmMO8jyKMMpmQCqNXucmGcAwDL2kqrVz79xB6j1HRxZOpAQ1BJhxBoVTH1qTATiK8W6skn7v9WmQLmExSnQlmmWKzD1I4iAuCo6fQ3SsU2Sb+A/slASAaYdLHt9pwPqc6Tv6H+a/dJ2WFhZ7EG3BsZ9CE+SeNvi9xbQGVMYC1kRJkxHH3rtqKfpYVHvW3qFAajrdSG/0aYfiH4u/y2sE81Afc6T2q14mPzfgOt5zcvCSyQKBs2BPvfAmIMGgpD5TuJW89SsABEfkQZVN82YthyQ8YUS1nVJojt8UXJ3kPm+2BxA65z04627dJYvRp0sqeOBmiPIXphpEaTTAWSsmopSxf16DG89VmzuzCCnmC3EJabooxalRfzWa9RlnNKXTDkkddqBM7wMblykFKpTl0KvTNSp2RG0AYLEk2YqYrAairO5vCnY7ZnxGtFxLcfidm3r03NWcfxMR9qAtwUOcUMdDgdwSWKFbikNltGVM8SvTnka6rNN2f4ZypHYao2pUaSDbkcam6131IVBQ1i6PNxaV77mg4Cta9prhgdMCNYw0y+23brOE0lUQtIuh68A8SqkuhmI0VCpV1fyb2k5j7BKvaGqTuVA0amI/AHRNRAdHVUnUPykchbL9Epo2qZzSLIpLU80SNYCkefe+MfCwI+E4B4OZLE4AI7ZfJhujNeecrgFLRpuF1QPgQktjzB3FepFeotO4eDHLbA128HM4Ou6DsxfLQ3QRxfu4coXTYCB3//4DihH9vPgM5s4CY4MrpLbqDJpi9tLoAoc0Ol4iTRfE2SsnClb7lO8oAILBeBUUGrwrmHhJ0WmXbgq6v1Yi4NnAhnheAbrY2yNYKXfWxJy5f4fBld8J1nsKGIM9MpB29Y0dvvb9OhDE9WtQpLWugMC6JrxYgxBotCh8jZN3nfJRqi6sYmhNvIaq3fPeSnax9H8xyK1pQ+/1FA3iLvkuCnjGD/H/A0Q2DdfhtEHdgwIR+fbI6PlnlQQx+GmO3z0p1vczMGnMRftMBS0UKR6jQagvFYPvTkwcWIO6cUdHtufkG1hoG2Z03L2zb/mGygjMGiqNEX3PhvRG0ePwIvWYkzaLvFvm8sMA9zi/Aanuc04zRKSWlGuAEFbhRy2z76/Is7ITG+MdxDJ04I7GYnO13gxOZ0Sfg7LAU5AXkw2nhB4JcDhp6EOdzg3gDoSF0fAmt7PNvhD1yFUwEEXYU9eG8rnNUNRKigRQ0UjGDrMJ3YaYpNQ5c+3ieWA8inrfhse9+uXwVBaoNEewLhdxyqBKNU01hgKiLE09lyso7JzssFtOVycAskfEk8c0ijDIMLDdPonojekBlmRZjCWn5w3t9SLMGSWKgdmodYjGS9QaxGL1c4qNEWh0NJysTnxWJkr5XhhTXIe9AOIdWiBWq1TMFDgfbJ2EUx0ETFGK2NaMzw4RuMJ1OXdxJLHLZencnz5j+SFSDXDmAGXUe0TTIdwH98D3UQ6IncMqkbOzFEbCKYIuZxloADin4PA7jQvnSDxOwKazSx7Ge1IA4H3QGffS/Cx/PojTOkRW/pH5+c7o7Wu5DITNFBKgYx1HRYmBHS4JUIjqDXzWB3DV562aJVfReI1g7UMzBGaF4CBaup9cPon+IGjx3RqKdWt/pI+HCagAwUGR9RZcmy7BRaqUvUakuXLlCIFmHHjlvWc20kC2S4WyEVQ788SAJH0KF00bZHPEwfKWdLS+KzDGNUgbQlgisBDpuMYCbL39/ucJEjIQaYCBn/QejfvV0XpMsztlYGNGYmAaXgsg2IiMzp6OdThzmz9LJmEY4kjJW8ozAo7h++v7NvqppTrWjMQKgEwWqp1PggPfu5TSeeN0IrkhfBStL/YB0XpNXWAc3rTjQm3Rf19tMY3WC4tjup7RdIhysGgQ2VSFuJsiYWHIiMZhTqTlfWpda5biDaazANRgxd+zsfER045MHR3Daro5kWlnApZy1PFsDWl+DBCieVGAJq8gRyVOn7hREJ0Iqe0oCaro/aUoatPU3qx2JtQ6ROc+0I9OLI+ncVaE7ahNuU5bEdGf6nsvui/BWjTQsq6EkQxSBZHvlZDyNNZHUKAGelGiy/kJYVU2sYoKnBp5mUbVGlSPiw6wD7Xarkn3Hq6fp9HOeziN0ko5XeFAQxz/w1jseDSfhfL23itMgqO6Fi26vTPu514Zrd+/+xyg6gC6AwA362PUHhwVIEuCWwM2Oc0Q8uHsiaioUTSMlsu6LwSPbqiEShtrDqw/QBdGt5TG3/guwVf8cUBR10vVE3VAouo5zBXXKrCYr9wvyQ6umVC3VxYIa3uw2mbMi3uDeI9j7D5/xXOEzxHs4oyQ6H0AX4S5OH8hYODjm2WDpH8xQLGI2S2NvW+33KKSuMF6RPopmUZSnrI/ACeu2mGZJzpYEvihzFG2XzakHVbnuRtZU+4Zn30T8+x3ZltVU+gJAsIpJwvC9It1ZirLziCiUP6p3Vk58/WsdGsnAjCnng1U1t8S31YbnBlEjCmMev0aEHiMR5U5vnX7rdjckYOX109lrnmiWZQ+zS/pau25gsH3Z9eboH60CEHix5nntzq1BtjlnIUGEPqUh+5XQEbJ3+ekDVoKj1GOu8/3t0dr9HgzDAINmQuj2lkqWgMvZUhq06V22EyNFu3s+Hcc7ZsRZoixaNijG2OCj9iAmj5tDoAYnh/f9SbXoGAguPlDUIbF534GjLhQEhd5akNZz4v/baTvs+gNHvKAlyGqqhvS7AMdD5sBRaQbVGB38l7kyFN1HGV0oPAh5ILxqDXqyo3rOGM3zMF78M+9UexsExxWB2dgUDIsNaIEjas+B5cXnHIIDQIOTTJQRKTFOvSLF5jnBoireVxHVDaUTGvUZl02VMkyafZoIEPR7sN2uvWsEIlGtxqOytAwIkWDo2hCY30HwSTFmdHpM/ZB6mJINiDa07kLaobEi7FhEv6ALcscsZ1qCEoNPvE3nttCQGkSRLlacAhwABYCc8oS0wsXlhtxXDb2wx8+/cOCw5XQDEl/GuEPJskCUKQHcBQ2lPwYL5T6bIr24iXTC24njrHgfwAg1mv4fSQ4YA7FQK40j6qOqNqpzBBt0c+xI2SqYuc2BrXFMXGvYARNa3OnFxbSoAD7EZVDmGMAWoEszS2emxU/7CwovYaZH++vcAz8nU8ZxQDZjyCOGjeI9jreAgf+eQ0oXUJJkO6jUHieBnqNCOQ4lWjmqqaDqwM0A1W9iVu/m3UwwPQScTMlpSbqxS14AAAgAElEQVT0knyEd+3x0Dvy/gnFeESaoAig8zt5KFVdm22pylfEynVlTNGn9PdufWtkm1UxNP5Z/axcv7ZsPopBeOv225krmjnxXplbEO2USpvR4z3Y6O6RH9/QDBR2oQKFkigfgiY73pKbKuhcCFe/q8ZUrlTgpCreO8aho7ZiE8eG9iKWc62CP+XmGyCQUa2Lhw6eFFgDaDbUyMEzdxy1vmxQA+ov1PCO/GpU55RFdQRmGRJlp+jMtdI9C6Lrqbe/WBBF7Zyf2re/6AC4/Ie21RlxRsMfahzKWRCNUVFFQ/Z2iLeKVqvKr6IyI4BMqOD94v2+Kq3tvCCcAiI/XOH61ess9cLGkqOOXH9GLWqhbDrSgV5r1d0fo8z38BzGV+BDuVyp3/E/056ck3B4cDwYL/onMOKF5iDmxHoQp0YkAGytsA2AVyfvUZchAaZMUJvjundr9Os5qw4P8+y2z3bgbIeM1BOiIbe9jR4idip4PqvJZem0qfkNNGQ6OxOACCqcwCbKIumcgomgqPblC56gCCEnfg6HhnlkD4Rn+m+8n8tXoMZH+SwqFJ4td+/c1TtFA6tTNQhy6oLOMipkTLv7HTkFyDlDuWt090T1ApoK4btIc/jZ23wpcS5n0o5JrxVNY/o1tTGZOY+GPTXRLENUAEJlShU5ap/Fmy7OyYKQGmQ4BWO2sdv/vISPdo5mQTwJtvV9gC6FTc2itJoapzgsynubl7GY80B6IRZGsq62Gfjb/UGsI+D78ymT4YB9bzyHRZdbrAXtTNj0/O/YH41BECiq0bXF0K5SGf3E2hmHZmAQDo4Re7y5AV1YWtRE61XP0ukOyvXJgoXoeAoSIpVQwZjHo7+1iI4SKRIgjBFeabTTPVH3uV7YWD+3JdapL8yfT0YhLzAHC+OGQ5QrZxPufXDEWhTxx5uulBe1qKod4Uw6ynlzf79cR2hR+aba9xt3ccMNG3IZZzeJcZtjVQmYHuP94PiiDS2+m6e9haHPjejSmqCuCLqjgZMV6XjgVI0H86E5h16h5Z+dc8vIwW1LJ70UuJnC7tdujM3YoHlMAImgqt0GunaprKyJ58b2xAvecy/m3k12WjfD2lfCjkYAS5EG30OAH4wbuWc6m4sXWE9+88ZNOlBHie4f4XdWI1s/H8aE6KlS8v4cBHMwqO6NgWu7AZTYE4gPFdnaycGY8p0XQ5teYTxIJxwGnsVqfaWDTmmUQcWONtkHEtUyz9gh9jwRNWp95npnF0m9R5xiiKjdKnfMn/PffncEw2Z5wukrxeQyxmCekkWTQ0VEW8cGR4/3yqOq0e3v4aPl8y8+Z0RPhitYLzh+3PPxYzVEwvOTqbmwqMXwycny9dfqfOgeEmJl1Irb64CdGbGHASKeo+b/SZ5lIReso9HVMvxMhx4F+MD6N8DHemN7abIv0m1VfdHakUTTH+41VeLgj8stM7otX/TerWbMditTXmYnCjgvppTBB4mkYNsMhvC1F9EwS1ocBQl2yl4XZvC8H3Sc+dU8HwPXtbAVtmv3T9hrum46ZjVn87qxNsTX0Bh8doSCEwuHbU+UxgPobJ05yZzGWrS40YLTLCWN1KDTnbY3bZMQvqweJ+1h0SOYiUwdgvVaoUvQlbbPYeDvCxPQpQqy2ZSAqP0P2Q9ohXD2SDCWM1BqHyhM2caAa/3lX/3lYZFiBQjprAvV1RmXkhfXZxtj0DnkOq3paPtSxhUw6LISIxNR76MRWUg56iJqhOqx28BVKTqdYwEDDXlrIZryNXVFxOr2uTEPmQeMhd5Hb7HUohmQu+Q1RylzRCMQ9JqpbtC++IPNkGU5FgzGCWc0Rlky1qoxKrLvX4MAFXPmQUd2UbuZloK6m+OMxlJCktma1At7ZA4IjHjCYDkbPgYjI6q0TV1D+LeUyY2JkCFpTgeRnESFyP+3Mi4DT+EYPSNzlnQAoPtf0omwiiDqvI28/T6SzRgEo76/HR/nBCWCcPpPn/M+XisWx7Wjl3VWAu7R5a9NTxh4lfSZP1srKfRIapzjfZNOiWKx9kfPY3FjLZVt+oEa3VSnZnCKDocACY7WDcAwd+rgqPHI2QsIeD4Z5eOEy4hyteZkKmzgnU9G9O9uifgO0kT44ldf3VkePXzIf4PFQhoUAs/PPv+M7ZiR0snIKc6BwHzloUJRfmnNB2r/MQyyFMFe2NhyzV1YeC6ImmWd5yFZFu4aUPr6+M7Vq9cIOp89f7p8+cWXTEnUqigDVueqqb6PKhzMiVX1eHOstIjzMLzn0u5muqulisxKKUbWnpxGuo10yHXj9cG0wbVr3BtffflViuxgFwFqE5SGPkuRtlwd5hN7yfMDZ6zmQ41lmwGFdBmF8vY6ruytbbEBniscfFw17XCAU9uI6k8ongVgiKO1DYTNMnJsjmIDWFVdUrK+gy00ALDDZ6aptEjunHzmDbT8/btswxwTNPuOQQiUDvyTPRDMIIkVA7jG/dEqnIFHgPMKa8Lk6zoDy/EXf/kXhwHC22+9k3OVMXd5zyUOH3LnxWmvw/umYYiXUemOnkbrjVvv1EoerhpBA5VkEBqNz4USJTH670bjeL59WmEuqqLuVL5OJ+FZlJMHwxAhhxsq6tYqKJHwRUY7hX2FVncXRwzMnQVN6TdbIMNewU4aHNfEh7DPKJvfzUjf5z+0a3Rlhy10p97AG6LSk0bhAn6laVHSnKXh0NDBsgIsrksucP0h8xE9A0jJ+r3i5yG26za7Kc8AHQJ77mOgq9opJWBDaoLRqih6C+NgxEj387jY6NBmFqZUhXTGbSgntQHHGB3VV8dnWt/iSKWf9GIssDLFj3Hhc3ReBVA52qPRDcW2n7NG7fW9eMx5ryJe5HtdHTEcp/ZFnwtc107XQi88l/szgF3IZlWR/nCNvIGD9AgSgPK7p+rtQPaE3SYFKOicA+hij1CDgJx+pLGcesE1eKrjqcp3Ec27sgLXgLgQ10dZojUE+I6i/2iJfXKyvP322zSmYBEo1Ivjgq2QB1Mg4eOjnAOLOu2WLdY1c2Kng/E9fKTvrfushH0voMT76crVK2S0oC9CAyQ2QYqzKQ6BBO/TFmFXxX00ZzM4j6gRgADvEnOFsYIFgJPHO0JaB+AI86I0n87bMIiSWLOhDdhHlztavDi2MZ4DhOYzlLbS/mWoORw/b22D15H3GIMOMCKpm2lMWGMg25k4nFOWUfbVYtxPIew1o2ubG2FGXzoqD9s/Vq1cyLRP+1wDBVESWSrBZvNjkOe/ne6oICLNZYBMPB/6VaRfig+0kZYS7dcBCO+89U4lAsKI98xAHdRmu+TCLowGdgYIqhPowEMFAoVe0kLKXEEurPYjLZSMCMNpWYBiJ1gdqhGxbymxHZTwAgletD7uuBr9anCT+nGdfpQA0S3whD4BlepsVSVRTiashEy8XTkXXCQ61w0IHff1phDX3No0V7EWqcM4eKgzPp6v1BKEmDLzd7H5DLSMtmLC6JCjuYoOd4qWwGzTHNGuUyMRNXegx/eJeXK1hm9jetiUL6+JdrxxBkOWL8ahPnhmvyM/pyN308OxwCOtJualAsa6Lr0uMr1QEoQNTAUzQ4Au9bwiaGkIlKtW3h1r0Skg5xDNFNT349x45mWj5lqCMr0TGZH2vmiWXJIa4NJnfyg8bCVaCTaKwNXf9+l8Npb1PV6iWLYY+ZcvsxERjJQrBQQ0ZFYIroNhqAJSg28L7czOGcxgPK4CsrP2Hsr59ZHPAcK8tsQcKU2COYdjpEO7fCoNT5xjQSCBZkDsSnkmEV8c5kPWAOmFOKzJSnq8U+xniCIh/MWYqqZhBqhbKSLe37JcunBpuXZdJa9gJXAvt+uuqc+agrOdq0xBXZcWrLKd9+VTCjl90JVAqM67AEgCEMB7xR+/X8wFdRzR5Ms9Lfzu/FzYAg6gUFqrTqhXmPZhOuKIP2ZVHEB5DL6H9TwGrBJsI1XX9rfYz+jtEdG6QZv2sPRe1ImU/i7cI8nWaC3rOPJowFTpuLBd3o/jozXwX35Tgs3WaKkyPPGGzTCUtH0Cg9C2pEYmhNLVdnKdxri7Ji0GCKEz4PN1QsjWZ+VIBuFtOa/CAnTO29Rz/t3OEx8TASORYEFgBRjVQY0/H39n4NDGs6FPKA6LiyQa7fi5RtCQTq3S9czHRrc95rrkiPQShKa98ARW9H+yFtYH05yKQah01OgUnQbwxrCxz7K2UuVgusmAxHORefosT+sZnRS48NhcpUxyQUezqEovG/g5CtK7CAda8qt9Lr5UbcjD8E34+fK95abpq0l4r1g0cNKm471RzETQkIGCZmpBOWK/FwjhkpUIOruJe8xylJxkthh2xzLlj51uqWdtmA0wmDMdRdDJ2vCWeqniVjvbup7tADknFqMXnYXFkNUIeR25vrvmqZseJI53JiOlQ5jwOVLYkeeWFWyVDx5XW8/qBeAxwBmevUDba7EBfo8WcAqISLiK+8ERw7mybDCO/Mbvn+O/49heAfUQ6Jb1R5YAByCBYUCHydDtYIxwEHzmC8EYFUCMa+kMBxm8dCKdjqPlbF1pgrlEZQRTQ6F9MLByFM2jo6MaxcwEUyAoBY75MJg126IDysRazP4koByCheosfRSzvz9mwG1zCBQdcRfgZ3AKpw2GgCxoHGZmMG2QhvdEdiaCIVejuM8EO7C+OCe4wtwprSf9DgF6BCsEHjhvJXqpeOzOldvGeA16/iqL5NRiFVP7nZhNYzoDAOG5Ur0ja1iBvvdflucOwSL0Ch6HgxFXL9ip1z280ofEixAMWXnBrGKjHQu7mMDOAVOA+8ZW1D4KCiYaQHAw0Eo2cT0CKNjGOJWzAhbemSBBbyRBQunSiPNLDjZKevutLYCw7pBYS/66qVnPUe6RfbChLwoIlIvExJqS7Rxs2WB2nkbdCQQcacclgdgJHKL3OCesKG85xkLRu9RMSvJoi5vH8zaAhOuYZrXBYd1uNB3i+ymnKcowt++7JLLOkfNIbT6ChjPVzwqDyOvG+xeToKjS59f74Bs8l3UMVUzlee9BghkYpR1cHuR5beWQsegCpZL294IMJsnfaZG2I98WadsgGHTMonexLDGeoK3pHHD0LI8Ndg1+Y4+8IdgNL4R47BkRVQM2HBiyGQcChJOLjO5Ms9YlmVGJkF+XAjKQ0fWDKo81HK870GR46tgdfl6XehrQiplRCiRZgSgR9MYyaDGD5HliVAdh5At1G6yMgIxyf6aFlffutOj74bqdUQtKAGN2hz0DBpXCttMW0WSI8xr7R2dRLFmHz86Ooc1wRGdjyHVDNb32nvcqfg4NSjqaIjJ78803lw8//JBpjC8+/1yHeS3SJMDB+xAup7rM9OAZcV+uw5MTsgh2gBg/BYrPIESNsy+K3sIg2EwRAEKmCKOBkrU+ZlNaQBECXJ+kmQK1iGjxjlztVFgrp5RYjYGy3kuqmsEYvDd9tgZ+hvVIkJBrXx0LuS5QaRNiT3zWx5iTWWjZBGp3kA5x2gbVHdDeuNOhAzKC0RJoql21qo9k92Sfmi0B86D+C3hHYHwskMw9m11UWyMin7XRWBG0ixaAMWhpkTjWSxFom2KP99l8j5ZVBoRMCYn9S/sYficDthEFxrPb3uVZHdZUJYsXNsDljzGmZIurwLGmc0uaVvdoadYEi8OYBFBKfbb/M9bb9/7ie0cChCE9YGOYFFdhD8afjfPkxVB/bkM4/q3PtPy2/lW0jxullGvD7es0Gt90pAFeM/ymlWpe1hY7R9QptEkDh+FqNedCfB5LX24XwGcATi1i830aZWyQMtJWNgq8f2ELGGmVPve52LuJtyOPSLpqFMrndG9h4Sog7H/eOpKt90a8Q6uUkwGRsXevBdwBBhfRCX7u8kCvmREgiBpsOcZ0lt5s0Q2xiyIplupTZHaiNYLFekDUgwgJD26nR8OapaVC7pnGqXPmPUOhqFMxrVSTZiA2YqMaq24j4o/SB9/Gls4nDKuNXt1X7QwGCQ89b9TPsIXxy+UZasmj4qbVPkcVDZzPeVv/7D0RUYaNjYxsGDPS/QAWckZujHQljrrm6YdxdsTDh4+WR48ecg4hLIRjQStj6G08/3Rm0ZqahtlCrwBBjqpt6JlHLlU7BmQYK97fn/zJnyzvvPvOcufuneXX//JrAQOc5fAMDa4EVPB+oTPA3xzb1WtyKJm1FGNoB4A5Q6SJ6wAoCCw8ywY+vOb52YI5uH79Brs9KhXWNyhjJBgdO3NNJP1Y1hqfXevIc8Xouex5r3M4wxs3bi7XruHgJVT5QFioVt0YM8uDUeUR6QSBIH0O/8M7IZA8OeXYMC+YY18re4fw/arvAQ+9OhcoN32fViyYncq0Kv0VvTKi7NcBgUpQT5gGwV7FvGKtutkVxkutCOxEMErpBK0JslAWgu6wa2RLIr1pxlSAGGs5wKX1aQGAvaYNAgkSSmtFBi+Dkx+lCNolxRFHmoo/dXfF8nv59+jCmOkD30fvziyoTU5epytt7YX/1eZ09kf/SObS1/ze9//8eIBQHYwMbKODm3HqWYW1dqAQLnbuaav1XedNm62d9VaooKESbesUgx2nNldDF/mfQWc6f71CW8WJw+Fae0DDxR7upXSHizMieC+a2knP5YLGGwXJVHCwAjgxV3bOdizpOCuIspaBjrfpJUgpM6/Y5oi0IY1TRO8sjVNzjXqP6nzMGvARBlEy3q4dUm4cOPHIZXtTCmn4DavzoHOepDgxpxcWGp3Wha1WNpTVYZ1E6bdu9sqOMZFyNOhROkasUaQjlQqKkjsbHdOUjE6DLk87ctEMSgi2RlQUgks79Uo9WxkvWr/xfI6eWuqrpSgqMKzaDo+VxteNhgqtqd0hC2knb4OpHNhaf1AfZZXGi7SZmukocmu6BwEMLo3oSQAgglSCgRxSDaDwMW4cUIXI+qs7XyldEGmDLnWHXgml34PfqctVTe/i546SAe58bDGaUOE+ON3xyy+/XL786kuOBesN9+S7RQojjgknsxYHYhFgQEgZ1UBmTTw+ACFWapyhsZLy8wCVUPFzvURKAffCZwB+XfHg6g47de+xHvAVWxJR7f/P3rvF/Lpvd13PO89zzbX32uu497bdpaXGICj1wsSYcFOxTQi1IvXCABfQCjEl8RjxykQSQSooRJMiFqQYaTTWUxuICA3dZwUSE4mJeFGspbvsvQ57r7nWmuf5TvP9ju9n/Mbz/P+ze9Z44cV+d1ff+f4Pz/N7fodx+I7vGIPsJNpN15ovuar3S0Yp/VYNl24XGuNnoAeL4OfHFVKUwRvvXvJN4xI5UnOgeg+Wc6n0yfPreyKlavHnHvC6C4V9pverAJkUvYywGY4CqUPgEybA6HRthWtXO1VSr1NzA/T14UNluDzssueFEhca4MJo12+4f0ifmxCX2TcTVd5BIn7ikgtwRypDrc7pMdR+dFr67EQt8b06hQvWLxtg1byZCp4TayLocD79uuuFpFIjIYpGH2bdjRrJTmcceEbtoAxDf8r9L37p14AgZNrqps81EJbFshTzCDYMZbs3Hn4V7gDoxFCq89ptrR3Y5PbeUZxWHqc/5QFX8ZsWznMh+VIWGyW7PMgKIQA3sdG4btDmWLn7EsY9n8NDQUjM9+Y8PXczgvlBXgwZ0AdUijAFTRCmvM6krHjp6HfesOZS5BA5eyYH1Dg+VULCYZw0aopAlvDEMjgSrGoj1zp1PH48BwbHbhVHbQsEK8VpSH1yBbiwkTEUqhLkaneMQOiYZPKpSxgf+CYjZEG4p657bn+VlTDbRe9SU+P1EselRgFXwkOfkCgCeS/gSphBrsNoAM2yQeQ+H+K+FDJQe7SUo5QchgwkzxYUCkEJTUkp7qUcVdwoPPORskUoDZIlELfRnSATJnwFxZESkocKEY/QAXFsG+x4TCAI5HtnojiPGKfmSEjhPyqou9IT13N6DpO6iPesSxVPoZQkBovRhBAGTW58kDbHqTdCmAeDCWOyCXYXe0geaHmXTpvqgCA/cA2kXEk9Y3/TwrvRMmLVHbsuNFMkSVWKtMcsxybNw0BfCHV2JpaNgNoPaiEtwun9j+418lP7IWnQoxosnBbQB31mZl+xfvAvqE64ZFxd08jTsyp+xLMW2bQUKbJX78095X2bWhY2Znw+903educ/92qDOsasjXWMgOy5yq6pfhM2fpLRxPlZOiOmN2TIUa32HEpoRX+oqnj8u8ZThgCZZDqvhWSklHzXUVgOXRtAI1xjRGeEPpdh0ASENl4SdPDzfumFDIRPvBZTZCn6cwYCqYPt/RwbDJ3R0Dsj4Wg8lCkSKyj3HkbA0Ujw3+6KuIgXrbSmS3687iwG45XDEgkEdoids8Gb1DfjtsDKgy3OwZmwNB5cKfy9ccRz8TwYBScefS/6Gfb5eKY2jXaFopaHJ0FeHRcvV1nmVqiL+sFh6N+NvWa+3EhopQzh+e9LIQ+BZ6JoylQ3QlLcCSrTARWb8xE4bhpJk/jXWR85RL6G+yBTDTLE0Cywrt2QMa20M6coGgu3Os3tdLcgzAFeHAdSV6v7IF3wFrmwDilozfE5yqga3JGG/BaUb7RhkIjm3tAa0kp6CrAlWIs7oVEu46KMJNoX20gTqq55yzkC+ah135cVt9L1mle2jNaDFs0tBIdSd1op/QpSnIfYNSEcKWD3UUgFSIRhw+lZk2aWUwgLBGmEPmRwSbkrpECmi86ROAiC2hUvp5a/5kCf1XNCxDNCmGZRqs6YIF7F9pVDH0GN0WQlR3GhZNKwD4yiZX6Axye51AZDYv8ouGP4CPifCp149Iyl4u5F5rUXfeOG/2sS4SZiqJCfQj31PHqu7uqpPiAmZ1b1T2coYDwGcoezspNLUa5Xr6WhWObGhkpql5QTVcq+w6KHUJ9k5CppvCcaus8CPLHsYX2esAPGwVFO9t+HbKkysAoV4Ez7mbohWhXCEtLSHSNTAI8qp13H5VwRqjYCSqmAjtR4RlGjoPsz3HA0ILxW0WGNhu5SKM+HKvaOhvGeRUoENZhZFZE5pJe+uIEwwgEMdAc9Bq+nJ30/0Dm3/cBnGPq6Ny2KExOhhelUcnjewavLAxqhh7PxfaasbI+lPAO/4oGPksHTyLDikCCSAMWOCAph4Zm0rZlK58wHyI8Q++rm+2sc56XTHlMlaTd0SJuz8tWs1naoXTCQBR2q3YFgFmxg7YscsTZu1ZpYttfCoQUqTC50Bit4Wdb71Dr2xbG7I/FjWvwa/UlsESGIB9OZDRgVx4JQKUnNqPDkJhSOIGiiV4w03yOOEsRNDI8VQxz7LAVoxtI0ydQQ6Y0b1fI5ynB+DsHFWFDaU8AdiZ3M34nQi0FKnrz2ImWwURIzpt8cjIGQ1d4WCTPGWFlqvU85g12jIXCnvEX9YMyZ4S8+wcjZnwKvQxPZ70JPRB6UINZzSXkKVdC/tQby4CSoP/row4QCCtpWCptCU1LONOsCfqYTKAWxrGj9OJWuKGNBDo2+z/msIkcU46pCM9ofIlQKgcDQMlQ/vFihCnhtMiyqVsDVKkF8tWByj2vwYXQ9IxEuLKUQRaVbOkVy7HshINUfIdB9sxzrb+pIVDijIH391vWv36wGa7qeQh537lQ1SYxijB+t68c+9jGTOJXZ8Iu/+IsOAbkglJyG9GJw6OXyskpaJ/OhrrVaqXdacfqlQBQ0MhPuC2Xg9zKoTgayqUN9KRkMUmU+EKmMSRkv1Kf4E4zlHKoMErE89RXSDvhfg0goAkMI7swpalE8IMuJgwO65xQRWtgTAnscA/lpz37HRzhgkyj0kenEtXbIAOAAPKd6uDzi/vcyJAYXbdu2L7wIB8F1EDqsUJdaE0IMNwS2M7HwKRSP/56Kv1QOiEE863mvA3qwHNj12R5bF33Z39H3ew6xsTVD7jmVOhYv/INJkuKwEFdWms20srnnkTiGwn3e/ExF0UbZIIPOfPPjBq25WfF1C/AQdGxIRdmv+Hd52efiMCh74DWeB04HK1+1FMqil2CChW6hGV4BcXyEOoLWjPykWvY+mAag1izV2KYyAMVxKt1oTIKg0bVMJjMxbHEhzIIH5RkNglBkrMlcIyrslWCrsrMd/071x2tihSdLpec5jPs+hGHfH2PPZeCuYi0+9OlxMOMXc62nQFhsdbG1i4muOZGBQExcisie7Kh54TlSjQoKQZGdMIRUj11C2e1CZzpqKY6K10pZl7DG+6JcdWUeKBRSHJdWajFIXGjJqYkKd2zmDbz5xpsuYqRmS6qSKILju+++48I98AdwVCrTQIoZUmb6muQ5KOOsP/GMUeC6hsmG9x9UUaZUVYTToetKOWncwM0671LyUuCNhF6WkoO3AJdhyswyIupZlRmgipTE+vU9ETeVGaB1VgW8u3c/cKx9ersQ7ZxaeeNmh7D0uq4pEiglvfUsqoj48p07zSuyZ6+eFbdubm+9+eb25ptvesy/8Au/sL399tvx+ot8SAx/Oj0OgYRvAAJEloDmCOSDcwi/y2eI6oWjXgf7qxAE7aVLG2/UyNA1QQr2tQ8SQomhV6hSspYSGjxRnmSchFBr2RjjYlfFMFybmdbIHiIVFCcG/pT3ywhRBysoxXzU8yjuEBJ7nCjxfOcsIjKU/0I4lwEyjY+pXyqEsnhCR+Jky5M8xwsZCG+8/kbf41xIoE2DCROXlD+xrCbcXZZGDI6DZpqpfjg5R68HuO9UqS0PD2WGR8pBJSa1Ji9xsEA/bGwrx3qQfS49CtcNeBZCgNDr1DgJi2uVrtOpWW5utKCe3lCBpFA6R++RQ7dDV4agnkK8QxghDc40QbwpeYsS5hCourPiqRVXwiAQ8lxXlCDz6gMjYXq1yIV4Ca1QRfwRMfLppRnWsr6djph6ElPhTTQCQXhbudsjTbSfGSZwQgHPRDpLEyAOMZwIe5IRJFRbs/frlLIUGBrpcjMMwfOu55o9E4oAtltPN5JaPQnw8K2UDzCVGHkAACAASURBVKVzJ5loZQcUzt9oXRjr3H9eb3lr5WXNEsWO5SaUoGuRztuGosdSCBTnCTSFfQjC0d74qP2heWlEJGNk3nz2FJdOGWafjXBT+hxcGT1GooR1TWUSvPrqq9sbb71hyByugnpcfO1rX9veeeftQgPGD4YWBoMejBoM+r5SAOE/CDrWGZCXr+ucjFWwdjx1ej1QGIiQSBEEyxhBwet3GV6r6AxMeUIWZHBoTBMxuX7zRmUPqKNksiM0fqcZSjFfKeIknvOMzeueGpe+VwWKlGWwKom2EgqaoUqJn/70py2nReCUIdZhjzhKK4RWxMT4Ho6LS65Zqbt4UlXrA8XRb91fKISzJZ4oO6SMx2qsJoNrX6vCVTlJWb640vF/nINSbrqHuAmzvkWVYEeOlG6ZvLMgxJxO6+sKQVbocu6gBf9PDpDlxsh4OMqFXLrVO2Ndr+8thCnfZ9YCoYbd9zO8qcCP4w4LogmMFc4paYRxsgyEFeY40RtBBvX6r9lAOFXoC9JHuExhtlPeZ4yB08/OTIPBGC2QoNb9iDJMbzlPuxT7lBz17/IwiKWSG7+g8HNKr/ZbS//a5Cq3fKOgM73nNK8UosGKFlFISu327ZeqiE8EtwlZrtAWATKsRQRzHjZ7nTTBuZFrLpbRtuauqA15N2l2jMkMYoc6KgVMBxJIeGcAZm/1s09jJIdvknbm+pD/3hyBIEsoayl5wbDHGhBFmKPULs2YiiDnRkHygEV4DJlMM+BuiTdvbLdulPGge9gLSZthxs/67YRkKqj1e7QjDjO/jYmkt2Foajw0RaL9NBv0qQoIBUWaQoOSzrNt7jQoreD9bIukNWFYkJw9AlQQb41r23lZhpy1z0cvhmbng/SNkF1n3yAI6eg5hK09/zD+SWU0cqT5CCFO46k0vEVERJnqeTE03VI5pZEhJmLk6HM6I7qWoHF956233nJvA50lzaEaL33ll395+5W//yuWf5T+taGnUF9i6fPcQjgrpVpKxlkF8tCfrkqflHkmvKW5kSGh57eiDl+H/eB5SWElXzv1Czr1s6v1rawBx6/tJyRLIwYjpNhAnTYUHj1UFcqq4sg6kS2g1+BF4XFjhGDMmaCoM5TiRub0RCs+MUpQCJ0Nk5HJw/71nhNXKYa8Xtfz3rx+07wNPcP9j9L+OjwEhSv0DKo26bTSp4+3a3IcwjvAqCyDIQr/QhkIt7yXSlhrXQfbPzrWzZeMAFTdBs7GUnbVn2Aqv2V0R4skpGrOQfro8LwWfe1tk/63KpMioytddBIOKa62yH9TYs8xFCK0nm1vMJxmkZXCr66p7Jv9M9WdpuGCUV8HBK7aGhFclJ1TOuT+F774AmmOE0FAabWSbu86rzQ7esT3Mx483yNfcKEKK7xwlroQI2FvILDY+/oGrdTm6kTJIzBacJwJOczPrM2XjVi3bOSAbmjEGG3huiRzQY06mNQl11cluJ2iowM/Ulb2G+mAR2XiyztaiMbh8fqglGe4CGXlsdXKL9gcm7OC7v4fRlgqJO5QoJFN4s/K8EgaEfwLLFSHZ8KYR4iShQDELQhR4yoPhToB5cFqTmVQOY5qj0/Q6UPHg+U9KjB6/dqNRnUMPyoOGW4HkDBxZGKlIlF5TWLU1YyUAED4kdJVpLKUah15/n0I9V3aEndYqljwmh+UUSMYYX5j0JM9MKFb9prWSM9NpUMbdxBHUxBFy0GoAONPQtlKTC2sn5Y3hzAHVUoSQ22dnFcjZhfFDncGiXO7h5ASwOZ0Q3VyrIqIEszygon/suc1j+TN0wSpMxQCFZfhqPs9Ccz+0D0ApExqnEFOdI9bt3eGxEt3XnKsXD9qzKTOjkbBwnnAo8aYgd+i38qn15V1TTxdwfjqANlcCnEP0rq6DMEbKbJD6+PVaEzrZU5FGn+ZfPhE9QLKqMUY0l7yOsdQ0NhBUqp7ZNVU0OA87hhSRn6S4QDCZwTIBFt9rq7ZaJ15E6UNppPk9Esp3U5LXpkDHgsFw1IYCVKjyZqDeGzjOymgGiNyAHm7lGopbkpUY6xfV3twp1IWb8WFmlIMicwRd4O8eWsg0LUXuEc5YyFZ6t+eg2xnHMmkD9eZTnhxpU3Vh8kASKG4ymqYqYd7Z7V5BQjdEaIk26Cv2cS/c5psEApDqF1ZCed5ChMJKORghhMwZvZ1SfyIAxqZ/+YRQDF73Q5xkC984f8DA6EVKIo2bYOPSnpn5aVIxk7BZR+04j7RfotYeO4zdf2lFNf9F0pQk5bdccZgOBoGKK6lOE85DNOz8/fjfcJX0GG20LJnUScUzxFPtwDeUgIc7PJKrEKHAi/hgBV+nCJi+d+M34Cxpu9PLgNKg+8T1rCCPWyequNfzHVKLjMejzGFfEziSsvjIuytTpuNOnRJ4lo/WsbqtwVCak2g/CreXUICHkKf24yTaoe8jmCdaY/EdXk2e/AuglRcABCNFlADCbEHlA3VRtDgcYBUzHPQYbIB43kNSEcNN4J59/NdK4Lbet5qz8vfDmGo9n/6OzidzOer9gkQ8SyatUIqgfYFj6vQTcI9YrBrbTr0M9JVyY+XMlRtAUrsCsWRQfXYJMAqrIPihr/RMf+gPMDr3EeoWvFDNtdO0PrL+9VcUtLYRswo5etGNBc6OzI4q6cF+3XHDwr3AO9PqJlJb3LknxT5TsoGRKgIiwWTWzHGezZxz70Wrnqe9bxCFKq+gYiOs3JnyL3hGUOUm8oOuUUtEOo3sKdsJOI9BmWo+VxlrqcMIoQiLgfrrzPokskhzDq33sTpyquf/B0btFRwvKwaCYSnNCadxZmh5BLKChU+VbOtUsbaE5ZtOaOe86TaWrYoxBCj1IZG+EUYxHaEwpNCx2EmkGpNvJ+0XAwZy5QY/BhhB9FV9gGE5APPzS/TwyDvWYFj2Q+HEjmO8TD1kh/5jH2AXEC+k+I5X2d8TawchuWwT/ygXQJ6ZFIwjqNRcM5IYG6KCrFSKHUfGQjf/plvbzVz8ezMFV5/vUiKU9C2Ih0Cs3Cq+KIzm6AXYK+oOSQnt3wOL+F4qNZELW/7aCAc81ZLOa/4y9yI/Hsn0JOGuJ7+1LM/MRAIg8RQ4ro7XkMOoWBz2NsIhGX5g6h4RF3kqYd0HIrnPnH/ZBoUKpDrxLvudaSkc12+fnr9VhfF2jglFK3cR9ZAQdggK3WRggyr8JE8XAlZE5lGSMVzEo8YgVSlWa9Y8BZvQ0THNMSKEmzy4cVmprZjtA8fLA8oleDqWcZzT/NmpMExji6xHeGyPL2Q8VLoiYyGCbVSZdC3DNy5OzBM7TgTHcph3hUL7b4LlbMuZTvj/lPgwpeQgEAIa94p3IOhWaEjjLt0pzRnRnN8zffRj68RQ8xVLa8vtjv7GwGma0sZ3PvoXlr4lvJstn4ElRSuPiNkQD9aSxXt0WcfqV5/2kGjnHSf6p1Q4RLdDyKi9lGhDQWz64fzQr8Fh3wIMSVUVehMbQW8VRAOfW+XoaKKgDY+ZJhXK+A6u8UtweCRF+zsCFUMTJ0pd6G04VAGXRlr69zYSBvaQmfChhXoQJolkQ2xk0UzLTUFm6zUzeVYzY9AVjEoQcI0brf9TW8KI3RBxtjHhFI8r9u23bx+w0gBYR6Xng46IXml74GO2lCmzHecIxmYRjloq0zYMIibvkMfCKdRJt3ShqkzwaomQ6NaIdFSH8Xoz0AVQF1sbBjlSD2X4QzOM8leLjSkkBiQJlC30hXL2MTB4Dy00XZ4xr7PWRi8wZDOatmjAft0yEYWTgwEwt3Uj6iyz+cMgF8NRZghfsZh4zr3+zUbCBPeR2FUuDuedbPsR7ohCnOSFlFEKK2Ri9mDboLgXty2lbaQpxYWKDkCHPsY+ZrUecWl4OO9d/we3kFL8UA7HKOaDYwSe32HTQFHwPcYsTLilDMPennTGAZlcdXUxluFq1DUmjzu4hqUjm8LKyGH1VAJA2AZBHmG8Z1ljORqWbdFihJ/IAz+WOG1uZiXla5U6EnV1beAcnnf8njXAS+DAvY7wrG+l7LIo/ug1Z1g7Af3bSRY+M6Q36yPTonj0eWyPZI2aPeIzN6SL4OoWNjDaPJFVkgGL34K9nNGQtkth46WCcW0MMqcSkkTIukCR7moPmshnFr7oATznjOdkANPupnHkNTbEq4KR9T+p8qdFWRS+hDMc90sQJ/WmqKk9Xk3JRI07dK8ymi5lsyACyseeXr3VOeAdct2JdRC3J59bO6JIGkreRkupcQRnjIeGLvn0ES+MpT1GdL/rMhGXNmQttCtrZSf5Uota4VawrUoq7nCUPLKQQgKxSov3mFEZRMo7S1luClaRTXQhSiVoaYfpyS6y+WjNqzbcJ6NyrJnMOaYKyut9OMog6n2qP5tXoLCFzI+HJIoRKe8+wo1en4eP/EaWlaKkHlDXShveM0gbqIsNX1VsrnmkgwlhQTox6DX8f7xsNd+KO6Hvi/ESWRmMpDQIcqSoTeGXiON1M+S+g0OlwxN3BUJ4Q5FFJWXvnheLRvR0zQV2zXbQ96uioWINvbQToYEDaTa57mzWAbtko9N/I0R2fMLSpHPz+cqiX/wCgmTzJoI83M77sE+hbFGs79ehaIX5+LFDITX3lix6Z3yicA8IAcIwfaS5lLOONAY2xGRIDbKpjmYCEc9vHu7r0UJ3hUfGHH2Q3GieMcTMKB6VV2vrJG2xiJI2kNH+YOoHJ4Z44CD00bJVJSDONZqftkmqzlLrg3ScPRaj1bkMoAS55/15RW1BzI7pK4to6Ra0F5T2eaQneRVzQI2U/Bq7JOIp/tD6uuY+Oglr8fR6+vQRymHx8GcgR6QvodwwnuItVTwugVnpSLu9sNEUeYahjjVMGIMVgTwSj+EA1KLMIlF+nul2NV7ay32aYFWxNSjCJJiWDTlksugFA8hKYNP0slwlLIumLiMw4pHr9Qznpl4sRVGWOXMs4Vv+DBSgO57Ec6Cny1eBAiF0/yIf9KiOh5WkRCrAI/CBlojea36T0z5D+5+YKGvfUFHR8PKMgCflZITPO+yxaliuFM0QkGG4ec9kbUkHFMpgw9XVchk3WjMGEsm54WHQ2iE4kRlBBbZWAiH0xkV7rpeaaL6Xr8eWU9RKKNd6fHB2AzLq8dA0otdVyBE1GmcleGwUs8sP8c+LSLeMmIxoLzfEsrzNZIxU/MUCD/1GvQsoHpkNrjIlZCPhOu8JxMGZW4KfZIhoxoVFXLBAGKd9IEOMwgBEtqg+g83qtCSeRky8JQCmu8zVxjL03jDcCpdqbWruhe0ptbrNoqGV40q8a6YKF6Kty3jbDlQcy+XAl9ehr3ohEWQn5NjNj+LUu3rjXFNg3pnIBw4BOiWoo9gCqzsgylf57OgZpbBEeXONYZB3N8behfO2LpOnK3M/QsZCJAU23OfsDXO6kAOMBCOG70F+BrNiWLHejZYTpWtXbrK3lTgHpXCFgd+ECX59EQ+Wtg/BwJC6aOATwNJS/B3SIOGOrH8jPCPjpEgGXiCy/LfCwafxg5N7GH+mYuz0IjZnyAe0iCm9PMnT5/43TRQMMJY3zXWFQZA+SGQfKBHT3I4FMBwrdRd5rmuYyMgQpSD442fZ54FR45e9mqAJQJeFdUh1tzKMIe6hOmBpJk54bkRCL3WzwkN9PN0oatgygcC0Dobo+JZ9uO6Z3miR+StFV2UFxwWzZm8OSle5bXbu3OhmPAuhgGMQFvPXgaIhLhInfIiIZ5hnOi3S8mKuGcjrtIjgfVJTZ1cDwhxek3fAwkzUWyEFmDLYwSITMj7CglJmVHhr6D7a9v9e/ecTWCDJ7CtuQauDFhpmsD6cBCkiOR9m7sw4taTo4LyAV0oEmahOAhe1wxwKKwyZZyRkPAYhpy+D9lSa8CYrMDhPjVTvJ5P96Hba6Fstd/LACzjjhBIpQo+qnunY2gjfs8hnNXZDQoYGcw8+95pgqSx0H5bGUxCb4zwGH2pegOFQMzQXyEMEEKp/6BnhwjpbKVwBfTbJa2fqXGTjM2QXsl6Eb/DYc1VBrnkU1qtr7am7fVjNKNTyLCIv1bcjJ0XPNDTCL9yIOJK81o8Zbx9nh25xHnyzKZM/3S8OLMO+yVbair3lrtBpRrFGLJ5KuzGBnbvD06Ax1tW6c4wOiPrp7HAPebvOV2rSduyGqbT80IGgoqVrJ/JdF8atoXecwyG/r7fP9XMuwqMo/zmAiyWJ3i6UDPOnjh6YnUYEIaAJ6JwJhSwM2w6XrxAqQmhTzNld93Ez1SNTsJrsm/xUCzk4mVnyVvZAnEupGF4+DXAXVoPkOLB0jq1aQaxZiqsTk09wxlBqdcapA7EKI983OA2Ima1RTzqGAjzvc78COzWHhOe+4Dhi2yXksAdTz8tPML6YZhNgdzhgBClfO5H2OG4ngjdaUw2WtTSac8Snnt1CoipuObcT+YyY28jDWJr2oIXahJ2vJvflJJrwRmOyGTw6317cM76qBTIBPe79e0sKVwcB3lOYrxX+2UpgMpceGiFqKwFl+B1YSrFbYsc6Bh9yutG5heZTQWTHj3evvH++85C0Y8yCa5fVYqw4txVmlvXdNZH8uwpRIMhwNiUd1+KWqGl1FNQDHkQA/GUdS9XwXuSctBBfCDSLcW/whXM6c6bDHELw0lzIESBgk8ae0Ozo8HPieFK46DUIMBwoe/CNBwgvxIXbyMn6wzSU+Oss6l/E/KYe0NFl+Thf/DBBx4nDecaAfC5rVou8EE4G7qPDARdj+qKTlEeytwyLOgOdUVqLE8ddlEmEhwk+q3AY9IzU8YYhAu5QsgNZT3l/jyvzX8oYbojEzK243d97aB1vHd0HpZS7wv3eWsDIcbPjNsbQcGoDbKnlNtg0DV0wAo8/FFgaep89tV+rHuuwUQXpg5D0TN/jYqcIAjnr6drff4Ln//m3Rz3BsJy0/Fv52YkNICQQEGfV6j7OvxHuPacwN3Hx+uqGCdLKMdCP/ZYGDHjnUIdf8xnKet8PUEbCDNsYwO+ZmIqnCYkxhuykhCECfElBKdpsRN+8i0HwZGNi7KacLff6wdf8Nka+/OedM3R9GbmBqtrr8I5Tvsjc8GNf07zjzmQ9XuP6My5bU83IZbdfXrd0hfA60b2R2Uu7IRC4vq6vpVDWN+w3f0UgWhL+FTIRIqtc7JBxc5k4HAAp3duz2bUNZ+eXp3/svgbsYnBelxvhNDau8lSCVqAsAQN0CGHuInC8ljSfKhDOEnZotzyDOFoDIQZiuVd6ZrVk+OyGhyFYS7FIiNClQv1WVXtU4dAx6nlIY+Qh0sGPy0oWz8q/kMHQ1VAlIEgI0VGgOBne7DXr7l+hebvo3v3DOGzbhAS9R29BrrAnJhJb15AkeamAbpi4CN9MCWglydclQJBsXx+tc2UZn7osQCqQ/Eh4uGeSxtR6gYZfs1AY8pDrZDb7DGAImPPar6MNDyrOhh4ztOjJfVzGu4w+ZnzQm4qlMMa6nue+xuqyaL22uJwrBoU/lz226wdonmpUs6qiqkMhSoH7SwJUnY3kQ1TRlnvifT6LBUY43ToOis8KOTvaXdZ1INq3ssY0Pevev5BNDrsRiG0I1kvYbl20g6ETp9FkxDTonkqZkJ6cVIaeYnMc8YR3VYH+mO0NEbedEKml25ZkVLd7UjlkDfiAT8g1kIhAzPUgcYpBKQU/CKlIjN26EAnBJQucBXZyt3c1UdATiMP53WnMfX/zkAoLWLFtLwqOjxOJvzeTd8pX5vGBpdGDHwps3PW4nnl3bOOtVBjGrGopegG7+AEmlqExCIeMr7nxCGG3iUswu82DgIvGb2IIEWbQ4KCBMazTUWBkvd3B+PfszZDOrvaEyvkMEyHUythVyDnjKIf2SgYDdr0eGdmdncL3FF9r4uG7NOCgMfmQPi+lX+gdxSohTXUj+wz5pHNbeGb+CxhDH1PQkrPDpFrhquO3kjfL1Ufp6Dh/lMJHidyGmJzvm0gPA1qNfgpE405WZTMOftnGlu1BoNMWS6j9ynemr04p+OpXsET399rdr1qHOh9e4qZW3MWIsTxYuEsyBBQGIdQgiv9xcvR/IpXYM800D8Fj6zwrlztHga6hzgJ+m0lZg87neiS3oY3amTgwcPKu09uvluPp53xbI3rWP7FhfPlLSsG0VFphxLgdbakbBPTdZGjyoIgjj4LNOGxymP++Mc/7s9p7PRXqOeH6Kg6HNe911YMv1AuzaGMBqdnhheg+xkFSU2BAUJV2e5wSUqulq/pkMByNTscQhGndRYhV689L+6H5scli69dNdlQe0HPZmJpslD0jHrd6JJTNqsfBoaQxgxyUNerYl4UVTKRltLcMQQoSa1QAz8OW2YPwgFhr2KkcTYxGMwbCWJoA+aqGklRN6VkqtX+09K0XB/jzkZiKngeDXGPK5UG2VdTBqP40W/6mzLLtSZ7XTLltj5rBGzWljiXYRAQdBkZqz5CjW3PRWAMe7kxvtNESB5u8aAwBAhTY4hgGByNmJI92/aFL37ePTr6+c6lOZ4gCN/EQDgxBA5hhZ3Xm8IdSwkuuGwvIA8kr2bvZjLWI+zz+jtzYnAacgTHV+qfhxTN+Rwn6MZYJT53NBR2CznTB63cV1Wu48as6SUPuDIQdlGZmfGR9yDHze8t8uEYCehH5mV6XXgrfX93/gu7exAYsY5BizDAJnEIZTIVIihBbfRKmzRZa7K1Y70vLsph7GO/IKiOnuNcx97YEeznvH7Gj1FYXAjQi6BcmXOMlDZAM/a9cbDfk4RIIExi2KDYev0nMVJCN8qhsgoWGjOFEQ2lUCw68FZYIcTZSIg3uQymusLMklDMe5ZC1vy/f/duinzdKMUahvg0YHQd/U1JYBkO+vv+vfu+nqrsqaqkvH8pLYhe8nT1mp/xssaiH8pDS7jKkxZ8X+jBo6qUmMJainWLi6I5RcEC0WvsqzeHQivJhGFZkvsPqdKFe4y4FApBcysMrwkfo7xmFoGUD6gEZEUU0ozPWwgnHZAiSnpOF7UKARB0yIafyIEDHQE5pFukrgd3gjWXwyWER/N236Wjy4im1bIMBBOMN2UvKItDNSSqV4NQHRUi09gVGigFTlvh5ekT6uK8Y6yxL/3Mow/CMkRX0zntkTW/VYBLA1WWitZUhpm4M4xf+0jox+rNAAfk0kYYMoussOlgHvkHjBOlWChP7eOWs6muOGW4DcggvzOsw71KvgWVElp1+aRCCSXuE/44rY3Q4xipmb7mgWjY+nDI/4lg+P1GIcjcyKafqPdAKY4O055I+YIGwhtv0IthisGVftee7glRcZUzjv5dC8CkzRWgZ/1ImezJH5kI8BWm98YG4fckrmAFogjm5pmFa6xc3Z2rNunaSP2vQ55pYsB5e15rPpbHhCI5yaw4KMD82Qo/5MJ5velJ2WNLWhXxSoRSTo2rC5IKxWHQHOCBTAVd9xEEvcr9rnsfyUVlyOC5tvft15IDPshYtTbR8EfSYME2e1TqHHgTJQXcPwWwxzk4DPUkMa4wUjvANyo3Jqxg5f9skccaxZhLBJM+IYk2juKVn+zXyAa6jM44IOWu53oxn6wDwUr2w/KEak2rG2F5Z/bOE3O3KlUe+wMV76l0NYcZUqhK63vr9i2HWeTB6d8SfvfuqS/AR91sTK/rO1Lmmltdw6GN7GcpdBVL0m8JdcXnNR79W4q3Ut+U2XCvwxqk/+kZpVz0NwRJP39S8Gwg3LjhWgooYT0LcLTCGXAk6vmTPZPQg+PeTx57DwB9a07sCYqbIUJkwma65zXF1nNWZMxQDdL1ObYr2+Mnj6x4UZyEQrTm1PjQOFTpkT4LrrWQkA5ohf6exZeOjX8gp7oEur3o8toxyDW/lR75yK95TbP3vSeS+aI1178xtnAeiGdjaEwZ4oJkF5vHrx/dB5Ji1URY4QKMQu2JOy+/3Hn4yAFdx0bIU81BOTpLVpQcaGh7hAq0vuJL6H6gBDIOPA5fc9VNqPMyZE3mCTSoSY0HgVzfWWiE93YKX0EqrfGtlL9drxoKMaWZ1dIVe02M12+ZHURoJ1cIedDpcxT56vujXw4kVMAlECU+XyGFRfWb+o7P8FqlC4eDU29mXeoCL4QgYCAgvnWFrr7XKXLLA8e66o0y4iKlJComDGkDNjzEnPKoDt0Fm5y6mP0syi4WnmJBAVc6BLK89Bg5g0y5NvRo8jRg4SYMDQ9ves/t7aLQsvmAEzmYq2b/nnnbZleUGKk6x7DCYras75dyOa0eyfP68CddsA58Yq5pqlLFiUooT2uSmDXGR62Zff4+auRyQ2zzvkjalWHmMIfX3K+aEfOZmZ9ah1WLYj7D4XwX3+MQBjl+ZhkI1cZ6jr33DtknnoMiLk3jDIMKg2SOta9BHH7UmGefL4sc1GhmwAQlchXFdEg8CrKyePrQLrKS8tGrTsSENKcS0VilREgL1UXKS6rZdze/m0rhu1mhhIePtvfvvm/BLMEq40BtgFFGmgvH+yma4xABgr9S4KSgpCzxKkkvNDPfqbEF80OmJIRBSWa8KVAJ7SHHuKkS+bggcIcjQpzUb8HaOm9A4xge8kLthbtUdRlVbiCkjIFHRbwkfk9oRHvQ/Q8eVY0NZ1tcv+GwigS9SjM/fSITrAQxqIj2yJ2X7lR10aBvqtWhOZDClbFi5RaDgbXE6NKYq2NhOSh1lipEAlztM5hmRlovXVvrSAMzZ2Fc1msYMkJKbt5U2+faYzYanj5xYybSZH2dzIW+p+eVGBZfxIXOhPhIYafAkdZABoK+J6NJ+6h/smVBMFFYHVE/YfLPTV+1Faopl5AVY0ZGMl1/wcXXqneDnTjQWNJ8U8vBO/zQAt3oQpSnZQuoIOOJ/AYxotw4e1kj0b9pgY6SXYZGPYeNEuIXjYju6wJh1LDfMUR875Eebdk8ZMB08JB/DB+ntkpPT0Vf4/J+0PMnDOwdnDAtlSPrXsvI+TVlMSwrdtQ/WFJyrPJQtMPy5OJ2yAAAIABJREFU3QlsyHVjUVgwFI0F2cGLLM7Cgh9QKsDwO2vpTMign4FxDQ/TEPshbeSopPx3xmUA/lxxpCwqysFqFS/vTMnVLF/iwYs8OOerQhJ7diQEOGK4oCZ79GHl20tFmjWeBjF4rmxSFhCms3OWL642YbKgQ2KkS9lrk6FAlwe9uCU1Z7l6FHIbTUEUbK/GQOrnGulT80BjQPK5HveZlB8+O+shTMVeJycHO1Aja9w8jyOf5WDEEG4oLY7xFl6HeW/7Fs57gzA8nkH47FBPxygXn2PyMGiIpduuOPha78kxsOCKAWTPMfnvoE727NRY51EhDhLSbjv80ksF8T98ZMEsqFeKVIaEPHt5dW2ASPmEf2AG+62brp3B/Gpe61qFApQBI+9yayNlPh8GpjMnnFMvtOGRK2dqDOJFODXxsbIlahHFnZDhpIuqVDNETtc6cJaFSHZp5pQaBcSsgb01YN2HfU1/CxlSQiKUsqn5QWHyXFKwrSzFzk9ba+1t9RXR/FYooMIZpcMgAjL+G5U296xSEEuZVz8BKovqO477Xz7bHjx6YIWEYYRR4K347FnXpKBYWTUYu2E05MF9ZZXUtTQut5hO8SQIerUe9f6jxw+jeAph5F42GlIjw6EtOyF1nps0S12BoSVK7pT3P2VbITPPbNiJT8LakgZt1EecjmTylOG/T/9r5Z8Oprr+uTOC7EPxek1S1hwHrVE/+meE62NUxGhVvPDA+8hqMkpQzlb2B7Jg8UzK0Gy0M2vnOUE2wduJsQASg/PAtLqC5JhP5njqj5rruvDMpMJYmHyNFzIQ3nrzrcjRBdfOYMNY8/7nYtov66UnwGFHbbzBpJeAFOZ6UCR9wZHVBlq8vLpF3prWXCtzdFOQiXOxeRsaYcAyqXxuFjmai82/p2HDazMuPuNVx7maBwNFOud2ws9YmY1exHub1dMwElBa+v6MGXc8Tnuklf2qk47C4BBiIO3GfYDxtdYulAIRa5BzyoBbVh5Eu86GoN567dY6QEnl8h66msyJEKF06GapZ2LvcQhW/lAPuNb1nIHQh6o77SUTZRgxPfbYpPNvDDEbifkBRtQZbC9QJLQRssJo6dKoB8Jo2RkxBm3wr0qRda7KSCZFEOXPPfEE7TWzxoZwT4VHK6sgdrpvoUwpMau56RhqxYo9stTol8IRHKzvzDQ5zTmZDiAUzmpIyV17YtvWrZqlYNy8TGV+b9xMHYJSQu45II/1/gMrXXgCjgdfqRLK2jcF25f3L7TOvAC9frPKBj9+qPoZYvkv8pzWy579eGaX+44CnLwN3Re4nfACQl9z3tUkE/YDPVEIhj1NHNs9L0QgDMmPfWWk5PLZ9uhJcT40dhBWDBVdgzLN9+7f87kTciFOhs4BJZDxxI3CXLtmmSuj14aQ1jmGleZO3AN76MpYUC+PZF7onupIK2WtcUguLGVaXjr1Mkr2FkGW7ctzNex9NBBa4fUJ8ry4Qmhi/lRtpPsrxuUsye0Qf6pr7uT4wftm32FgmUips5F7+lylVbxkIXuriY+uVTKNGuRbMiUO1UFbkTd6vxw9+Dc7fttEoUdRMpxNfKDSGyGxToRxGmLJsCPjYho66GLrOjIyIgenTlIWwzclKWIgLJl7iL1Pb7w0ZKd38R2L6SiKhl/StGfGULUxiUvVQwAPp2934BEr78QPi6i1Sox6MROEmY2IjsrO15/phCl5O3SLvT9/bFRuA6JtA2Fqz6Fc+tnlJe8IJ0FGDhD53EzBz9te2t0ibHYUE8/l7ZKYki3SWNrTyNB16nt7FIbQAFklPCPxXm1Ge/05ILqOoT4TnlaNCVIIgTi9AZPF4XurYFL4DQgWvUYLU8fQxyEjBatREoq5JLSyFP9+T9r+eU4aJlaoBU9S3zTO5mQceSKlsZfxmsWAfFjhC4pUJbYZA9js7RRZAjXZG6N1seNYmbcZ+mG/cV5QdOwD4seGqU/WpfaG7x342sota6N/C05uT0wesLzkR+raKK5DFSpyXF/Etm1zBoGUCZUIrWRBYcLK13WFQqBUpADhRBBLl3Jij+r6GP6uXqi0zhifMjDgL5AyrDUooV/5/TYeZBAkBAFfAkGPx1hpnhdBM8qgkNzh2aQU3bo9SAsZC5Nch/fv39euV8vopDWWZ1Zhl9defW2TIhdpsBRqGXjupZC+E9o/7qEQT9eFjUg5zesuIZ2zr/d1fTXFcmjjzp32TiE6ap71Y4Ph+jWHkMgcWmHg8r6dpaJ7X1b5aZSW26jfFLGxUhGXTEsxq9S6wFCacmr1Q1jZNpME52PVGg+bQj0mqk35MhlKu+q5jCzIuMr8+kykv85M1WuZGKej5Bacg1KtCoUhcyc/QM8J6ZTntnxIFUijHik0NZ22PRqx0/Q13nrg/o1M6bEeKjBijM3Qry7xytNn2/e+d3f7zgcyIiuN1uupNUrasp83zf6U6yFFVxwrCxu7wt+42La/defW9rduV5puhxs88WV1vJCB8OYbhSDslRRSMhDpCfnOqqY+1JkEpBKOlMKGlaM04+mgUGdMmg3FpqqDVugBcNDeGlO7Xlj4a/RHr7283ENBInbeQDkQ0HjFC1o+DYXMuSL2tg7X6o0wYaVlDSzlXcNYfQtq3SLke86lhGqTLGuwYulFuix2LugBnq9sH3v/atqjkrep2dCBjAMcdkQDVJaVUsB4xW3cxZOztc94qXCIVzsqwKFg23OO12+lnWqMZe2mtkDi9ijb6dlzrWs39FxqiKMDv9rDaqYqTnx1e/TgoT1XCfjrN5XXv/bo6Z5f6aAQ6XI2K7QQQhPeBvsFhVBojvor1Pqd+2lDujNdsPBjaA1DBQ+VUMM8FwiIPFDHFUH2+O258nYbedJhcAMXo7ikyGdqne4n48C9EJJ1AaeAsRDzlNAnO8BIweW23Xn5jhXPu+++a0XtnPvmuSTTRfC1iiPZq1MlvjoLGK7abxqTvku3Rxkk+lv8g48++tAGhLgUL7/8stdIylBKUGPS+KmngFKwsrt85hCJ/i2jweEFt34WR6AUuWLw8twfPn64vXTrJV/n7t0PTPJE8VAsCna9rudsjhgCel6Xck4fB41B95DnrtoT33j/GzbOBLU/fPjA+/TVV1/1vCnLRHUjOL/VIyE9Hh4/cXjB5bpVa+KWCjtVLwb3WYgx48ZSV8r4Y5/CLdD+LKRPDljtVvbVTA/le4sct9KwC1Eow/HooE15PmUyhgjyhnPVzkOy0PR3oYwZ3DD2Gav2P+gQukSHVXNBkyjNCeGHDsuNap6sJXyscsRKDlkJx2vHAeDvRQAMckfl2YQAWg5P7sMIk87QZe33y+3G5eX2L/7KN7Y7KSj2VK6VEd3SEhL0wvg0I09ljG5Xy/lK9Uvkm8PIMhounm0/+7Fb2/9+qwqQ1dgXefSFQgxHA6ER4zPV+VB4R8HdAnFUsvOoJ6FFit4eeynI8qL2jlsbAFEuTfyjROiMZR+Mk53xwHuj0Atj9mQC62YAeM/k208LdSn+YRAFMTGUFcYrndcK8oZLUQ9InHpeF29kn1GxeAgcIBSPvJUJtenCReRZyLu+Yw+e2P/wyGsTJf0whpUPgwleK47OIaJ2P7FAx++S913PXYvrucNQUWtdxVS74EeFAFoxR3nasCOEclCmfT0XOlq8CM9d0J7pGVcssIi1hIsQCoKtZUiQ1jUF1U6BB+0ipmqhEeTM8xbUg33exCG3w15xszYLODsr82uhFLoXiNuwI9pQTIjH8HcY/5775ILDYl8Q5nqSef+O02adKCnr/aT2vU8eWwlaST56bC9Y8Wsab+Eh69mlCJUFoM2OF27kIdA7GQEgCvJ4Fct3M6DtmQ2EY3qhng80QYqTmgjai+JCoLz1GwHfyiq8mI+9/DFf96P7pbSVSy/Fcvfu3SpDfPWKPWRdQ6ESoxFZaxkU+rERoTLCqaGg7rZS8lxDzysFXMx/Xeeuu1ZqRe5+cNfGiH4gAsqAEY9Cr+s7r732WhkdgXoJxeh+IhKCuDqUcOeOFbyIkh9++GFxD9IAC0TG9xHXIJ1Qtc46885aCRJ69/27HcbR3tf7da7LUeL8QqTkPe1ll4NOXQuUyiLPlnxi7TWvrl3g4kx7I6Fb2U9qFQb6wVF0GCB1JKain+eVPbBzIHF6RihE+8joQVJOp8y1kagwTZpIsfYgEDYm82OHKkjCQleqtDZoXemxMiSW8zQr/xYSM3VT8zKG7sMQ+cz9h9u/8Pb729Ur1ReFEImN/HDMKuSsomcK12rvVaaHxZW6xkoOSs6LyHp5ub139WL706+JgLsnquuKL2ggvNlamvh4l/g9OEJHA6HDDUOY+lEiNPndHk1CBe1NHzbPFNpHi9TW8zBa/Flg/Fxweah1JWDu9o4HMoQALcUToR2F2/baHN+hpgPQsu2gxHq4/y68QTVB5oSQDYpljqmfKbyLGEYda46SJ16IgK2vlQIFgrQnNsrQomAhgtb8liKscEUxhzmAQhCA6Y+oDNCcPZBrpXBqrlf2ynEPYISx9nvIrtZrGkWV5lds7Z01njW38CLlJ9+dhpkEhVJaBaNCrjsaCPPvmssqK3z8WQYBRm4MI9pPh/y0i8WOvXqCMoEajf2l5zx+bpKU8HQwmljz3tsZNMK/BUJCU3qbEtj6DtkLDiOkayZV9PQceNNSgk6puyrvehnEjoe72uKWjIPrFpISoFJq1eBJtQyW13v1+rXtRghvpPEZIXD1viv2fKVUEcxSCv5bEPDFFZP2tF/JapCStweesIieRUiIkY9rV8uwuSaP/aYh//e/8Y3BZyjlJqV44+ZNZz1IYeuayuySDBTcreuo7oMUNgqEHgVS9porGSGgFtUXoZSlUyJvqXZEVSvUfxQ10rNprEZORriMrCQK9+i3SJX6vK4NoqO0vUKX9JxljLDmGivyz1B20k0Zl9bE1xpVSTkLxPFtLEf5GRWKo1NYV4rDpXqs7oVnzdlBKXLd+XsSvEGg5VhQfIn6LDTLQjYgM+D36Z7UgKCeiLg7rp2QMLXHgxMXw9/K12TJIpOW55UCWzR2Cwq07lm9Qvzszb2q7KiJfixuEmGAxTFqXTG6UJayVw2Gp9t333u4/XPvfbhdXr+yXTx8sl1oDWS0uG7O9e3p4wfbMxmbMmZv3dqeETbUqfD8XW5Xrt3YLpT+qzDak0fb5aMn2x9762MxYvaFl14wxFAGwuQRlHA/aq6lhNbnRwreEKwscE/kKHEbVZB4aa55KpPPvnIUhjWOffiAzQvE3kZNt1QOjD0al/TNkq9bGzLe4Rz7MEg8R11IRxVIYVrOkESZXH1YgoDslN4s/3s0HjKw/TMUhViwr5XayBTQnWaqTxlVa2EMvwfdsEJqhKHSi8oaLRiqPlcM+hI2hYpALgQ9gJBoPgF8gxgsXi8fOExPrG3ik6jEUY0y0KcJjOlrv/ZjCSeHVWKYTZJmHeaSCIW8FBGOsZ8gCCjobPc2jAO34nWzP45GK89ujsxIqwJdQfid28y0NJ6xyjVLqxywxkTKaYWRfnX+xbI7Lyxw8YSMFIkcJha909sqv54uixpr9RHZ2mCQ56yCMOSmWxFICMmQwjC+KOKjCvFobcSeF+xd6YPXQz4sYqSFcPLR8ebk4RohuSykgTVDIep9kC7CDbqOjAXKJusZKbKjtXbJ5/ApgOj1txS6UCU9Q+2b2vdCDJxCmFCJlK1y/6V49XmND46Ez0O8diEd7tUQZUKoQfevs1l1KKSw9b1XXnnF8yvDRIaSDCKjLFZgpbDw3vV9iJGEfggzUE5Z19Se1DMqZGI0jU6c5ap6bMyFPGvPdWL+em46OxKCYa9a4Ye4yH7u0zoqB7aHTowdUt20buEjDPmKDrHMCGl2hh80DlKsOcNW9C4WlnTB8Ak0zgphFYkV8mmd90JapxwjfDcV9jnZ4G9HfILYcaanAWR0aJZmH04yBgb3wjHt6SGz4vLp9uvvPdx+6Nn17eM/+Nu2j/7L/2678pt/w/byb/knt8sP79koePz229uNb/u27ev/1X+zXdy+uT16+93tE7/zB7eL69e2y298sF2KyPrKx7bto/vb7e/5Tds7P/GT29OvvbP90TfutLycBs+LGwjWiIjxVSTJVx22AoBxe4fD455EwlKwxHRL0di6zaa1NZomPVPpA00vJGMqt5WCeBS4O2TjwJewgEy+bT1OiugEap3x4rmYGAkr3e5Q7fGACMxnxiw9eqhHBMQti2d6THYNY+wCTAOhaS87YYGukxArGQMB2N/PN7zZKqaDxZ8DcCRfhldCuICucM4djqLZKc3UY1hztU/n7E2ZmFMbJglN8JwrdEDHxgqv+/Nau1j35hjk+auQDClG8QqcElcKygI5YQ+MCdalFX6vZT0VqMrawyuMMPOIIQTiJRcUWwbK7h4jzMS8zYP6PANkISJlZnZp2lGae8GfgxSWCxK2mHCrPbXL6pOg5SiovxS+WwQ/fWKlRU0ExbCFEqlioj40yZ66DR0jQbM073fuvNxZD/KSS5GpG2C1BsbbNDfkxnUbBnxfRpBSGTX3MPaL/CguSZU41vhliOh6cgT0TG4FnQqNECepdVDKppQpnrzCKTJkgK71mfLQq4CT7q2wi64rRSoyh4wcGwwicd6+ZSSjukTWM9FiWYV/qnhZkQiFACjEIa7E7duFKGgsurbCCcrAwAgidRND3J5xwhPsZz0XZ0iIguaLPajrYnyC9PnzuQbhpQ4TEOILH449D4qDXOPvMjQjt4JO2RunoVYcy+ntuw4IvHyymWIMeZ2vVYwcYi7nsrNwYnzPz/Q5kmEysm6MKqi3RDJq5vNMeQx/xkir6xPA1QmcMHTYDIXX/K7CSDhaoDfMPc5Gv09YHaL5AanUM/z6ew+233l5dfvYD/3g9vgX/u52+5/4x40SPH3nve1CYZH7H21XP/HK9uSrb2+3ftNv2C4/urc9+cVftlHw6P/+e9vTJ4+22//At23b7Zvb9W/79PbR57+83f3L/9P2733y4yVHR20PPe7nvvC5b57FcNqsKTHj6c1Oz7lJaHsyYgvbzhUfhLDA2aASFS+eufTEfiamvzzxo+fGpj0xFLoA0ool9UYyuWPFqacnTfhid71zsTMMpv5gTKYdnDzKLBcut0NnjmOeCmMpikXORMH3ezZwjvM1MksOaXytZJpCsYpzWEhIwY7pwvMpsk81EGnyGvedmzsQHWu05nU9A8KvvQ0jF1UpUEgBEKAOnu+finGaXZjmCLQpCKdRxgHnMIMgALn73gF5ENAlExaBa3e9EcOchsLkJrShPOMSB2LN/Ew/f8QlEO6J93ImTDf3yRzD8btHqFcCS8/rkJiIS4mJYoRitJf3qnVZhFc4KwwXJeA1Vj2BJ1X0RmtE6WSX+3VVx4p7SzFigOizQLRUISzGfiFIDXvHSNOYWzGpWVC6T0oXObvi8onjrhoHpEvW1KltgdD1TFLyNiJMYBOyUlX7zF6/dtWlfrXPQTHwvPUavI+pfPScTvF88rQ4EMkiAbKu1u+F9lgCdBOtVYpcagkkEAKoMzmyUUEKdJ8uo2w4OiWS41BgXHH2UNggbYQWUFbwW7wfJ8KotSfPPvKvsxWyAX2thG+9V4wMlYFulCicEUHmKGmNXwZP145IzI69inyxgeBmWitll88wruk88t50EFn/nYdPLYPxG1QC9KmNnIPcPyIAnkMKzxlGhWtXNSVwhs/J+UaauqTzkup6lu/66P72O979wOew8sc0n2Voaj9VFUjNj5DcREZsmF3dnmxPTVq8EGpIuLIyhbc/+ski8E4uhIb+2c9/9psbCG+Mds8TDK7NEyXfIYhDsyAritVfoQXpKLjTA/NcpMhSCGorjDH2ac1wPf1UrkC4DWqcY4uTYjg0mGd3FXfiMJ16h7VYyxjZ9414nmJno+0yLfLhE8g4mUQQhRiDN/WA5PS9eeh3C7sb44qFH691RCGOinUqwzknE47HsrZAiNe6jBjKGe+Nsa58eUWFdapOPkrM144Rx17Q8shrtTCJEiilnt0hg8dw8IGLMBYEZGum4MoAkcDy+qRCGwdb/AoJ5hYwg+fQ4x8ckUX6rJWa68oZ6ddmdG7sg2WgrBguZ+d5e+v4OgJ+GgjzMwgzUCTm3fwSteVOOtREN1qYgPABFUfwAXuzX6bhVeTCp9tHH37YXjRhADcUulJthHU/Oge6RLRY9k7rK+6LDJjOIkgKJ6lpUynr8xQxcgnnq9fsyUsRSvmQYqn7CUWgqRFQvcebVEu9p2s7A8NogjgUz1xvQCWsFVu20aMqgs+KZ4F3r2dUGELf0evVsKoE+kQotTcISSBX5BXLvDJp8+aNVZ/g8ePt3oP720OHHCrO3aGM3Av0h7NMd8aaR4XdZPyXd4th1YrQNSeKYFcx7zRDCzEPng/G/ES4poExESsMR80hinlC+ZW6WB69P5MibkIM3E/j8ZM621erqJYcR0Jf05loYl+MduQlZ45zPHUNbi5oHhk0CkFoHXuOB6/LKIDjPRUyMPK2++mA8Q75jeaIcZDRnWvgNIysQp3KIK+53rZ/8P6j7Qffu+v98Uz1JpyJcLFdFY/qk29tFwoLanjSxxqjiYlasSvbk7sfbE/efW/b/D2drWuC1rZnF1e2P/ZWGQjHn5//7M+/mIGwixKPtMUJTdeCLQWMNz6VKhuVPGZDmIqtJWZEPOgItcfMqEMxdDsWbjHFV6e1uufiP/TDw+YEMt5Zx+V523scvRPmpB29vaNSPCvIBbsmVt5IRDNbR+GMLNB8pvm8U+mweVGoM5y3DAHvjqo9kO6L5wwNf340HbLdldfwulm3eSh1LZSBXi9jYQXt6T/gbISxaHiIrUhGlzeE1dwzFkgdWy/egH6A8eRFlnJZhsYy4nI0E1bCuGkBGv4EcyZ4+sb16mRYwqRi32SDaA18/11IoIxLf/ZQFW4aS3XPrGIO/eQX9BTtQbK9sXGIXZ4aCHtjbJcbPsJQPJvzojHuY5j5PdCRg6E+a8rjGmEgsG/2hmvBsvLmpSjVdEl/NzcjGS7ao5P8RsyWsQDps1dJt0MxSZG470LIlaAWki0iCKo7IwpN4ZFKzxS/IMTZ8FA0n5Az9XkXJ3KqXlUz1GtWZupHke/gBRN6sME79quuqfdccfJpIRoUSNJcGbFIvQVzP9IJEsIoew3FbOM4CMJUzChg/Xb1xWRk0FcF7xQt5dCJjJGkivvZHlWNgXktwlBtdGa/TA/c713ZjJb0nhe6p4yBNJya7P7JZ+DssT5HtEMoSZXLDgFwhICfJ6fZ33AsrNhNWkaW1CGbcmL+e64JxkWNq+plsOebz9Vnq7IS6OmBnMJAWGhDFZUiy6Hej9EX2UbNj5a522aS4j/77oeF2oqM+xv+oe2Tf+hf3q6+/lrQz1FRcAgH5LLCER9+4X/e3v4P/mOvu0iL+oGkyLpjxP71z/71b24gKK0HD6yVzwmp8FDbYHjkU5hOa7W9mY7X4O3ujYCdcYABsuMwHD4/iGVd+AfCVM1Au54dUiC0MHL0ZywZZXiCLswaBTuqXVYnxgzfQwnY+wHSyezO/HjP8ww/jHDO2mSncXx/K4VwsudKmcGmr8kspGZc86hQLTQUI7U5Wt+Bwe+DrlbGybGGs9DPk/lnr3CI2a/NIxgIwk7RjXBMGwxH/ksUPgISo2FIp6FY08QndTMWoS9ZDl2b/NJe5Z3bd+zBYsHb/p79LrK3W7EO5WJDdCh4nlV4nxCJMmJKGHBoG8mZYYgTzb9SVY9vrWeuzYYxj8Ey35+Fw+Z1MJiWV7iIjow26dS+Ac9ZT/E8oVTf9P8lRx0UCIEtQ0Exd4UbusIhTkMq42mNaeFd2QjyrqseAUKecVvRivV/dTU0QkHpM5DudE3SFkn7tRGiWLdrHFSbZxdpuigwV5kc7AvvS6rqJW4rsuSNW8qIuea9Y7g8aFKl1eogVV0AODuEtzS2uYeZH+0N4HTWi54R5amvLrW1nwpdJfefPYqSW2ewnIByMApJcxvoKPNyqIazl72Jp051S/aBzvisJqnr6p4Yap16G0KkxmGyacij1WtjEJMlopMijPHHuXLdg5FOS/GnromDIX6xUJ15VheSt2rvLFQkJzPkRivpbh2e0vpT8YK2GJFZxpE+0g5TUr3tsA69OT12T7eIrM/KWa5+DqPpUmgP333/4fYDb7+fETzbvv0/+uPbje/4TDvNUzcwTMv2EdbXv//ev/Svbve/8pWSawoxvPWy16KNvjhln/v8C3AQZCAkSt6th3dowbTEIsg7b35mP0zLM7JjKrEZJ5qeOlIPSOiozIZjtEufbAXF5o43iFeFRXgsgzutz6lwIE02DN4u34FNMmwDFNyspufDP+oA4GkTbwaSxtvtueBBz3E4KH9MC+U+0EEohsHWB2pC8hkz8KDTGiMYNV4MhumlGwEYyMRUOLVRS8mUx13Q2/RGIFnhDS6FWShOIQwFL/u+IeF5jHi+4xlQvBrHPlyyDARCST5vifOVMJbBU/nPhDzw+PX+MW7YaZX0WnBznlT7HEp6eucolFr7eDDhixxtg/ksdY0Vu0QIrHOwL9R1cj6ew1eYAqoNf+KlIy23PUcMv5DWeq/YKK2CDjso91DHpLyuKsXLWdIYgJlLaYhQSnGURVwm3CMlbWWqAj8OAxUKYAQr6I1Z7M44qBCA9s+Dew+cbTEhZ8f0lb757NLhAKUvqnqjwllwESp9szg46j2h77DnKezk/Ramvc9ADGoqvFZZ5EsTGinp69csjy4rVTdzClHS4jHcl2Lw7/lRGGkoExvt+D0pgKZrOPMCuDwIUfWkWP1T2kMdjP523tKFkCyClteoqMDkU3Z7ndUMSyWbs74Wlcl8Ajkso6AQGa0hIY/69yIdG30K8oRDoO/J+MBABJm1fCGfn1Bf7s2cYmigDP38QcX1XUipnA+f2+nyf6OQAAAgAElEQVSDIu5j+M4Mi53hPGvMOBNBkYnVSAmZVnK/slS6fwM8Jc5jQhoKMfzA12Qg1Ae+4yf/tEmJOJQ2dMxR2SrcsGz0nYfx/n/9P2xv/+c/VTLrypXtj71ZNT8mOqJrvmAWQ3oxQGJraXaGJIgw0wBhvw4joYWXn2BA22OBdpaPd0AVeGh9vP4x9Xfd74BcWEGnXDLWLwZHKbiqbDc9ITYGnl3f7qCYMYJ2NSHmZwKFNQyGMtvVUiipCySJ89kdHUk5zCBqM++zJeqQrAInZVgsr8DkmsQ+15hXpkYrBw49qAGza2MhHepGCuQ0CDio/G4D4epFleml5Cl9C1IK+pySM+lLNepTrGmGLhDw04DEUEFBlELf7wXY3Yx5KsfjayAlnses4dln7U6Q4V8MFnaPc655hFeHIU7Kci9JhjflcV6kFsW0IjiLw0gtOddvtHBgv3udm98xnohNh1CqA9fE0N3aDmu8BWxeY413XgyhPLzRATZIWCrzQRwFrbFqEajegJoskV2AMdANebK2bRiM57FR6y6iyn1/Up6fMy/UmVEho1SUS0EgjFDkAhUO9bwVRpAiTa1+yLEp2Svlptx/GRgdKovXrLHrv5u3bm0vq7CRG0098edNekyISsdMrxG2wvgG7au1Rxfsw1ikm4I6OHyRIj+uN5JQC5kmDqekZ8Vcz4kslGxYhihhD31m8g9QtJwzIRwKAbixlObez651rJoT5vckpRhURs9Oeqnkg+ZhPrfm1cTQ1G7QdbSmXbFTxE/ViHisolAlXzQHIpJq3o30xPCwLIwW5tz3+SetMvJIhgmhJDgvWobZvKufnx4Gw5i2HkmxOI4Vz044fYZamjsRZEXrSin6fq9u6AP73TIQ3r67bU8fu2Tyr/uLf2678tJLvU90/8df+ZXtl/6Vf2v7tv/wj243Pv3pqpNw+Ln7P/617as//hPbdaFdT59uP/bJqoNQP0r5LA7GCxVK+tRbnyolNrDT9iq45CBszVh5KwARKajGNyy66eW3RXWIugKRYOXhlc3x1GPt6xJMq5KDhuIq/RFSGyS5WdUx8BtePN79VEJHZXsC5YxSwqwPiMKuhDTe/06YLqv26BF2hcFhYDGWGQLRPbHma9wmvPbsrrEU1OgwwqyweAxXEC4RnwKY+aBnDG+PNFI4HXgHrJ1XixoIh0qS8/u177THUwwkyog5mcIZ6x/BNa8DorCGm3KweANpzIKhhQd/NBLnWkyvmz1/hNvxbnsfxTPcGT297qusYkUhDqmQAxk5NXCSMtwbLf8Ye6vn40yZZzwv5o5x+7xE6HH+CgFZp7zPVGTEIkAuYvGuJLrlVRXnKUJglfI13OwUyyc26gW30uZY66FYuot86bxGCMOwl6JQISMJX6dGJn2VPSHlQbqlfktpuySzQwrF+DfcH8/MfRkeJd1yuzQpUWsmxXfr5u1qn5w6BEYZVGdAxo2IhPfu+SyJ++BmS3jJaYGuLUfxHmTGykRa82pv+bDfsf861p8ceREnaaA1w0VsB9C3dn4GXwdjw9/z3K5Kp4XMKG6fuHsIer3PQW7yvomFj56MvhR1gDVv1UlS6YpS5g+DBF0z6ZKQhMYLmmB+iEJFXttHNnCU8lphl8p+0XrLKKD4FFkwRm/GM06jqHVZCJEYSThypDdiTHv90lzL6OvsztohBqX/Fkfl5AfkXMjGmFtkAgZ1ZwDFoIG8Og3u777/ePuBd96vSogXV7df9xd/Yrty56W6Zc76o1/+le2X/uC/USm7t25sn/5D//r2sX/sH9kN64O/8nPb1378z9aJvdx2BoLuV3yNy+2LX/ji9u2f+fb+7sWzM0/4qU+WgfDcnwPCfs5A0GAtdJJ74duQiBAvgKqGsxnSHM5O8Rw9pTOwcntUsECJh6YVaYylGseA11CyazwlvKbQ7noNKMQo06UAa7Zm/H0aVVNY6/UJiXOfuan9ebw3YuBRNrmTmb6TDMk9vMFCmjoquC4WtUNzKk7u+WuS2oo799QzpuE5M6d+phiEPvCwog9oEmOEMNaHYcB47J2qUjd31yJJ7shDSYlrj3k3T4OUN8avcbt2AsWlgsIUJJgZtlG5iK819llKOYEDyKYSJqnjwHVL76drZUhTNgRgQ0+UDm87niRzZUVG57UcykkiXkb5epPwHOG0df6mQCtkCuQE6BRD2rA2OdoDIbRAoQ7FQSgvBRVuxNhnGBIFWC12f++9ESZz3X0laaVVM4KWeXOGgr3ox6VIYiD41Fy5sJKRVwkRUspcmQl6JiNsKZmrF66pUFNSHG0cjbMDysCe1PdUNlkFj1QIytdxDQkpssjtwNb6i7BMyYZK42U/MM9W5ijkENk0LrIP2mizt+tPe27I5PEzKbSgLIvBPSIlmbWfsDopmLraTIFEyZLZwFin0uLfhEe0f6SoZXyJk0E/Cq6l+aFRUvFALrbbKQM9DVTWDNknJS05Uemc1cNDYR+V+DayQH8LDO7usroQOM4Ge3aSGH1GwysB7neWU/aQSxenCJbPwkgL7PlBqR2Upc9sDIQKB6Xa4kDkkPc2ylK+vA3CGB+//v6j7be//b5TE5X9/R1BENpZVjbNV76y/fKP/pvb1Tu3tzf+tR/dbv2jv3G7ojod4+fuX/m57Z0f/7MJrSrEkEJJ2e/svy9+8QUMhDfffDNyv5SUJ3l4Xuu+EUMzmwGR3l7lfuZsuQ/4uoXTARKqe+6Vw7SulzJYDXV6nDNjYKAg859WEFForSTk1hzRmVidtTks7tvr5n7AcdOgORpX7X1O/sbJh/be/nxee/qpv6+BWLh0f4fqgNlx8iglyIscuB7f8FKeiwyNsXHI5jNgYBWyUPPCz8w6wDM9hoKAjPvQ5RJTYJQRtbdGUWjl/S1ewZr7FXo5fHVHJizFXUaR19+cgvIoi2iWmg1BWurxap77UUFghs71XA3UZiIJbSw4vhgW0jCBpjDrkORQsHyf9cT77RkKSjYNhvlMxD5B03a+QVA+Yr7tXe/tiSUXZvgjn4GgdxSm+dIOybKRgDCOV4oHTR2Mhbiv7oDttQUixoh0eVt1l+R8ko9/uXUhpubGxMNn/xj6VpGohBqcbjlCRT1PXu+FprE/Qdd4fvawZd2VIk+CoGlvtLFGgTHHqksxCUWxURZP1YaCKwVWDQHgfxlOx/OIkLd8gLg8Y9pBTtgfoFqWxw3Lh7QXI7AMxEJckHeF/CiMU+26zXHYntlgUrEpGW16n2cXv0P3ktf/WH0qLp5tL995ubs1luy6aljfiMAgl2ovqaS31uirX/3729e//nUbDMiVQooq7MC+hkvFeYnY3vEOkFllEGLEj+6VQ3iwJjM8gywAiWvjd8hNGzBk7OFERJeC3PZZTeEuH6URyviujx5u/8zb1UdD0unX/dSfKwRhnDmlMj76v35xu/09v3m7SJ2Peeb0jEIQ3vnxP1f9GrZn2x//5Md7pDyXfn/+85//5gjCG6+/UZNJTB1Sx07invIRWkEV7txxFIvWM+VteW2Z3lMrVQihxHJ+IgC5Xh+QQ7ObnRU8pGLbOON5JhS6YL/cL2SSXo2G5EcRogPE3gepBtnjR6ifKK08oElpUT6Q/VCqKJkpEOYcLHAlqIN5UxWPJa2Lz+jwTAX2fOVf4zfn1cKynqWVwEBL2ruIVvN4UwymCZnjwY9KXpq6Cj1F5cErgQSYw4AA6H0To8Kx6DDcEawmqx1gx725WR5drcthk42yzHT+WylKDCYhLnfVnFJhlKLu1s/78uOj72kLrULa8BqLPDQFPXs6j5wx1xmzwgkXCH5NjajImscwCptSsL3TnvBupiNweKYWtocKkChPDGjW21kM6eoHMsc4LQMp2ztQgxpXPVM5AMUJYS7YQoTPYOUztumZ6/tTYeozFtYStCLjkromY+Dqle1GSiE7hp/KkjOdkTPofTZ4R3iKzCl7jPsfURjO7fTMUfpVaXGhCdPgoF6Di4mlfTrhRBtF2cv9WngsluJxLCim5L3yTDUQVtGzCfmDaNQOWo2GuLb4A5pLOA66Lp0wy+GofSdFru8oHCJ+gO5x48bNblFMhU5QFhtAKmYVZI+W2xitb7/9tktUGw1KMS19hwJbOgZaR0jHa28iuUT8LEcLYwsjbmewjpAc69ioSTIXQIEhq4JITfnPd2fBJcaELK/1FiKnjAic3YQPnj3bZCD89q9+vUqBX1xsn/nPfny7+ton6nQe+G97QVQyjfu99+f/i+3eX/prXgvd68fci6H0MmdBn31xA2F4ujvF9FwC4vLIp1V0VEDaJLU4xRTHUmczTqQCAwG5MT239hhHPn8JlaXIqMs+lSnQ/lqo8hSXsbGmuYQTWqgOSyvrHZt+QchsEJQkhsHOQBjkMuAsrPOZDqnnX7nbQXFaWYazQOOnbC4/39g4kJUslNOIxp85EyZirVrgLMtjVxSp5/70Ijsv4wjPz8PDOmCI7g7HYafv9tNAP7j9nlBVIrq7SY5eEhgCjN9V5bx/wqNog6RQBJj3s0olcUN9S3M7vXDvlzCDucdSIAPOx/s+cFHa0KLPxQz3lBYsuRDkg/Q3oF4pVErY4pE2OkLtiYH2TCWFt17GYAyntpxWtkJ5nambEZTQ1zH0Xa9rQls5DyOV+/Ge7cnhCfnZEkrRuGeq3DkPbSpf0BTy0dkzFVtdMfXJY8KL031RkHjFJdzjIcThcbhmhxYt2YEnaiN3xqXHWbdHmUqkrbycqVOykLPqrIxAzBgMlS6a+U2pcCn4NpoHwRb+geBxV2YMMrrCRRAgV58W3yexNVAS0Asr6EkITdliKXDi9mSSuHX1bZE1X3YnSn1XoYMHLipVtUYoba2wg8JA5mccnDFQXZATrbXDFCXI/B1nQ1ypdFkRFfW8U/Ei9wlp0bJ5GpSIGo2LYkmgiciXtVYrbIZesD5zeKeMGwiJR2OYezo0NwjbZKzQHnvHVdu27bs+erD9wFffd5dGyZdP/pF/e7v9G//hlpBzP2M0YA7x9+WTJ9sv/cgf3J5+4/3evqqDsLhDhP+fvVgWgxGEM0LaonRC2RZ0K0VpKlAg8b7MYHCXt0GcaGK2qa0wjZAohLPj6Q5aZV60ITA+7PskXDHrDswYcFnJ8fJGWOO42er6KyWvrfYQeYir2reMV8tGj5lR5J+iqy5BMjIx8MQ0r208YFm2chQkXgxuNl49/F7R6fs7ITsKG+EZTHSivO8qw2vYVdkIB4F3EuYZa9CGw4SfWYszXIRpX0xPZRqVBeUtJX48EAsV2CNaFObpg9lx5XOVJvGSBov80MSqhUqOGIhPz2P6iCzlWCEEPH+jHo0oJIsmULIVZXSPjZvEkdtgG+VgMah254t4xCF8xb4/kh91fYybUqCXiwQ4wyjmCrTkbhRwGXXEZSUWap3K/phxicXBYC4sPPnIwVAtxVgExU5nTHy+93jOw9FrW8a0zsXqUje9cgwGz0n2JkgEjHavFTFke9nLQKqvHHqwDBnFs3GOyaRoh2RwslAmx/UmtMp5IrsARBH0hbM55ekcN575dPDwWAkbeJcqFTWVS/V0dH/Vv7XPaLtNnj7rQoVDCklp/rRuCjOI1ClSqDx93b88/SKW0hfBxoOyPdJHAgPq4cMHznKw4RsZRhEhshwwKvT3Rx/dCwG99JMNAteMyE/CWUfvHT4HirT7PIzvzVg/8z0dlhpz1UOAbMlYcYhI4wQhbT00jKJSCWUYtsi8uHChpN/21fdSeO7ZdvHGG9vrf+D3bjdVC0FGoTI6Quju8yXkTsaUztKDh9sHn/3i9v5P//fVn0IG1bOnLpTUMm1kZbxQmuPrr79h2b077LM08cxOQPPlqfDi7YXk4BShqeK3Vmohiy1Hqo7qDGkAVdXmjvIrX28t/FkpU9ISy3rGvncHBdLXiA3h1dYG2PcyQDCUh7SK4Oh1Yji7gz4MIq67s9h281Wenw8jhBb29jAkGpVIOGJyDhDaUwjrfZUQ7rh5LFcOhL5D7rYMjnmwqEewNkI2xCDV9TwZkDggMYd90cZLSH54HksJrmUtJ3Smue6F8o6bwnhAUOL9xtf2RacyRSkw3x1W2uu02o+HJl+99Vq5eccGBWNvRjFRnrjXeXEapuIf0qCQLJ7bQm0pZ/Zjh2+aaFvj7BALxsTgyrA/j6hGK7OdW7yHldkr01Ccgpb9Uec+rb0xEBJltLBWt0MKR+WiHdONgcPedWjkgHJNJei02KtK15JyUby7qhwWC14hgKXQW5gPou9sm1zPsu+94TNNa9+0acYPOlYcbbRgZDC1x5naIIJ0mQNCmgjnKTMKOVA532o5rL1Aj4hCXsuYAxEwcTMGzBCKRaYLolOvL3SHOZ6KCMVcMDc1HipEqR+KMDHHJcOr6RRlpQthKB4A8L07YN6541CDvrsMOl3z8aqhkXLqGoeMBWUr3H9QbbwLYS7ZJMWme+szzhzZNiMVZIjoM0aCRvjITz5DQtFdNorSo0DygTETzvB4R+t4G1au/rsywwo1KjRDPzhUzjgZexodgUw5QbGDXDqM9PhJwmCF8n7Xg0fb7/jaXdkC29Mnuj9clWpLXra2XltF7tRFGP0to4OQmveQQj4X2/anPvlKk2VnNsYLGQhCEFrRIOAOAnMK8GlRIbzxTNf2rIUm53yneA4W+VE5RwyfwOLzUMx/gwYgtEqRJt6yJF5PkBZ/HdTFe9gRlbLRiEWzAYDhfLDSKnY+uz7n+aGYydisFoSJt5H9AMRacHUMJ8oGh0gEnGrEhrjxEFAIjfao0nK5QhZFyHMlEHu4CxHRM3izpJIYgqC0ZZR2K7wV4piKdBphu/U5IAgo7Z0SPniTR9iRA9aZBNHJDYmfK5c9vOv1/YU21bol5BJCKp977oHecXLalG6BxnPbg0DMjsqKrC1D81wM8pr3zK52RrxyY8wDJQoSZ0MwxYOs7rqM+VIP8wzhEfv5LIAr22hneg8UAEfBimdkBFEpjtj29Fh97nONOlvVO4PX61oJzUVJT6EKac57nLbjQRKOCMgUcGVTldIHpVxhnrEjR4aG0cTspa5Pckw5Zf92i/i6/rStet2DHPkZPJbVw2UiYGQgGYAU0//x4yrPnJoOVtzKTBilxSmsw54lLXTO90RoPBMjLcdKpQmQBfbIIDmHzO085sgtqlCWXK8y1SrMhA5oQ0CkxOvXnTmi15wOmQJOXQ9Bha9SMAnjA0RB/TpUaEpjgNAM10A31nv3793fbr10u5ZuVKKlaNYsg866Mm9VuXAZD4b442TUc+/nTWeqK3+mVwNKmftPeQd6oDPhaqA5uzue3pBNWiLNo5CTaYC/8vRy+71f+fp2dXu6XdX/9z58VpkiF0IDzHCttGHLsSubQgo2SmQcOKNs265Yx1Va8d+4c2P7+VdeamSMddF3XshAeOvNt+rAhN3Jg5+Q+KI58KrPlfLtjdPWYAljb6T0mkeBIqKm1W8BnoU7AggTlt4bCIeiQFEcS9CFP3iAZolbm3Wc/u47z2w26jgyxoOAQOibim9Cy4a1Bvw1c29RzOR+70V2KTKEaj1vCU/ND1YzSo14pucyMWH927HdUcntHNJbh7UqGrYg79oE3Blvd0/YPCrhndZhjhKqOZIOMdIqYlPkuXMCmP1DFoqfa4dqLaXt2cGIivLoIlIu7Vo5+Z6kEeMv5Vnsah2sEtblGeyRoh3lsA3rblMbpdjoWGL8O+NppEKirCCXlnLEOKtaAnP8c49MIc/rvNYoyoA12Q9tnJLylGp6fU4pjY7C77bidc465p19Pb1FjV0Mc1cnjJI58gBAB3ZAxkifxOPqeDTCD8MI2P7QSEfPpX30RG2pZ937p5eusuixqWlV0kibX9LhxpKBrRggQ8d4mymgGHmOQ6eVde2TxI7cgrogeAwpDDUJbZH4HI+XBxkUUeMz0S/pdihRy0SIwAckCY+y91fg9mnc4eSUnF0ILZybIhaWoSJZ9MrHX/H9VKiIjITyliMLhmXpWHyULWGsCdOX8yI4PulikbPluV9JgaJq763PCR1ySMJdC5dc1/Mo4+FY7plziqNVTkZSOZG7kK+782QdfeRdISYjeyOE62O9CD1fcUMgP1ZoWfPqvapKianwWbKu9kPZr1LqowpkI1anUOZn7j/c/vl3726XTy63y4uapysuT74M4U3ojYjBz55u1yzKlBHzbLt+9Vq4JSW73r96dftPX395uxz3bhKlDARlMXz7N6mDIAOhwwtDg8wcfxRHCxnywwkHcMBHXWpK6DbEMvtgD6j4nLJvJTCZ1lHw0+KSUIOpyngxOBr6i9GxYO+18fTg1YlM8Xs8q8WTKMV/ykPgHs+Li9riHrBzW7y78EnAwLFHGuZKyGKHThzaOEeTNLmOe6KkzxoIM4RhhUnJ41V4ZM7vES3o0Ebf5JRHcrSsy4gYXUBDLp3Wtb3sQyy7FWV39KxrQPQRLO1a+qmu17HBZDRQ/ERz6CIuzqcuHofnqnkxtRmJzyMJj/NQwrUEbMWvB2lssPPb4B28BuatvVCQpaw9RjOGD17UMVzQyrUeYP2Mc9D7YnRuLGW4+nP0HLSRNIo2oehsRGWm8IzH3LXiivHv+bYHXA2S8Kr62RMK4N5ac9L3dBsbQxHqKNOJCmTRVmYNKOGsO5HvgzrgmJC6xplg/fV8e9h+GZttnLNGowupwxqBf127wcpthBZGB9MyBNSpsEqX65ko7IQRAJkRbxvF6p4U165V5cdUDmReue/cpz1vHUrdc7783APNAbWANGdnYoQfm8iXuDdrRyvnKR9ARjCoOVNdDEvn7cqV7aVbt7f76lqpdMjA+uyXKrak9EgZLEqdrFCFfrjOoyePulslTaF6nwR1hbeBEVgyqBwhX0scjG4tnSRkQnxBZyHWs+9w7mwMhKg4w8+6HmjQPF+M/wRlP7UN+nRdf3q53XD4CeLsytKZCJF3647fJpler4ni+WF4RaBIRz7LC1VSfOO1NwLQ1bEB5jPxK8Uo5iHiQY9oQQvcXQ+AZbFigXtTjXbQrQiGZdob7yQ2PYTiIGnx+QmNHz2XvuaApq2Y1BExKZZG4psfsbIuECze/FJ2SXeTl0DZyikwORw+zHmG43zNeejx7x9vFxfnWh7LKPrThzbQYZMZw4LG25klqSuGmOYksXbLYl99DhBEKK0OEwzY1XM1MkvIEkAQzcc5MTaOYazEHneeMaTIAxXFnuwsuXzcJzpXSf1CYQHL4/HaE4hXupRPZ6ueiSsSAlohmF430KkRWjks5S42epyXFh485yTUJ8f9OG73/xCalLj0NExQGtPgrFDHIBVGQHUIK2N3GxkE0wwHMsfApyI/Ko32kMWAMVie+B6pqRSrwPXdJGul1jXqMI3FIEwd7gspuInGkNKWj9tolIl2JdYiSOsPC+1Uf202f4pedTniGIF0oiU8U2e7PEalD9pzdpyoOD4gH3YeLi/dClvKEPkAzE7tABH7QC4hGc+MoHZ0xLyXYntS7H3CMjb84kiBenVYC8MuRrZj8aPpkK+t9QsSUrOTbpxRtpy1GfOl5wAtvCE9lpFenrX4FKqi6CqJStW8qL4Zd16+47HPxlHd7TKNrqioqEwGG3eqrJkUGKds0pfD9TAqjj9/SrHmnMaA7Yy30VBqnfuKpVnGUV00v+F+GE1MyFbGSw50EHLVv6iU2Z6v3rerS6XnNyEfnM+KOCbsOb7TqZntseS72dMdIokRn23ehHiTkTlrBT50VVGMCoUYPvOZz/TUna2k+OonXiOFH+1YLUmvFRyHYDKJCtoghjYCcShdvjMtG4QXQrmVZTyvnYJcbMbdojcR8Sh5D8S1k7dZ+JGRASFGG1zlUvV31ztvfl5tdLwRftdk1QacRERb78C13pwLjq9YWAHB9ey8t8hsR8OLw4rQ3EGySYlb2RiV62yl0f0QVntRDoIOm/aXWyi7u52IRiNdL+l8GqlJPYQ1As1PheS1xGA6KOiprDCQvHcGERDDZYaO9hA6M7B3lSUM4Usc9xjEOTyzkzBNCKcYMB5n8y1WNoqfM+Qn9pP14kA//DwzFe5XMxKyZeY5qGZutUYFIUc4xSPoM5LGWvobYWnkrM9mTv/Y+Ah+FCNzv0JAx4AW+3IJIRm/ZTzEaRj1Lo70EW49z/GsJcE8L0UdYmHOEXPZaGD2E2eqhfR4xmlgW/kma0QLagUeL4+UPdbUyigQtgsmZXtxRmdWhsc90B6f7yGwUcSTuGyv/MnTji+LgCc2PygZMpBeAG5KZU4JrehrH+gahW4q06BSDP2a0wdzNqLgcQqMgqULJGK01j51R0LWm/tihtA0dnc5TSGn3vsjC6RkSck/yRF9Vr0VMHgsTy6fOYQy00jFS7nudus3bDBQgwJnR0uu67ifg7KqmJftwsRAFKbWeXIcqLrpNbBQrsqdttlytgh/0IWz9soiuCIvLPdiQNkLT7jDz6zwk4mOVV2Vve71VtjoqTpDVgO7ljuHhlKN8KC4J5K+8/YLjVqG+qmCZxkmlDgRSs76lJGNQMZgfqFujq9+4tUmnZQFUN4lC4QwRf7NTYPFMGOeJbjUDrRiOxNyakHVEqXirS0ks6v7egdtPwXf0RBo+HuejHzIm5DUNF67csWsW3V5o354tQBe/cB5PmL8bGZP9ChLyxytA1rKQ0zfq9cKWiTDoudz1w0sO8X1Ii6MULRwGhYiXgNeBUKxhFvNJf/eQ9DZ0Dy7CrCoYVIzzVNyNl4QQnZmhdS9y3sCNlPJ2RJOB7w7im9n+A1vtPcE8cGMq1TSuNbxst71tRNBQPwMB5Kn91nFlHZZMShkPLD5Pea099VII93tNQhSY5x4A7saG2NWMG6NxuTk8pwI+5P9fFSGMVpATlpAHRjsVpZU3Rwk2Z1Rnr1S0xvy1ggjgAbu1iKHoY/XuPZEGOssF5djhpFKOK5YL/uVMB0e3wwbImBOTfwAACAASURBVFBrlIujMveVd0z4CGVoWaIclmz9zf38qaulzGpfULmsvup5TqbG9L5adKVhmrzcrr0wDAjLkqeXHcfXtczDuti2l27f3l66c8d72IhAGtGJYUZL4CnYz8LUqX6Y0SbMUcWQ2nvmDCQ7wOsdFIF50G+hGB//+CsuiSxexN3333cYYCrBRjLsBZfysjGgvhbhUtjQyT51/QPxGoywFP6A4ne8PgTpDkcl5LTb31rLZ0V6ZI/pd7UFr7AOBg0GAWuHrgEFx3Cz8TN68UBQ9LMqk+Qy91KMX1Uj2+iSLquiW94xna2XUBzev0IDF8mCGDIeneH9CU+OMzSy7HjOSZxk7899No28ypteFTlxgGsu8v9GSA7H9uc/+/PfnIPw2quvdSgBZM9Qc5RqbQLgGghUYQ/vlNKqiqZF4UELhkqMeYX41gEOxH0U+HXGDzHBgzCrTTAKMB0gWjN2rfQGWa8BgGfbrRu3XBVMz6e4FzAhmw9PA/SAjcXhbWjL7OBRfISa/2MOCU0s+K88UsUYITfB0DacCUmx0NA6rIptOo95lZmdTOOdoXVAVsh3xuuHEIeXNj0pDvmcf/o2sFnnvVA+S3jWzfv1pJ01uXCmI45aFDWvUVozE6I9yooZEwqxQDqjEE6ULXPRKbd7WHvqE4QxwnH/m/oZ6xzwnMwHSJHPZYzII0GTYkydNz+NDVraRpmgMFHW7e0MYp8dyfBbMIRXeDCV2w4Et2VQV2fQKVjba85E1n6IUGzjoswLiLgIXhMBr9V5w0N3RbdD0SDv79HiGwXkPcMZnfHVMRbOR92/0gFdlS+GUYWVykOkNr4+63sO7w2h7TWMQYPB0QoxKW8I9kZBtL5qexwm+jQwa48WKqlmT7qv5uPq9avuYdCk1EEAReZUp8r6vv7z82UvrDWtFElV4bHh3ulvoFFLToAodHfLLu0LD6eyE/Rc5vQk00BhERy84hdUG/PymKtKJYZxN3sKKRHuwA5VSOgCGUZ9BOsG9x640ryOTsscXCzOGQqbUI7nfYQTygaqWh9HLxojtVVLRA3hSP3ZdShiJPa5SGhN92r4f5cRV3MuA6M411VTA4OH8TaiFbm1DIIjqlZmLsZIhrpCILP/TgwEzsJEvdrQHB4+r70QgvD6a6/X4di0QDaDPN+/RfnG0cD9G49shDILdiUnuiCWzgbIpnCcK/nRE6LDQQS6hflZiiXTgwXEDOUtoGusJcPtsSnK+hqNWIjj5pot7JKuaGg+X65ND8mwpFJD6YcyxLV5siHzfBgZ05MHnp6eM1DmRFimciKUYWGTrJA2tJwal0p6ESJcrwTsQGUyJ6ScgjIU6Qbo0ZHZpVczf72uo+Y93neVil3pbdHhZRhwMg9zagg5WQS7vXWi0VsbNBLQH2HT1GM2AvW8S8zXW/n0KEf6ZlIK/VZkjj1LiLcd1hlhCZ4PtKDJYWWREJZDuPU+pwpjSmQzY+zLUtgJQ8ULnEKQFMIZpuDZ2jsiTbY9ixARY03U3NWZKZrWOmAIphp3MkNmTNVeVOY+Qswe5WDcdyW7kc3QGXgJ93VILnuUZz539lsB52y6wRN9XqgcOSpiFtpV2TEgRzOOzn5tukMbJcW8L8V8UISqXWCmul6viohdnGzXT6HCMsVPkuKlyFmNgJBSR1PDd1iITSzajN3ecZwOEwRd1pqOawjjFQ71mlqRyxsuQgtpqpUpV8qefQdSMxGjRbJe6GM7RjHK2AHmliQTAHnJXJcsrwqS+s260UbatR5S60KflWFSXUCvbFfU4TMl1DkbiyMwDmr0FHsYo2qXqeLy27WmdaQqlIOhQ4EjcRrYa65eGUcHYxbDTW/g5ePY1Nlbzsc0JHAW0NOl+DEk6lnmXiw1h8e7eE+c0i4fnvWdBirX1hL/H69+YvvQJNcKV+VO/v1CBsJEEPzljPLdr7/3IjL3W5/51gx8awa+NQPfmoFvzcC3ZuD/hzPw+7/v+7b/9b33tm98/RtlHAxU7oUNhJkbjadC/LAtpmHlLwYnBZGKZIXVI9gbQwPYT9bYLDt5LH0J5Mnnd+z4br85oAsIZ00yq9VpSHjEQNviF5SVNDg89yb4xL0BFp/Qla5b3uCq2d97YVQoVLztyAGY1yP2Q7hgxgqxUGcMjns4xCFL2sUvknucanKzFGrfiwyGxOcNU3c3yLWLQWq6NgCe5Ij9L75B5bcDDReqsdoh78IMI7wxvbYTesjhc/3+kdDJkDGo8X4nGvECh3MhOIM5vBtDo5U7EqD3dVAoYF57ELM98jnCbe3IKmwysj/KM0jluDN1LYC74VdMmBykbHoMO1h+Eh8Ta53x2wypkBfduzDzHJ7VJXR67M0lSGhohjuYBxoMQfLiO9StZ+4RUPCMIIMaMqeIUc4xZ2nKIn//wEeYXhGcpjqzicfjtmVfwb2Yc3BJjf2EK1whL3tD16EAjuSH+xKEyCsOQjHk1Xa6YuP6zK2bt4o0rBhn0Aldh/moMEQ1Y6J9NRyoGW6Z3rD2m0ODuR6/uSboUYcmDrUAXC7ISM++TPFxL/W85UwhA+YR03fIqtDrtb4V1tH/umfB6OKpz0h+UW6ZcIPvHzlKwTdSPwkpzAJXXluhLru6BLWNm8w+YHe1CgcJqO8WWjpDlHAyjKZkD9S/CxmbKdVwdNA1IDDI5kZ4ggLyvtdH63e5uZGS9UlI5Q5Rh1y5QwNAAPNelFwt/Wj25TM+QpUn4nCg6pBtX6gOghCE+aCtZB0jGZ3pmviVwH+CAGzKru52yLOFoQu7s6yYWDIjDenEQIApGojVE5Kz5jGOojQ7YTCESxsLaJ7E8gFvlMFw5/YdH1oxaIEiOx3I7UdhGS+4h4XhYLCpp6DmeVCcFR8qI6ONLuRyxsfGxSCg1rjPc1LydiGN3bMGLk7si+JHGBYzdWpClhyoiuREoGZ3wdLX75qHZD10o5d0cjwo2bmJ50adkNmEU/tQ7z5cxudx3MTkVmimWOvs250CHBaJ1szfcXpgMcZr39QiJEC1FOWhOI3XccQ6m8CWMR+FBuOYZ7YNMsP6plv3T4V8Tv9jbyPYZ7oW+8LfizZDCcz36swtxdpzz3JHQDOnut5UUrWva5EH6NncIpcFTh44XQO1X6VIC4pde558cVLCGFsz2fxCIFWyo2zcpox23rdB3XUTVojsaLgi8Du0lnWcqXFlnKeoWcYLO97jfVzVA6XI1V2QojlS6JN1j4LXZyk5rO+6v0Hm2IZi4uYeA8qefTTJyyHiFeeIn1Lw7DcUpYtBmUWf6qn7g1c+3eD4MHfwJVhzDW0y8afcKvEV8yplh81fkHIfKa+7GjDpXIpTqfOmrARCLVVoqgS7jArm1gGw1EE4CUXlWVZIdmVp0NnW5+YM4Zwshyatp5IpBoLlwWjBzN7FEEbfVZioiLgYFCZTpkS23vf+3y62Bw/uO2yi79JqvLkObZ/vDd/mYo11nE7Y0TjACehd0vGKFRXgmsiCFzIQxEFoZVb/8H+dmznCDi3AknmQ8gHesCgkmmCQKgMpA+FTls7a7B1pGfXTEfYIPoTn+ta+uRGvs9Ha49BhGQz3KRSsFEZXtON32RgmFOm/CM0llOopak6KD7BDYgaaweaCh+HvmMBY4vaccoFj4WwSt3yNdX4oC2thXyHrRQaNdYxxNj3E+VwatzuGxxOeglyK1IVTDkqLZ57ciZP9sxaklco0Dk7WM8JzL9OikIZn3gSykUOvx+fwecxJ3SwvKgZZl/AN+TaZF8TNUaZZjBpGh4HnOi+DZfc81PbooPLKOZ4o0VTUk0PD2p2gPAMdQzj4cLueauXdT8RqGvpUdtOc1TqWksWD5/duzkcGwjQQvNYFg+yMpBZSDmzXPp4eL8K0zkWqRI62tAjxLjAT2cOYeL5pOPfzpssh+5GiOVN2cLbgQ0CS9a5IZdf+zCG9tEjH8pIfb08fJyOL+iOZi1aqfpAyu9gCKBBIbdMztTJyxcqVccCeo14AniUK51TwV7vwJokeikSxVoXQlPFTXKgUHOtKmMsJ9E6PV8r45j7BsGG/TjRzGpUo5r5GS/xVfKu8d2VxrDoGvr6BJO+kBqqdETdIeRhI09OuOa0ui7uzMlAAXocEOWUYiMUylFL9MKTw5jOQdZc9MBV1z1V4bErp1D3UthqEuNc1xstufoOMHY0D9u0ObUizpzLgIsPJhujrrAJoDRJSmuRi2z73uc++WBbD8zwXBNpUwPOzU2FzmKel3IJWOfqw8HdErlUrwNftMsnFErOAaaZvrMRRkY1yyYzp6LWv8ZUYsC6dXvIguQElgQbYi1eu7EAdODyQBqfAX+xxpfokLYueDUlDbG/mWeDlc7C/izeV2UQvBaMAneY2ivmQATC8kMHh8+NzWBuVICMi7GEjGt70+wZDmlPY1ghdjypZIxgPaNNd+GD80WSbybeJUVXfDVlnokl7SyHbqLzkhRYHJo1TQ4fBOkSDLBToEgjUnuiVK9VBztXaqmBUCx3mIyEA9jAeqD7rOXZKWkEA9d7yskk5KoGcfY2BOdLQrHR7tyyjd6ZDLqJVUliHwT7XB+9Qz6c1J99ft6tMl9MCZdN4cY0Ml6ClEmImdoSnILVi3IC02bDEuRjj6/MB9hsFZI8z5DNS1RD27FeNpRGfWT9jpFBqbjinIrch+G0ABLEzMjSK0UwvjH3d6MrozwFSpZK3nRuf605DGmGOMVRbIwaT93wpva60FyQL2dJZSZnDIkwv4xjHBcML2YMswbgvD5gMn1UyvA3CkWV1RC1yDNsoRtGS5ox3WvdcIakCQopE3bJtYEw20keIQZ/RmQNKn/PfEHmjyzk7kXtdIjhrdDRcMBDmnl4G3KgUmrGy31C6uwyyirnuIHzOFwRhykzXM6zGZax9G/1uyldZInNv632Qh9aTQ2G1t4+vcsj26jDGSDc+Gv/8PXXe3FsvlOb46quvViihS9oOHB9pDGOZgzpSy8rqxJOOukjsUxusNvBqjsHE7YyS5gvsQxql04kYrjzoVlRRakA9y0A4LTHaCz7GUodv+IIWhiUg8e5jV7RnUBtrxZWncdzKZlZrpBBO5m5yDVBax/x5EJxO52omeAntGYO1QeNyr5WTPH/6XlRHo61tlBRC7VjzQvcVPDYVZ3NCAgfOuDBKcsiGCJtlFdC7gzXaj5O401rv3TUnrj0OEQLmxGgdIRkyahBsgoj1eVrIuvxtBfQ6xZLrTch9txcHfHdMs5yKso0nh8fi+c/aBIeGU9xXaJxLf1PnffBOEGi6NuPDi9kp2axxe1mZQ2Nq4VP0VNIR0ftk35dj3md6V5SqpcLdkgFBxYIKGbqPIvfzyBt8WrH0WVUQx6KMjso+qP1Zyu64xjbU3K68ziuV+UpBk4cu3lOQvXNhk7EJj8K13zoI4JVeJzFQnKTeA3ANYpzYax8tgqcTVM6KEJdKWdaB0V4Uj8mII6EvapVQvz/zwnUnwgAyAVeKEOFUpsjBEturCBbXs5E1OtiWPbDSYI97bRob7ajV4S2nhg6Uo5IfaI+bC7nl9wh/5RwS0cMpYz3Ygyh0ZOFCDWaKYf37CL9TTyCQii/tzyS9VONyh9GDkcDfhZQFlcHhHQZyGz5RHtqfGAeEm6ZRNSD1zr4jo7CNB9KLqfQ4UF/2iucmoWLP6XM+wzU/97nPfXMEQYWSSrCXojxnYWPFzjjeuc9Noc9mQTAfDzjKCeV+TsivfNJ9ag5eAV7IcZMuA2IRhOYGm4qFfwMzW+AkrjQPFpOfvZ+4WTxHBhCDakeqwsKIR6o5BhJSTJM0qVN4eb8ewOtTcNkT02ZOd795+FEekxjZG5xGN0ETpiK0d3TlYrtx7YZM+NoTgegdd58KLsbCMrFSmIhJ6sj4QoqOc78zKkY8rndkDNepzEoJBIIcglSG0jU1Mhk13I9CcoYgvPdGzwLf0yWEV5OxJXhWqKGVLt0hc272nuUIpBEWytwde1NM5ItzofoYElK6pnLjIcA11H8wECZBayq7XvMRmmpolZRBpc4Zcn9WJN6LKm4DXwb0iXmFkGjEweGv1XuBfYzgdmrZICh3DJ66BFTvG30YMMYgFM/5PioKzi19A7hvKb80CUrZbe/TpCrPfVFPipE4YFkq4dnrrMZMu3j4QV42t2PEyAkrzn3ecgWjDY+V0FnCohhNlYJeoYIKt5RiBzWA7IYi6u8l/ZOiRKAiR4MB+XHM1Zeh4LTAw8+K/RfyyNzYsHGBoeJcFIJQrYpBE+Ac3Lxx01c18kNZ7qAtoGbtAR9SyM89R6WB1oS6dHTCEqR7grxYtgdh0/XZu0D1NnTDueoxp2DSJIxQ92bOZTmW4WWBDObcgZBYaQfNYR6nTG/jY9RRmM4JcjEmVRmYtt9CYG2uyb6DavFCFuKpcX/hi1/45qWWP/GJT+xILyhXrAwmFs8I+LONBsNhSzFw0E698301v51hQNe76SmiiGih3EqnFFbXAUDhjroH+5j+QiV2qEWTrorwAxzccfuISJ6zrLHwMxpJWUiDFrsVaRRnZOzOM22BndgwhaSmcte/LWjpXDfCMm2ldxiiDJpo8ki61SOBDTy5FFNp0JSE+Zwequ+l/5mPUB5tC6WLqtl+5BNUuKK+B0Mez8njrIlO/fjzRuleAK2aDsS4a15LaCOIgKOt3OLZWViM2KzG0YSx1LCHXzKNTJQcAg5vtiszDmO6lcJE2QgHEWKY3ms8jTawDyQ1wiMoPp5hKsn2Lh0Tr5BWoVrLVCuPpRjYeKTU6m8YNoW3WuHD7B4IYBXzkmd7rb1hNw8S6UqGpFr8pkw0+9ZCOCRMK9RhxLGvDTXHu4ShzrwjTDt74mSO8kyj1jzFw3wGKbtM1sJAfDwdlF8fsqNE7EQpVRAnlQmHJ8n38WQbGpfsHaGM8rQLPbFsSMiuld4h1HniRR7GvDNg2nABaVghS0J2Q1zWPMcAmrn5R8XPOuGFOgODC02Im0qCnHN30XzSIQ7kyzSm6B3iywUVEf+gxlM1JXx/dy6svYHC1brYeFHnRX8/7iz6IrZ4rYm+X2TBNhYPToQuIgQRXsOE+qc8MaoSQ6Nl2sh2AxVgTR2mlaxMAzn2PmgHyExxiFJYyaWzR8n1QwE0Z764PHgRgdkn00GfKArGR8v4NkZGFdPs9S9/+csvYCC8sgwE4PZ586NCwhjA+uKzO0Sh99Xs4hcLDzLikYA1hACHr+9dp7Jh4IoMcL3awz0xY7OgmHpSXf64PB7iqQgp7pUAQtjuIf5ZcJQhIYHZDNiMmTS06Wnt5iMncXoYCBqnDtIOdaTOYZi0ME8YaFmpSStNDXc2BAIYT434qf6ucIQIaz2go4zov6kNf0QXaEe7PINVoAqjDyOjBU4s9blXMH5mZsesKe/DFHLoFDhY+FqDGQO10IdMlyyBVvQgIEpFQyg9u+wMlVJopUyn4LdQj3KsvTRijW74A+5WhkgbddmPk4PgLXQw9HaewbkwyjA62gPtGG3g7Ya4Qf+W4VR7e3BWYjBR55/zQbMex/SdelcojP5HeVyeVYLqwb37m7rqyThw+lcY7JOp7dBN4GIbcu5jH+PR8G3i0VKeuwZvhJlW98ki2sXQGPOIQVKhzHq/15xrjpa7oHDPQ9XsWNB5lN4YrOX06DC60q+C67aBcQhbTjh511cCftNY0xJmkWmHSpLszZ3SGi3Fy6BNF0CO+CRfGr5chGaMYyu6KNSJPvl+o5Q1wmF69v43kLtCPm5mt85J8RminIYBpmvLOdW++uDuB2W4w5MI29PE8FTbbCKyy9avIngakwwMGQUvvfSSy+e7uRMO3rHS6phztbR+7733OtWwi9Opt8K5nhQy+OR8eG9U4SWObRu7NJE78L+ORrAq+Oocqo31dGKwyISGKPyvbBjW+5133tk+/PAjGwrf+Z3fWbLKnS6fbL/0S7/UIbspd9kPOAzFB6i7fOlLX/rmBsIrr7zSQPDzDIQpCNkkn/rUp7Yf+ZEf2X7s3/+xshwjXHdKPR/GYp+NORCtePvTerWIuHzmBVeeMUih5Ws2kd7TQgmiclU/4i2jVkF7CgNKZxNonj7+8Y9vf/JP/cntR374R8pQjub83u/93u2dd9/d/vbf/t9KwNpqJaUlXllQk/bsSMOa3g75+oMYOL3TyVadQrK9+Bl3GmU9JcS1wfQsj9IpjvF3aMGkpaQQZR1swCi2jZc/iIltcQ6BgsdupSEmfOowTITGBzS8DhqgQF2xQdWkMiEQo71uqtDt6lBIUI7a+E38G4q1jLSKXyPAEKrLko8xNEMv8Xqq5G8tKkYTe1bzQ3lgUtbaq01p2W4UpZx0yKfZe+RVYwyUZ7AMWT9G7t1ERBO7y3NqYtIRMcqJPkfuQknuPAr4FBUPOjFkHropzqNWqKyhyxVfveLa/ITvCLnVWhZkrzOnXHajRDK0rqnp2fU+gzPsRdpYiexBFmtPqfpqdC+EIUdaV3Y1yIVGgLDMNNhWVGk7bdQj3qeMOzUnc6OfeLuG6gdKZ09/OBElFFbmB8rd6EDIekcHCYIf+5T3W/HuGvWUYdN1Lg7OzTQ42VPal+rA933f/33bd3zHd2xf/tKXt5/92Z91CuZE/6Y8KyVaJEb4BHMtX3/9dSujmeXlvetDEoH2bNu+9rWvbV//+te9P6Yh0fIgXvEkxZWirufUP8ur3rbv//7v237X7/5dnuK//Jf+8vbTP/3TVTshZFldXx0haQOuedR9NSQ893ISKuwiQ/anfuqntgcPH6Ci+rfXYIRGeUN8pN/zu3+P97Ku5T4MT1MHAR4M4Z6gNt/7T33v9v3f9/27vTxv2E5Azqz+/jv/59/Z/sx/8mecDXd0QlbWXxlRnGedvz/xJ/7E9j3f8z29Ln/hJ//C9hM/8ROeh7/61/5qy0AZGb/1t/7TXa56hi5Wlssy0sAZv/TlX6OBcA4NOIsQbNv2qU9/avu5n/s5W0A/+qM/uv2N/+Vv1IAT5wPaZPKACw0zH+LKHMQ2bQLt/M2/+Te3P/Lv/pHtZ37mZ7p8M8L8Z372Z2zl/dDv/KG1Pq2IC/qnn8SOiNiEP1m7V7ef/m9/env//fe33/f7fp8Nhfe+/t72zjvvbn/4D/8729/9hb+7/fAP/3AvhA4VcOERMWlwtz3BwOexYKdhsEoYR2FEEkoBiCRWDU5WDPvoeWsOf/8f+P0mZv3kn/9JTxsC3bBYyrF6s11cNeGNMATzh/fo32zmdl3i7VIHQjB20jLbiwm5SM+FENCjNwHJ4Yew4inXG6i2vI6qMSEjoI2sCOT/p70vj/epWv9/K8pMEZeSNCEpc4gmmUIyFl0NrkhKI8nVILo3laFEt0SGS9QlpYFSKU5xDKUo0uBIIZSoI+P5vp611vvZz97nuKrv9/d6/V4v+/PP4Zz92XuvZ631PO/n/QyLRtj/1wuUSsiPKaow4eSz1StpQ1KalJ2PMUYMkDMMJuOe8vCVBdEn6YFT8fJ6Km4m/rl5NpnSDM3xWX5/kCKNvGTKVZWovgLdSf8LO39ymIzEFe3pls5BCCEwyi1YuWAkfKMaT9eG/gRhDpyXH2q1JUbs5pZgxXiqbHZjy8Vk7zO/w1KmVFbyjs44BPCvoUuTxMshuzkzNFcUOIlAVFgULpQhr8jD4SxTwzXga/U9EPGUrc8lkI/dN9RDNrShe4+GIsSQ3ZHDZDWCA8H2vaTxw4RpYjHXAsOVbFDmjaBX4Nm7s7VUT+cx2Gg5QOnhhx9G+fLlY2tUxifGUfRldNx7SEB0+9aDc2d0w4F0bh4O+JyTS5pc4o1v0EP0MC3jJX+SdTNv3puhQVHuhGnOQzxr3ifAy7xkZ2ejX/9+ePLJJzFw4ECcdtpp7pHff/897hlwD26/43YMe3iYX3cB2InBZuUR94iTXwhxyrsK8ClUqBAmTnwOHdp1cCf0WrDkwZFPhuQ95LTJl19+GbfcfAs2bdrkE4LZipkejglRcv9e2vRS3Nr3VlcFRXmpblIsFelu2RfiqQ8ZMsTntgXwSs+fYYioFDVKHB0+YrgDg507dXbvLsBcvi9zWKRwEbetRWbNmjXDRRde5I8eZ8JnWCE2UZE6kGXvi5cs/j0MQknuCy1VssbPb9ZIUXNlEiBQcF988QX63NQHW7Zs0bMdqISp2OxPe8+YAQw5DbJZli5b6h732WefofeNvZ2AXMz+qHyYOXOmE1S7K9qpByb3sYdMcb0nj+eMvH7J1s+Pac9Pw9atW/Hg4AdRu3ZtvPb6aw5RT5o0CTKu/v36K+XqPHRuOmGagveoqM0cMKKsgGk6dVKFk7yx5gQiB1t/2OoOdeECpmK455578OZbbyJrfZan48KAZEFe3/16DH5gcNBBxktlIpNhNFyTI6l0CHSpPjwR27XGh+Nk90T7HUcFso6aXkNQlmKERRGzeoCMRsQQRV4txyPPdQlpAhhM9z9bImU1IuVKz1u9NENhyvU2l4GsgYaYtKTWKzq9h2FQ+O4mkK9ARa5nN1CbE+PAQR6eMgGflgPH6FbTo0DZhCjJiPtGKXolNn3ozSn/cEqfen6G4uQedtV3oaGR7T3AcAJpUtljhQoXcgBOY/uMN4d5d4bWJbAF7zAwQjJ+7xH7DHJXDSMVC9pTPxzFaxuxhTHEgYCPjaijYWl3r3Ri+0HZo9CYx+en+A1DL1PzBQKF7fRF7NRJ/zz7PYJZrwYjUOnXkw/nuMOUyECGUChDZ1zjfHZkdKOzVJzh3rcPxYoXQ+1atbXJkp1mATU1a9VUcLBr1y4UK1Ys0iM5Objrzrs0QZDzRgaUbIQv2wxnMeSDa/zUpEkTB+74sQDX7lt5h9dff91XANmPKU0kQ+YdD0HC0QFPd955J8455xzVc7FbhD34ySefOKfQA+5QMu4cxigGT5ZR2dKcHHdC5sRJE3H55Ze7MbmQnzmBlsCROkHAzhtz33DO7caNG32ybektLwAAIABJREFUZWBz5FomCTuDLMduu+Otj0bTppfilltuQbdu3bDntz3OuVQGkOynN27OXo0ePRo7d+3EoL/fiwLHiH7zup+JnI6hMrk03IOyv0Y/MRoVTq6ANq3bRMfBJ/RDv3790Kp1KzRq1NhXwKhdUWOhIJ/7gHP6+wBC8QAQmDegCXbR5gy+sK+BD8heQgzz354fWyfCJkyfPh2PPTZcj+NVTyu8r99JIdGQXgI3X2ITLlu+TO8vsaJhw4YhY1GG+91Ls19yVGG7du1CvkBI1TLek1UIMc85PLdcuXK4+eabHa3coEEDZGZm4u7+d7t7ygbM2rABY8eOQcsWLfWIUb0PY1uk4JjtHxiSUyqe4pDsN998E5L2jkK1amc5atDJMOLhkfFBBhYvXuIp33z5UP7E8ujRowcWvLvAvZPNk5CxH3/88ejZqyeGDXvEK7TQ1IVIW5srJbxh9aa1AiC0Jg1lnVQirOull2fBAcMTbrEFmtUjU5+kyXHp4VCM5dp4qniprgGV97atN+8TzKJeEjq2EJrl92SDyQaVuWNGNN+BMXT15Fg9EPIwNEci0OY8jpv0H5W6SzpjQxS2VaaXQG8kGCunDvNHpVHWk6fxcuSBzZOgd26YFe4P6wlbgKBVF0FRkJni5ufeshStfj+se8cA7JMwg0/USoIjBxAKFXJgXN/d7HS3dH1ajjbWocyYYEaPTTxTuQ/r/l0SJlmroHMIauT45ZgiZzJw3BxF/0s4Ln5NRt1AGb9W2XhB+GTi0LfCEH6arG3DlWSkqMf0UDgqYj4zxPbl1yyjo+GwOo/zY5v6uO6BBw+gRYsW3sPVKqOQ/C30/tat6NLlKm3LfOcdd6Lh+Q3RoUPEoL711lt4adZLbo1FZYARmKJ3qaxWDhwYufCiCzV3Q0NShpb3BsyDy7lz57qusxa8HGp6SOvT8XnuuefUs9/58048/sTjbr5vve1WBTuiS6699loHuuw+3rt3nzt8Sq7n2GwfEMk9EIDQunVr1+ba637/8cs0aqEsfxOQ8+abbzqndsO3G1RvMQ9CfjJHg6yL3Ehsgbxvjx43YHd2Nnbu3KkAVHs1MC9i/36MenyUu0YYE6s7qQu43hWImcTIvn37omzZshj494HKDHl1E4Femf8LLrwAN/W+yRySqIszYqKT1Q3IwZIlS34Hg1C8hEqRCNkyCFwIsb/lA8S4Soghr8+GDRuc8Xr/vfeMYggaPmxqKjadwfAPInWZxOUrlsduL4J5efbLLu9B6CGGGDQT3VDGzlaFrFgKlZucXtwZZ5yBcc+Oiz1DYnryu1tvvdXRXsImNG/W3KFBdx+TtEOwQG+b9xV2Re4tn+3bt2PtmrX63YjF9/Hprl26ICsrC4syMlClcmUIhVW+XHns2LEDI0eO1M3AZ8vPCxpf4EDErJmzYmCLMX8JKXDzsAOjKk5j4GwugfOmbHlfIrmHY7VMiawJR9+FVseOZg7nNThFZ7w3D35CE5jAbtCzVWMYQhqM7dOTcc8M3qT3+o5ycy/9zAUw+AqNo1C4UGGnQAWoMks5OcYod4H5ANF5IjYUpR5pYKVsAqVNclOWzFbbcEXF4mwhpsu9m2A7mGUe23uJzHoLcmV9cy4U8IQcB2UMQj8A9WaDxpT3F3DglK7Q7+FDOcqriXIW46FDCQlwSS4xerZnlaQkU/JiGIMXOYpHl1+YPwkPBVBo2TKvweOahMaMQMteEwu/RQpK48yawe43TaxZD1kY711GteLekJgeMOZ11PMKc8Z5CLf3D2Ho0rBrXE9kIXjSLfeNC3mFnAfZz9WqVVNjQ4PB15A1LcaA60McG3GQSp9wAv7+94EO0EnHPtFbsgf5sffR8FYAiqIeCxY8FnXq1IF47nJtrZq1sPqz1fht92+a4+PCqsiHGjVrOKdFvO/YnOXBMFOv0+AK+1CocGHncMm6GjFiJJYvW+aeWalSJTz0j4fcnhaD7RIHtWGUL7WUfASXMxLyXnRdhIEKmyIAQQw4e53I2hQnrUuXLgo85XkSqhk/fjzmz5+P3r17Y+O3G4MN9GyY8+4DsLD7UcbSrEUz3H777Q7E7Nr1i1vrlh3SvLIAZEaMHOEOSho0aJDuV7undI3kwRxaBpTytvvCr0u36cP7cymG5nOsEgqOiDId4f+ZSzMPDxCKFyuuN1eKL5GFG+m7yEsXgPDOu+/Ed3X434asDRj2yCN47733ooZDhjXQDaalhrlZBVFiK1asiN1fBDZ79mw88sgjLi+BIQYm3kUXx+vxufFjPwGceeaZeHb8s7FnyOKXWJ7Q9zIBQvE3vbQp5MAPe9iUUw4mmcyCBJHNGWdGAOHzzz6PKVoqqSJFiuKBB+531GC9885D1apV8MYbb7hJu+iii/D4qMe98TXK8/hSxzvW49lxz7qkIW+I/Yc91IlULYBx14X4lKVyoxdTFen3tsaAvdflE8ni9+D4Nb+CWepMgjQJYNaLYyIYjbVjIFjWJN5PoqQn6Xkr2g7bWEACDZrcUxC7GECCiSgsFAEUq2jceEMdNXMI5Hd2g1pP3S6YpCJRhUzXNFzgj7omRW0y8sPseUo26tshX9NmXVQB5kwDzgXnSr2KRCMw7zmFBKVAZbqsb2FgQvdBLx85hMiHosi8SJWC9dLsutA5c4o8VNSEHJ29e30So4v958DFt8UosDES55o9FAgEY2vReDzKfJm2sjRABJ0EWM7TDUf6Ery4ZF2pyCiQP0rIpqfPNrUMM4UqK+vAiAzZI4C5C9xj1hByDiinJDNDsKr3DsBI5HFCmRNQr2493aP2XnI/MZpCa/Oe4jHKmu/YqSMuuOAC9xrr16/HkAeHRGyA0VExNiMIWp4ryd716tWLAELtWli9ejV2Z++Ol1nnA2rWrIl33303xiBYOVC/OPBnKAYnP/esQhg7dqxbC6NGjcLiDxe78VauUhmDBw9260XGJYmQVv5W5pwLAkzuU2EQ/j3132jRvIXmUwjIKF68BCZPnhTT8aIfOnboiHlvzkOvXjfi22836PvSsbEMngu/hFyHSy9t4gCChLalCiI218yBcyDGH7c9fPhw5+zdd999mvtikytlnAzHKvANa19AkdcnIdxoDofTdcdQWwC4ZHWpb8k+xwQQ/vO7AEKxoiGOlQfNz5eIGZTgFZUvVw7vLng39lxBuZIsM/yx4ZrhrWaHAEGpef/VpDGT3/kFdQArV67U+8sGkdjUe++/534nsTBZUG3btg3lcBLvit5U0RJrhk1Mns9kiEHud36j8919JIFGjLNMvoCEF158wT1D0DoXrfWaFNGxz3noUlexYkVXBvbll19GJTeO2vRG6qyzzsKVV17pFqmwFt5IeS++Ro0ajvYbNXJULC+hVu1aLinzmWeegbA0MU/GHEZEuapXKl6K8yqiOm9VXmbxOdkHiTvjZNgeevXauS00FInOA/CeODeuTRJ0ZZwBUfNwJEvtkuZ2STZBwTMBznrN8g4274AZ6PR8HSgIrIanJ00JZgAtSeVtF3ASUDF0ouvUsio2TGb+HW1I323Tejq8v3qunA+nWEJJsE1wZLjMgA1V9HnQ64c1UOYgNcfASLLiAX9ADoEAQwFy/oDMf4FjCjh6U/QQOxpaCt21mgprXuZDwIfE00UXSF6NzL3kIUjVjfxk7JVhh2gdUh9E4NSCSgId3/Ey8pjUQGkTKl9Z4eXuE+To1WlColcy6q1T51h950CLxFGC66bUs2Eleb2yEeFvlm3T/eCArz8rQHNbTMMv0Tcufi7VSeFj51Ni3Z06dVJW58nRT+K6669D0aJF9frJkyb77HYt5Y46UFrmk2uIAEF0nzut0gIKV6ovuUH5XcWLyFPmTMLKAiytsyXjpcy9PgyaxDg2sq6m/HuKAhwJ4YrxlPtIol2JwGTLfcQ7l4RGanPr+bqSV3MgkshSxlGoYCE8P/15l0/hTtIMuWLiAAtwUEoAcA5E+/btMf+t+eh1Yy+IQ+uY0AO+9boFsnQyCMglRHzH7Xfg8raXI/vXbA2ZWKbSs3seIAgL/POOn3HvvfdGlR+BuXJlxeGkXi8xk1eTk4M+N/dB2TJlMWDAACfRmLEPYKRTx04+xHDTTT7ngp0WXUWYD/2qUk8wdb8LIBQtUjQWT+KGzRVuMABCXlZocEGTHNiaNWvcS27evCXE3KMBKwgwHiZXtdtMJkOai5QAQb4rlFevnr38ogleqXjakjzS9vK26il6atVLgYl0MS/XPt+gPXmmoPMeN/RwXrvkN0yePNnlIYh37zYE6+xDaRvHxE3Mn9ag5WV8WrZs6bKGJfFy4sSJUQw4AC/ZlFWqVEHdenUxdepUt4CqVqmKq/96tUvMXL7ch11imyd4/M6bCvkEMQaA2e80mPbF/M2ixRuUr6MpSWOHHv0uszg0uBHvjx4mk9Lo8XJOnZIOFKr8Tpu0JI/NNsbOx7BD5nLIodA1GVgN8XZdW9RQT6/7KifHeVWOUQoeee5ERr/cmZinjg5tjgmNJDeWMiVkbZgBFsbpspTZvCnkVvjyvSgO7MRtmqFYo+T+FkBIVHKWm+/RJEjVJ/4fykD4CY3Ncqw+Xub1wEHNQ5ALyZywGsH5LaF8jH063DywD4HNxQhzLPdxoYt9e/3pqEE+bp2EOWEFioYaDGj1INSP1yo6BQUJBRexBmb8NHJJhyf83yryCGwF4K5tmn2jnphyNdLUve6At19rDGXITzoQsdyccG+dF8MeqMHOOYjzzz/fxeN5D5U5clCmTBk0atQozu6Fef81+1fnfduwE/WqA9bB6bKesfyucJEiqFu3jnO45P9MopP7lC5d2r2PsLYyX23atME777zjcn9sAqnMmDsc7IBU1JgEbJMTIrIUml2cH+4Bu0BdGCNfPsdkiCPodI140DyAKNE2mOMk8BGZiTN3ycVRRYbcT0rZJzw3IbYXBGx17doVCxYsQM+ePR1AUD1OeGNaFXOPyjMvu+wySGJg61atITJ34DkPx4sMm+RZCECQsbMcn38j/LThA9o/uWbsU2MdmyzPco5TKL20Yf/+/fujdZvWaNigYWxdcP8qmLbrN7yvMOWSBKm2OCePq4Wa8R+jiJiwGN4kL6NXrnw5J2ChokTIkvDgqXPTuTBQpuqZuRi3+o4+6ZGeHZP9QixXFpQYQ6HMZr88O5b5L287d95ct4BchmfsntH9w0pUg+AVtZFUwgsTkCBlRlKJIQmR4u1ICc413a6JA4RgVJNGyBqHSOres1ZFYjLO/YQHj8lUPzhlTa+MB6GEDcTfW2DilZOPZ3qQEOhqEyogOmWegTfe4RRKjUm67RYZV2tkyCaweZFhZLR3gXlXiprvxEXNmBlzFSJvkI2w/PM9KxAOGbLhDpOkIwuIZZJRYpeXZ0Q9R2VD8k7e8IbDnMLas56aBZgW3NDYRXMeT/6yxl3Xo026TSy+GAVrmQTDdHANJbdtbC7DRepth4qA5Fr3CsYfXSzrjqEE6TOiYSwnd98oyR9VGwEWZT9M33x2UJT78ahb22DGMjJkoyQXQUIZDiQF9sp5e+aAHOvt2hyPXLRz2Mv0rHhPq83yWvfOqw/hHsqY70BDyjwGmSc1+MYb4zOTOS3yPGbP+3UV1f/Ti3W/D4mInFvKSuToz5UIjbtYbRPCHOJcdL++uw+XBKC5bes29L21r/OcuZZdwq7RxX6JGao6OFGSF3DRhRfGvFdrgCwTK7KaN3eeL/GL48+YAeb6j3pC+L0ijtbgBwfj0UcexUMPPaRhWKkikNwJMaJDhwzVHACCqWhte3uhDJFx+KQCRNjrVpe1cuvXJsu6KhNzjDflIGBHevkQINA4674Lg9ReJgAua3kZ7rjzDp+H8V8+ZI5kfSxauAiD7h0UA18ufBAqgnLlFwTlOWbsGAgTLWyHjEHk59bngQMuNCSfu+66C81bNEf9+vXjiYwEyglHgetNpm/p0kzXS4OffH8UIHCj5QII+QCpYujxtx6uLlcSk6xZjl3PhLQwmVamSZrKIjGHbgsXhtSrJmOU8jcpw5JZl7O2kxQfDUdM8QQlHFO2hkVQry4fXCMMAQnrvlznvPirrrpKO9LxWdzsmnhn6MIkrRMz2onkSSpOz36EGnYDzNwcBJZFDZ8LU5gDXWJlk3FvlWVwdi4teLHxLdskRj0RdnlkLF37xiv56psBGSPuNrRRpvLejlLO76lqd3iPayAU6uzJ+oTFzHmjR+kObAlla8l1xnso/RZkSAMZGXZPhXMtecPhzXRk0KNTR/X7sTAAKdt46MIqsFxrzoTRCJqYu+jeJZEo561yBNf9utB0/+BZ+zkmEDyUQqa3TNpUjI94f8zPkEdFfStCBQZyHDgoWKhQLhZC12hkQXzoyJU1RsZHAQMVoAM9PvGR8lcAbNr1yqhdlYqefspEUj9HtuTW6goCcwW/QdDJfUjj4kCq5hyYHC8T0tFSulBV4+hanhcR5oy0vIyFiYE8FZayiioiPGWvYDScc0BD4sFNYLdCS3Onx5inFZhTSb4VFq9wkcIoc0IZF2qUceq5NEYPJe2XpeoJnMTQSaZ8qVKlNdadBFgM0Ui/AEm6tkmQalzCe2reTqIBFQ025dG+Q3sHdOQ9Zs2a5dhUrg29RzjLITKkPPvGP9WH5/1IhLl4+ZWXNVRCQHQoGy5yl9wYcTD9eRC+iZS1SdSd1G/ynebNm6NFyxbh+f8FJZkHC7suzDQBtQVx6iCG6y07OGbMGFfaSps1YfwEPPWvp1zVloTa2XdInNoG9Rto9ReBjp1vKwfOvTAIhwUILsQQlJJdGDFFlTBcRGNKaSapTpYn2Z9GqegkqFEJ/lTCo6fiI+DgIKn0k+8beaOe5tOac2OwrGJx37cnxQWFTa/Bx1RDC10m3gXPJwYQeEiIyRp1psjQ60SJXgyRYbLefmS4o/I6lYFhYyzb4xabMWIMM3i7ElUmWLqc3ivjeVwwNnapiUFhDnUzGlkybs13pNFlZrZ6fByzKQkl8FEPysiXnqCGccL4kjE4rbpIZjabltV8jl1LMTQbyu78eucZEVE2sKXUfQlmSHQM2jySpbZCjO6T2FfqGdsqjmCfErxXtCfz0kF5MHzyBaUuGac3DJ3I2VUY7N2jTZKcIjHlmwIMxDPVuGgCqNjcG65VzolNJOPZDu5vPDHQ9Q7xOSQiM2XUgkEjxczWzi5cE/aTvdYCeVmvzFux+TVWyVqHgN+1e4ZrXw2dAW3UDw6Emv4iBBouZOaOWPb9VxQo8tjso/0Y1PKHnW+fHxlUDzrZWU9ZRFNmS52s4VN6uMahiMX/k4sqUepmqW72iqE8tONoHhZWAbX5Wwx8mPVHXUWnwTeEEhCa3yVmykcYEAEqSaeC37Flp5xzXQfBU5bvSj6d9otJ6ICkgRSQJaEGaYzHfaC6OeE4WsBOPS6y0wOh2BPG2LsYKxDkYYG0s2lmrdnKKPbXENAm/R342bZ9my+rPJiDUypVCo/wjIIkqJKFc+OxDZOMDrHzJG0EDgsQNEnRKLOY4bXKKJGH4CXrX18Xpk08TCQk6n2TgCM8mwYhtgANA+Gp9KgpCak8G6Ok4BVU2E2SR3iBCUMxKo3Xcez0kE0cMzK4IWZKTzBQ9DS29IasAlJGgBS3m9AomSQCLcYzT8RfNSmIXgePDjbnBXgFF91Dxuio49gpfgcckHGnSjLJxXhXbi4o9xDKYEtQt1nDaX5kSeRaKjd5Po24W7ChnjoWWooEoxvB0u/WmHNDcR357PyoRSkBkTyfmfvuHZgIZOO+9oCU0Owp5s0lWk7LuJjM54xxaL3s38nPX570pykpY9KQe09XNWG7NsZGrbLIZcDc/eKnY6qRd4LJfew3FaAABGb4i4JjR0WRsbyLrA1ZL95wHHBzJ2ViLsHVMRY+69IZ86DcCKBsjgMNDxUV9zO9a9a36/rg/jc9TGy/gRhTYvQRZUhAaRvOxEBC2CNePJ4FcnNoOiHGr2fraz9mvwfCuAmYg9aTuLvrhGiPtDf6LOnMMIdKmT3XBTICUqyWcKAohBllnKzE8PMbhS50+wQGUhdO4h/KXLDlcHgumTlqcM5rPPwZhf/IcsTXbsR6iRz1bA+Tx8G50nVick24R7mvfKfLcEx4CJkySZTGxjJQCkLoSIRjtC0wS8rFnonh3jmsaV5HIGvDLe5vRodw/XDt2H0o72fDnrpPYt03PRMs7+LKOE2VkmUWuWYj2fkR2zXrbXCUhJ4XQPDXR7ZmxUcrDg8QbBbsf1PMuQSVXIDh/95ZjKhazxbEoSyvsbcg1Zsrfs5YtxWA9YwYV0uUHNqxqME11sYb6WA8+XoBYZOypCFiso+bdDV0Ue0zwQINv/XEk3LTe5E6NPF/nWSTcEYmgl6MU+bBkDPeS0NNYx5jSZJhFEI5ZmMH4+CTEiNFYKy15kkwWU07x4WcB3t+uq3rzdPkMQRgWgJzMVt6TzedeU9uFFViopzNhnMnqYU+DFQ2tkKCjFCU/BRKQ0NujFuDJn/Dgka+m80UjlUemNyNvPaK3cwKEDV0YHZCgkWL7RFer4yM/2syq1u9ZnMIkFLmweAJOJAqA8ZnCazZ04KevDuDIxglGkHrUXHuLJXuad/oWFsqdX7fVky4ZkxBQdt9xMqXJAPAMByNfV75C1TGMXZNLSl3deRlufUUykG9/o/3R4iBVNvGOoBIsh3q2IQ5FFnS6eH75spTMvuB+98yBNz/CtQNmLDriGNIGg29J716yyIkDAbH6YByIj/Hvjefm2QluT/JgujaSPSj0cOmgv6ImF9hbENiomEhYp5xOBjKOoXK7Ok85j6wiuvGOyy+t4KCowD+rP5172QcRe7/kMygh2IReJE9IiNkGWOrBzk/7vyi0CI/r71iHQO1oUyKDmtZbZGpTsoFFJKgIYxVhrZy5ceHBwhRkqJ/ai6lbhXWf1Fe1qAwZpOMkcazjr1V1hgwQYUFE0nvP9Fgx06OKgzTjCe5OVWx2WfRM4/CvP4YYe1mFqh65z1FJ+VZWbnNyyTDQKXSq9HrLGuSYGUUlprNaw2D81xDq2SOU96PLUCZuR8pYnO0Z4Ki5uZmDgC9fVUw7JBoykPlb7wuFyo2FQl6jTHqSfAUYySMR+eeEcohZeMmyxxj3iE3hNsNvnKBfQysh6heE/MMTNMcZTmYlc9rwnpIgizdGQyT6OEvkTev7JU95+EQIQLuM1UE4TpbhWLpQM4715lXBMHIBaNBYxkpXP93PstSuCJfye9hVzpS/FwXUt5IL94acIaNrHy09joYHO5pKk07Rvc+5kAkPcnUNJoiw2L3gJ/q6JAtO7exuUwCYCqZcLOk4aNOsOOJGA/TldGWVwYQofvCVKWojE0jK7u2OSaOJcl6cB/qKazaYyI6syQvHe3kY1r26noh4GGzHFsNYOhf5zEHtlC+q/MckuKcrgmMYGwNUK7huzrnhoV0vwunRcq7x3JGXFjFV41QTnl5x7mYRNUBEZjhGrGglQm43BN00KxjwYRVsiZ5ARuuEzqJMfYpOI0xEBXYH7kXHRLqJvkdj52nLCO9mJsdsvvZJpm7ELE7GyTqZEswHwO8nHstgfTgZ+UnKw8PEJgNmSc8OGR4IQ9GwK/IRGWCuavx0mNgQsvB3Nb1tjI3TAm/jyfxkTKR0Vpvjven4c7LSFGZJylcJuTwJ5UFF63eOxhNpYoJAMKGdjS+R0SKRC2Q0PsyCY112dpDXkWhFRT+VqTqo8NYlOoPCYQ2PqbKNhg+9TqCrG0c379t/MQ9ZSUSCpKbiotX7sOGHzEP2sxnlHxmxmCYFMYXY7F0fZ+gFgMlRyXm5B/yAmJrwBp61crG5CTAro4j0P5RCMfQzSE0oONLhAo8DRrlIsS8AMYcbWyQVj6AE83ZSITs4oYykoN6OGTXwoUxcGuqIizgUDYgUO3abz4caESvRcTo4vxUdJql7xGN3Rf0urjG+B25jglVjqJWMB6xcEyyi+UEJVoyqxwC0OOhS+plh3CPLSWMdEp4WwPUCTKSesIaI/dMm2OVyLfiO3kDGJpbce2ZueZ7+H0fNXIj+6AlwEkvkUbfhkdMmCAGBJK5JwpUTVO3EB5TDznsz5iRMRUeCqjCscIEksrkGNbVU/pRe2jqKpZBk6GLMTxBRgRbNseHwIHgIbfD6dcPQzRkB/y8+mZk3pCzjDskIWo1U7SzFFwl5zumMkJbeMvMaaJkLNbul401yAy3ht+zH0hMH/M7iT4fCkZMAnaUoBnGGBxau5aZeEm7YX/K+/0ugCAtOu0nhk5NzoEucDXicbUVeVjhXzHmwXQ2NOggrE0tqwsaJ1edLxWReof0+o3XZ9Gv3ie8K+NXVCSWsso1CsbyEnkIFK7KJ1DzzgAH1oLvR+Mf80L9TvbdGAMoYKhFaU23sJmeG97MVD1wwbHsRtooS1maMiXWuzUhFwvckkicC4rv7oyUperYzpPxMZOdrOOkZ2dkoYjbMEK6eOkNMtEv0bNAvVnNZs99TLDNK0iuzRiYs8mEtsLBKAL/z8jgEaT6GQjPTiQluukM2eus8Zf3ZhmhpeFjlDwBo83nsScwHgJIW0PFV9f9YybVAkiu2WSljawj/V3YS+7dJUfBMQ5eHurVBdAgz7UghvuSdCrBJZMRmcDHeDH3mt1DMZYnjEP3UUggtl6TVbq2pbIFsgmFFgMxNi5NJ8Fen1wHyvQkgJ0CDx5hrMeU53NJoK5SJPRJ0DCIyQ/hfenx6ZHPQcYWlCgLlGC3In3gF03M6BtGhtcxT8jKygJhhonoZRN8eJl4j8f1O9gvrY/3R6f3qjFklJKGOThHuXLXAhti9IaubxNSpkfuHIZwIJZ3MoL3xQ3AKifD+ib3iw3tynhkn3Lf8/7Mb9P1oCxhHCRy79BLd/lHNiE8yIOMhG5PwxCzBJSMoNWlOq/G1tp9Yh0DznssdGVy5XIxr0afSc+Jkysepsw6gE1qAAAUFUlEQVQxCRC8cCL6X5EiEWzkHlJ/qqDzNOQmnp40xlyAVtEkN631wpSOCYKLo/Lo7vYe/L568+GymFGx9KUNcRijQLbC/zlOK2tVQqJ3gaPtKEtzuBPXtY47vJNN9IzJyixU9exMlQINr1JRiRwGGrwInPg3tmiT70oPztKCDIHod0ysnkbBxrhjiojeMdmNkGRKnaPeH5MhTU6BpfVizzaVJHnll1B2CtASrJRVgJYq5NLW9zd0qLxvDERpUmioFAleicQWvUKPEppiGz783hptKiprOA81/8nfu9vlUULsFYe/MwGfpV4pWw0fmH2he0bCWOGsBvmdyx1gSS1BesyrMT00glawyjS2PsM7x4yf8aD4e3dyauyAq3j4zxp8ZdgIjhO6igaU7EleVLld60nFromIbOxmTnMUObkEw5DgaUEuq0Pk/ZTyNiG8SAYRA2v1HuXGn1a/2bl388vGQlyvNFY83todhOYT3MjUcW85sBIAbOynX0aaAEuAkDTCyj6avXIodiYXiKcOjsxPLAFechNsOMzJTA/zCgApYTk5327tuuPnvc6T5bF/v++6aueYxpYgm0bX3iemN8M7299ZB5shADsQhtljzyJ7bHUfDzWzc5Jgcak3uO4jXUaHPPKkdQwmNCMAQfos8JNnHwRpURn7xKMHkXefZBPMl2KeslLtTmxuAmKsRJ4oIQodWC8zeanS4UmvNGkQ7SJzN4ncstgmI4Vpu5wZVMqv+sUcKVulhUzCkn9K1BWSiE9BgjXopPAMVcXvW0DGRaQTGCjt2OZKTJ47pY4b2tKSYY8nGxfpnjKeq1McQaEoo0APO3GoEylSi74dmg6lYZr1HJgOeiz0KqnQYkpPM8X9t905EIlxucOYXP6BtAKOH58tw1fDFBSeKj9VdlH3SCtPq3SswvNrIUq+tR44WWF6AZHx9c2JbPyVa8e9Y2BrdKPntTcOsX7JQobX8oqPNGMCMFjDrNcEpkyNBNmfwBBxy7hw1YGDeqhTBLp8Po5d8/Id7SxHT1g7wEX9PJIekJUXW3xbY+fH6JW7y00Ji0qZBaNhLCi0+seGVyxLYK8n88H30zCaO0o7qpN3x1cf7TuJyjVSR+9aV+8JJ2SGMIyrDNLwVwQkLTjzY/KVELptQ54G503WSTIxWJNpTbiGXU5VXmbP2CoLEZ+sSwd6zTVcv+rdhvXIZymVz3NZQumnZa1E5javhPrP5p/RWMUcFEPHq7Nh8sk0lBBYDE0GDM4T16EFYdSlNp/CeuLcCwwT0wlkuEUrJxjaDblVXD+SYOsYDZPHxC2sIIOl72bRW2CidsJuaMtKmXBDZA/CEe8BEPKZHpCEKr88HEC+J9//dwGEQ+qk9A+pBFIJpBJIJZBKIJXAESGBPBmEI2Lk6SBTCaQSSCWQSiCVQCqBQ/OUebVaTuWVSiCVQCqBVAKpBFIJHNkSSBmEI3v+09GnEkglkEoglUAqgTwlkAKEdGGkEkglkEoglUAqgVQCuSSQAoR0UaQSSCWQSiCVQCqBVAIpQEjXQCqBVAKpBFIJpBJIJXB4CaQMwuFllF6RSiCVQCqBVAKpBI44CaQA4Yib8nTAqQRSCaQSSCWQSuDwEkgBwuFllF6RSiCVQCqBVAKpBI44CeQJENbNugE9ny2Kqf8ZifKFAfychYu79sd/XpuBUn9KRHsxrX9TzDltJJ7vVQsdWl+MRya9idNKFdC7fbd8Ji4f8AKWvzXjdz9h+ZT+mP5TPTzat6N+59ety3Fekz54+8OFKFskuv/vvun/BxfuyFqICzvej4yMt1D0mKP/0BttXP4f3PWvDEwfN/IPfW9Sv56YU6A2ZvyjF+SJO79fhk5/G4xXXp2DY//YK/jn/vYDrry4OTpO/Qidir+Lyzt+iIkLBuL4Q7zV4nE3456pq91fC5Usg9bX3omb2tX7Q2NIL04lkEoglUAqgf87CeQJEFZNbIxGt32Ka/7xIp64qSnw0zqUrNEeX2R9ijJ/8tkbVryBrBLno/FpxVG5YknMXvYDqp5wjN7ttx3f4ZV3V6Nzu2a/+wkZT3TAqE2X4sV/9tbvHNizE9NmzEPnrh1xbP7EIRK/+87mwnWzUbL7G/h24dMo9me+/ye+sy/7R7ww+31ceVVb5DfHrOZ5qx/eRJUzX8TCHeNwAoD1i55C24GvYeX7r/6hJ49sfxEGv/MNBs9cgFubVMKODQtQucG1yMrKQsH8f+hW/uKcvVj8ykxUaNkFJ/70Gk6rPBeLd4x275jXZ8HDzfDMb13wz24N8MnCORj4wL8w4PWPcfVZ/3dSn9H6AnzYcihG9bngTwwo/UoqgVQCqQSOLAkcEiDcltkQR2dkYsCcObi42KYIIOz/AZPGPIWMlVkod/bF6Nv7apTCT3h25jxU2rsJUxd+ja59emL1nIn4/KdC6NLnNlxYuQzWL30FSwo2wpXVj3cA4Z5+Q7Bk5WqcdWkn9LyyCbBjPWbMXY5rrmqPbxbOwYTZr+O77GPRuustaN/4FGS8MBrbql+DtlUjDiNvgLALz02Zgauv7Y5Fc2bgL/VaofpJxbFp1QdYvOl4XHHJqXhn6mjMeO8znFqvNXpd2xbHFYwO9vlh9XyMGPcCdhU4CdfdfDvq7n0bJduOxtA7uuCkk2rjkurAS2sKo/Tm93Cgahu0On0fnn58NFZuPohLO3ZHp4urYdfXH2LsszPwxaZs1G3bHddfXh/7N6/Aqxlf46cvluHjn4rg5u5NMWXMBOwtfSbuuO1mVDiuoK68/dnbMfmF19CtWzdsypyFT3cWQeabr2BHgQro3ucWnFuhqF47c9xA3NHvQ9z22NWoXLkWzsq3BC36TkHfzo2xbO0vuOKm/mhTtyJydm3ExKfGYvE3v6Jxm2vQ7bLasZUuAGFl2bpY++l6vDz/RRzzQwQQ9m9ahvETXsDK9T+jZrP26NWlOXJ2fo+pM1dg/48fYHnW0biuW1PMnfo8fi5yKvrcfgvOKH0Uljw7Dcd3vQ5n7BKAMB13PVwZH63chqadb3Bysh8BCFML3opxt7Vyv55yTxM8sfEGLJ1yJTYufQWjxr+Gg2XOwA29b0TVsgXw3swJmPHGRyh19nkY2Lc7CuX/DS88PRzzMzfj3Gbt8bcrmyD7m6WYu74Yimx4F/lrX4VfBrTFxOPOR4cLT8N5ba5B9bIRQD2ytn062lQCqQRSCRxeAocGCOtuxLBqq3HHrGMxb1xX/MUwCG8tWol6Z5fFA90vB1o/gZGXF0XJ0y9B+/ufxVVFF+Cvd0/AzaOm4azNL2DAohJY88rjeP2hlhhU6p/45MYaDiDU7vE4/tHxVPTsfBWu+NdH6FJmKc5tPwQbPl2MXz96FRvKNkShrNfR4upnMfPTt7D8ka7YetEI3HlxBR1VXgBhz88bULbiOVj33XZk3NMcs8r1xeR7WmH4Defj546z0LPwdJx3yzpkvjsUk3tdgd0dR+HBzjSWv2LoRafjmAEZ6HjcWuw9tTGq7JiPkh2expj7e6JMmUo4c+/bqNFjDC5u2gW33tUPSwe3wcbaAzCgbSlc26E/hn3wPiofWIOPtpZE1WM34rKLWuHeV9bg3B+fRrVOk/DPcc8ge/YgDHlxPSa+/B+sGNET6897AJMHttVx/brlU1SscZnz3jOGNkS36YUw5umH8e3sIXjx65r4YM4QvXb+tCHocdMHGDy+J06qUAWn7V2AWh0fwb3PTMN5v81BuxsXYvmG9/DKHS2w5IRr8eiN1XFjm+vQf9EK1I9wBgQgbGk6HNU3DcXL+a/DM9eViBiE31bjgy+LoErpHejRqj0uHf8xupZZgVNqdsZDk17Cgdfvw33TsvD49Mn4buZ9yDjmKrw2pjMGlayMcz/bhE5HC0C4Ft1Gv4SOJ3+FK7o/gWkrVqBeiWiBJgHC8ikDcd2YfFjx9k2oWKkJJr+3AEU/HoF75hXHGw9ejHIt78b7c2di64cz0KjDLfh4zF9x+5p6mHV/Owz9Wyucefc7uHT70zj/9ufQpGU33HZXP2zs2xLPl2+Ja5tXwRkNW+LschEoO/xWSa9IJZBKIJXAkSWB/woQ5j90Je7rXA35Wz+JEffe4UMMB3bj8f7XYXLmT2h+TgGsyt8cr9x7CUqe1x2rv8rEidiC08pXxvzPfkSlH+ehZNdpyFo8Be8lAMKMD79DjfJFMOvv3TDn4PUY0X13AAgfYtdX76DbtTegwDk3YMfyYfjbuG9x1Tm5qebDAYQTtr+BMzq8jA/m9kH7+v3w73VzsfjmUphbcRwuqwTgu8UYs/50LBgZhSg+GHcjrhqcgTsfH4eel9dFofVzYiGGrLeHo/51nyAraxKOOWo3mtUsh5a3jsNJRYEPZj2F0r3+gzuq7cRNXTpjQ8maOPnLDFQeNB3d/vIqmg/9DKvemIytS5/CGU03YfNPD+Kb6a3RO7NV7B2SAGFayXsx8Y5W2LzsKVx013ysWTAzWqV5hBjaDHwNn4YQgw/nbMDA1iej7g3jcEZJYO3bk7G9zQSMvCwi/AkQHr66BC47tzN6znwYvdrc4EDK0Xs2YMAN12LhrkqoVvAb7Lx4GMa3zo4AxJpJKNn3a2x8ZzCyZg9C72k/4v0XHk4AhOlYuHUKyhcAhv61JPLd8DX+fmGUkZAECIueuQ19JpVBxujjUPHuNRjbqxGOwk48fs9cTP1sLMZc3hCzdtfH1KdHoN6ZpXHTeWfjuG53oma5YvguczoyfumBB5stR6uB3+Prz8Y6eaUhhiNLuaWjTSWQSuB/J4HDAISr8eu6uTi10bXYU7CMAwh4rS/OnHU2to/vicxxvfDPTyrhlftbo2T97lj3ZSZOCABhwZodqLDtjUMChPELN6DRycUx655umAMDED5agDoVK+L+RZ+hTaWC6Nr4RFw2+lv8tcafAAhFjsY1zSrj5IaXYOlXZ2PelD545e6SyGyxGUMvPrT3mHNwP0Z3r4MZFYcg468HcgGEht2PQVbWLZDQ/GV1SmLonO2oVY6ZfHsxoVsZfH7NZjzatCAGXlwLhW+YjOsrvormD63FqtefCwDhV2zZcRe+fv7wAOHF4+911PuhAcJULNwxKc8cBOZ73NeuDHpP2YZLKuWdUKAAoXdtrHt7JBpcORpHH3vAAYQZHepgRasn8XjP+hjRtwUyTr8X46/YFwcIA77FplcH4etDAoQn8fb3b+CUwsDQLiWR78b/BhB2ot+FJ2Nt17fx/PmrUHHAb/j+1V5IBgR2b1+LVqc3xi2fZmFZh3qoOf4tdDz7L7ojPp89FFfcVwZrP+mZAoT/nZ5Iv51KIJXAESiBwwIE4CDeevR6dHpyhQMIpVY9gxObT8DA+3vjnWn/wMHq1/8pgFDo1Ha4rlV5PDX8ZYxYtBSN8mXilLod0HvaKuy+uxbWN74RzSr8gkcfewYPvvkFtoy8EKubv4AJXavHQgwdHlmG0iU9eDj13F74z1MdUebkquj85EI889fqeHfE1Wg/5HUMnrMOfRuVxva1s3BGk/4Yet9AbMt8DVVvGY1O55b39zzwMx7u1Axo0hvbXn0Iyxs/gXfvro12depg9d7iqNX4dgzrtAMWIEzt1wLDv66AW1vXwvsZn2P4s48jc3BD9FhYHw9cfTJG3fcQOg9b8P8OIOTsQcu6lfHVr0VxQec+GNQUsSRFAoTPxnTF/Yvzo9+VF2PJOx9g6JRJsYoCCxByDmTjsS5n4bGMHAcQMh9pid4LyuC2DudiyohhOKHPrD8BEK5G1St6ovEJ32LsvB/x4fJ5jk3gRxiELmO/QqnihbA3+2cUOLEtlr77JI49uAO1Kp6FC/oMwlmFvse3Oefj3g6F0KTnBPTodB7G3j8YD3yUhRpLB6PxfWtw503tsPbt93HlyPEotSQOEDa/9SDqXjceJUuVwD3/zkDXPFipI1AHpENOJZBKIJVAnhLIEyD8uvkjfJldHueeWtZ9af/uHVj88TrUa1DXeXFfrFiEr3/4DSdVKIWcY0qh+imlsGjFGtQ7rzaOwV4s/iATNeo1QsF927Ho8x9Qv1ZV7Mj6BN8UOBV1yxfFkg8XoXSJgli3YRvKnFodtc48EcjZh68+XoqdZevg3BI/YsGHK3GwcGmUKngA5c+siV++zMBv5euhWhmpu/Sfnzeuwqfrd+j/CxWrgNrnVMC3q5Zic7GqqHtKcRz4ZQs+/Ph7nNugJoqJk59zEN+tXY5V67fj6GKlUa92DRRnmn7Ofmz8YjVWfbMJOLokGlxQByWOzY/sH7/Hx6vWAoUroNZpx2LFmnxo0OAkuBqJ/dlYtngJtv2yB8efXAV1zjoFOft2YdmCDPyEEji5xNEoUrEa/lJwOz7Jykbdc6pg787vkPnJQTRsVAG7t3yKdbuOR43TT9RxHNj7CxYv+xT169fHz1kfYWuBiqh8Uins3fUdPv7qJ9SrcXZsMvf8vBkrP1kFHHcKzqlQCJ9+/SPq1vRASmR9du2GKHL0HqxcuhSbdmSjePnTUf+c0xGlZgLfrvoY+447Daee6MGWVJUs/2wDGjRogKMOZiMzYzF+3FMAFcqWQM7xFVGldA6WrPjc/z17MxZ9vQcNqlfEb9u+wRdb9qFmtVPxzaJMFKnbEGXybcfizC0oduyP+Hb7bpxWvS7OOLFkbAw7NqzEqg273O+KHfcXnF75dBRxZEcOsrdl4cOP1mJfzrGoWrMOKhQHPlnxMTb//AsKlq2EC2qciaPy5eDLjxbjyy07Ufi4k1C3ztk4+FMWVn1TAOfVDQAQwMYvPsUXWd+hUp1LUem4P1OekWqSVAKpBFIJHBkSSBslHRnznI4ylUAqgVQCqQRSCfwhCaQA4Q+JK704lUAqgVQCqQRSCRwZEvgfC4zGKZoI3tkAAAAASUVORK5CYII=;" vertex="1" parent="1">
                    <mxGeometry x="10" y="-30" width="233.33" height="140" as="geometry"/>
                </mxCell>
                <mxCell id="49" style="edgeStyle=none;html=1;" edge="1" parent="1" source="30" target="31">
                    <mxGeometry relative="1" as="geometry"/>
                </mxCell>
                <mxCell id="52" style="edgeStyle=none;html=1;entryX=1;entryY=0.5;entryDx=0;entryDy=0;" edge="1" parent="1" source="27" target="34">
                    <mxGeometry relative="1" as="geometry"/>
                </mxCell>
            </root>
        </mxGraphModel>
    </diagram>
</mxfile>